# Wavefront OBJ file written 2026-06-14T17:39:59
o cylinder_beam_1

# points : 26
# faces  : 32
# zones  : 1
#   0  CreatedbyGmsh  (nFaces: 32)

# <points count="26">
v 0.425 0.21 0
v 0.403125 0.2 0
v 0.425 0.19 0
v 0.46875 0.21 0
v 0.446875 0.2 0
v 0.46875 0.19 0
v 0.55625 0.19 0
v 0.578125 0.2 0
v 0.55625 0.21 0
v 0.5125 0.19 0
v 0.534375 0.2 0
v 0.5125 0.21 0
v 0.29375 0.19 0
v 0.315625 0.2 0
v 0.29375 0.21 0
v 0.3375 0.19 0
v 0.359375 0.2 0
v 0.3375 0.21 0
v 0.490625 0.2 0
v 0.25 0.19 0
v 0.271875 0.2 0
v 0.25 0.21 0
v 0.38125 0.21 0
v 0.38125 0.19 0
v 0.6 0.21 0
v 0.6 0.19 0
# </points>

# <faces count="32">
g CreatedbyGmsh
f 1 2 3
f 4 5 6
f 7 8 9
f 10 11 12
f 13 14 15
f 16 17 18
f 6 19 4
f 20 21 22
f 9 11 7
f 15 21 13
f 23 17 24
f 12 19 10
f 18 14 16
f 24 2 23
f 3 5 1
f 25 8 26
f 13 21 20
f 26 8 7
f 9 8 25
f 22 21 15
f 16 14 13
f 24 17 16
f 3 2 24
f 6 5 3
f 10 19 6
f 7 11 10
f 12 11 9
f 4 19 12
f 1 5 4
f 23 2 1
f 18 17 23
f 15 14 18
# </faces>
