v 0.60000002 0.20999999 0
v 0.60000002 0.20999999 0.0020000001
l 1 2
v 0.60000002 0.208 0
v 0.60000002 0.20999999 0
l 3 4
v 0.60000002 0.20999999 0
v 0.59799999 0.20999999 0
l 5 6
v 0.60000002 0.19 0
v 0.60000002 0.19 0.0020000001
l 7 8
v 0.60000002 0.19 0
v 0.60000002 0.192 0
l 9 10
v 0.59799999 0.19 0
v 0.60000002 0.19 0
l 11 12
v 0.25 0.20999999 0
v 0.25 0.20999999 0.0020000001
l 13 14
v 0.25 0.20999999 0
v 0.25 0.208 0
l 15 16
v 0.252 0.20999999 0
v 0.25 0.20999999 0
l 17 18
v 0.25 0.19 0.0020000001
v 0.25 0.19 0
l 19 20
v 0.25 0.192 0
v 0.25 0.19 0
l 21 22
v 0.25 0.19 0
v 0.252 0.19 0
l 23 24
