v 0.25 0.19400001 0
v 0.25 0.192 0
l 1 2
v 0.60000002 0.192 0
v 0.60000002 0.19400001 0
l 3 4
v 0.56599998 0.20999999 0
v 0.56400001 0.20999999 0
l 5 6
v 0.588 0.19 0
v 0.58999997 0.19 0
l 7 8
v 0.58200002 0.19 0
v 0.58399999 0.19 0
l 9 10
v 0.58399999 0.20999999 0
v 0.58200002 0.20999999 0
l 11 12
v 0.264 0.19 0
v 0.266 0.19 0
l 13 14
v 0.28 0.20999999 0
v 0.278 0.20999999 0
l 15 16
v 0.528 0.19 0
v 0.52999997 0.19 0
l 17 18
v 0.294 0.20999999 0
v 0.292 0.20999999 0
l 19 20
v 0.25400001 0.19 0
v 0.25600001 0.19 0
l 21 22
v 0.542 0.19 0
v 0.54400003 0.19 0
l 23 24
v 0.57200003 0.20999999 0
v 0.56999999 0.20999999 0
l 25 26
v 0.60000002 0.20200001 0
v 0.60000002 0.204 0
l 27 28
v 0.56599998 0.19 0
v 0.56800002 0.19 0
l 29 30
v 0.30199999 0.20999999 0
v 0.30000001 0.20999999 0
l 31 32
v 0.55199999 0.20999999 0
v 0.55000001 0.20999999 0
l 33 34
v 0.56800002 0.19 0
v 0.56999999 0.19 0
l 35 36
v 0.292 0.19 0
v 0.294 0.19 0
l 37 38
v 0.574 0.19 0
v 0.57599998 0.19 0
l 39 40
v 0.25 0.204 0
v 0.25 0.20200001 0
l 41 42
v 0.53399998 0.19 0
v 0.53600001 0.19 0
l 43 44
v 0.28200001 0.19 0
v 0.28400001 0.19 0
l 45 46
v 0.49399999 0.19 0
v 0.49599999 0.19 0
l 47 48
v 0.52200001 0.19 0
v 0.52399999 0.19 0
l 49 50
v 0.322 0.20999999 0
v 0.31999999 0.20999999 0
l 51 52
v 0.37799999 0.19 0
v 0.38 0.19 0
l 53 54
v 0.34599999 0.20999999 0
v 0.34400001 0.20999999 0
l 55 56
v 0.396 0.19 0
v 0.398 0.19 0
l 57 58
v 0.40400001 0.19 0
v 0.40599999 0.19 0
l 59 60
v 0.55400002 0.20999999 0
v 0.55199999 0.20999999 0
l 61 62
v 0.34999999 0.19 0
v 0.352 0.19 0
l 63 64
v 0.38800001 0.19 0
v 0.38999999 0.19 0
l 65 66
v 0.46200001 0.20999999 0
v 0.46000001 0.20999999 0
l 67 68
v 0.25799999 0.19 0
v 0.25999999 0.19 0
l 69 70
v 0.33000001 0.19 0
v 0.33199999 0.19 0
l 71 72
v 0.27200001 0.19 0
v 0.27399999 0.19 0
l 73 74
v 0.57599998 0.20999999 0
v 0.574 0.20999999 0
l 75 76
v 0.36199999 0.20999999 0
v 0.36000001 0.20999999 0
l 77 78
v 0.52999997 0.20999999 0
v 0.528 0.20999999 0
l 79 80
v 0.58999997 0.19 0
v 0.59200001 0.19 0
l 81 82
v 0.57999998 0.20999999 0
v 0.57800001 0.20999999 0
l 83 84
v 0.54400003 0.19 0
v 0.546 0.19 0
l 85 86
v 0.57200003 0.19 0
v 0.574 0.19 0
l 87 88
v 0.58399999 0.19 0
v 0.58600003 0.19 0
l 89 90
v 0.48800001 0.20999999 0
v 0.486 0.20999999 0
l 91 92
v 0.25 0.20200001 0
v 0.25 0.2 0
l 93 94
v 0.34 0.19 0
v 0.34200001 0.19 0
l 95 96
v 0.59399998 0.20999999 0
v 0.59200001 0.20999999 0
l 97 98
v 0.34400001 0.20999999 0
v 0.34200001 0.20999999 0
l 99 100
v 0.35800001 0.20999999 0
v 0.35600001 0.20999999 0
l 101 102
v 0.426 0.19 0
v 0.428 0.19 0
l 103 104
v 0.50599998 0.19 0
v 0.50800002 0.19 0
l 105 106
v 0.52600002 0.20999999 0
v 0.52399999 0.20999999 0
l 107 108
v 0.34599999 0.19 0
v 0.34799999 0.19 0
l 109 110
v 0.37400001 0.19 0
v 0.37599999 0.19 0
l 111 112
v 0.47600001 0.20999999 0
v 0.47400001 0.20999999 0
l 113 114
v 0.31400001 0.19 0
v 0.31600001 0.19 0
l 115 116
v 0.43000001 0.20999999 0
v 0.428 0.20999999 0
l 117 118
v 0.366 0.19 0
v 0.368 0.19 0
l 119 120
v 0.28400001 0.20999999 0
v 0.28200001 0.20999999 0
l 121 122
v 0.49599999 0.20999999 0
v 0.49399999 0.20999999 0
l 123 124
v 0.484 0.20999999 0
v 0.48199999 0.20999999 0
l 125 126
v 0.26199999 0.19 0
v 0.264 0.19 0
l 127 128
v 0.25999999 0.19 0
v 0.26199999 0.19 0
l 129 130
v 0.25 0.198 0
v 0.25 0.19599999 0
l 131 132
v 0.336 0.20999999 0
v 0.33399999 0.20999999 0
l 133 134
v 0.50199997 0.20999999 0
v 0.5 0.20999999 0
l 135 136
v 0.38 0.19 0
v 0.382 0.19 0
l 137 138
v 0.384 0.19 0
v 0.38600001 0.19 0
l 139 140
v 0.34200001 0.19 0
v 0.34400001 0.19 0
l 141 142
v 0.34799999 0.20999999 0
v 0.34599999 0.20999999 0
l 143 144
v 0.40799999 0.19 0
v 0.41 0.19 0
l 145 146
v 0.414 0.19 0
v 0.41600001 0.19 0
l 147 148
v 0.41999999 0.19 0
v 0.42199999 0.19 0
l 149 150
v 0.43200001 0.19 0
v 0.43399999 0.19 0
l 151 152
v 0.50999999 0.19 0
v 0.51200002 0.19 0
l 153 154
v 0.51200002 0.19 0
v 0.514 0.19 0
l 155 156
v 0.57800001 0.19 0
v 0.57999998 0.19 0
l 157 158
v 0.25 0.206 0
v 0.25 0.204 0
l 159 160
v 0.25600001 0.19 0
v 0.25799999 0.19 0
l 161 162
v 0.55800003 0.20999999 0
v 0.55599999 0.20999999 0
l 163 164
v 0.55000001 0.20999999 0
v 0.54799998 0.20999999 0
l 165 166
v 0.53200001 0.20999999 0
v 0.52999997 0.20999999 0
l 167 168
v 0.52399999 0.20999999 0
v 0.52200001 0.20999999 0
l 169 170
v 0.58200002 0.20999999 0
v 0.57999998 0.20999999 0
l 171 172
v 0.47799999 0.20999999 0
v 0.47600001 0.20999999 0
l 173 174
v 0.294 0.19 0
v 0.296 0.19 0
l 175 176
v 0.34799999 0.19 0
v 0.34999999 0.19 0
l 177 178
v 0.37200001 0.19 0
v 0.37400001 0.19 0
l 179 180
v 0.53600001 0.19 0
v 0.53799999 0.19 0
l 181 182
v 0.56999999 0.19 0
v 0.57200003 0.19 0
l 183 184
v 0.428 0.20999999 0
v 0.426 0.20999999 0
l 185 186
v 0.31200001 0.19 0
v 0.31400001 0.19 0
l 187 188
v 0.33199999 0.19 0
v 0.33399999 0.19 0
l 189 190
v 0.36399999 0.19 0
v 0.366 0.19 0
l 191 192
v 0.28200001 0.20999999 0
v 0.28 0.20999999 0
l 193 194
v 0.27000001 0.19 0
v 0.27200001 0.19 0
l 195 196
v 0.49399999 0.20999999 0
v 0.49200001 0.20999999 0
l 197 198
v 0.486 0.20999999 0
v 0.484 0.20999999 0
l 199 200
v 0.28400001 0.19 0
v 0.28600001 0.19 0
l 201 202
v 0.292 0.20999999 0
v 0.28999999 0.20999999 0
l 203 204
v 0.59200001 0.20999999 0
v 0.58999997 0.20999999 0
l 205 206
v 0.36199999 0.19 0
v 0.36399999 0.19 0
l 207 208
v 0.49200001 0.20999999 0
v 0.49000001 0.20999999 0
l 209 210
v 0.39199999 0.19 0
v 0.39399999 0.19 0
l 211 212
v 0.40200001 0.19 0
v 0.40400001 0.19 0
l 213 214
v 0.52600002 0.19 0
v 0.528 0.19 0
l 215 216
v 0.55199999 0.19 0
v 0.55400002 0.19 0
l 217 218
v 0.56999999 0.20999999 0
v 0.56800002 0.20999999 0
l 219 220
v 0.56400001 0.20999999 0
v 0.56199998 0.20999999 0
l 221 222
v 0.54400003 0.20999999 0
v 0.542 0.20999999 0
l 223 224
v 0.53799999 0.20999999 0
v 0.53600001 0.20999999 0
l 225 226
v 0.56800002 0.20999999 0
v 0.56599998 0.20999999 0
l 227 228
v 0.41 0.19 0
v 0.412 0.19 0
l 229 230
v 0.42199999 0.19 0
v 0.42399999 0.19 0
l 231 232
v 0.25799999 0.20999999 0
v 0.25600001 0.20999999 0
l 233 234
v 0.28 0.19 0
v 0.28200001 0.19 0
l 235 236
v 0.30599999 0.19 0
v 0.308 0.19 0
l 237 238
v 0.41600001 0.19 0
v 0.41800001 0.19 0
l 239 240
v 0.43000001 0.19 0
v 0.43200001 0.19 0
l 241 242
v 0.442 0.19 0
v 0.44400001 0.19 0
l 243 244
v 0.454 0.19 0
v 0.456 0.19 0
l 245 246
v 0.47 0.19 0
v 0.472 0.19 0
l 247 248
v 0.47600001 0.19 0
v 0.47799999 0.19 0
l 249 250
v 0.49200001 0.19 0
v 0.49399999 0.19 0
l 251 252
v 0.52999997 0.19 0
v 0.53200001 0.19 0
l 253 254
v 0.59200001 0.19 0
v 0.59399998 0.19 0
l 255 256
v 0.574 0.20999999 0
v 0.57200003 0.20999999 0
l 257 258
v 0.42199999 0.20999999 0
v 0.41999999 0.20999999 0
l 259 260
v 0.41 0.20999999 0
v 0.40799999 0.20999999 0
l 261 262
v 0.398 0.20999999 0
v 0.396 0.20999999 0
l 263 264
v 0.38600001 0.20999999 0
v 0.384 0.20999999 0
l 265 266
v 0.38 0.20999999 0
v 0.37799999 0.20999999 0
l 267 268
v 0.37400001 0.20999999 0
v 0.37200001 0.20999999 0
l 269 270
v 0.35600001 0.20999999 0
v 0.354 0.20999999 0
l 271 272
v 0.34999999 0.20999999 0
v 0.34799999 0.20999999 0
l 273 274
v 0.34200001 0.20999999 0
v 0.34 0.20999999 0
l 275 276
v 0.33000001 0.20999999 0
v 0.32800001 0.20999999 0
l 277 278
v 0.31600001 0.20999999 0
v 0.31400001 0.20999999 0
l 279 280
v 0.30399999 0.20999999 0
v 0.30199999 0.20999999 0
l 281 282
v 0.30000001 0.20999999 0
v 0.29800001 0.20999999 0
l 283 284
v 0.296 0.20999999 0
v 0.294 0.20999999 0
l 285 286
v 0.278 0.20999999 0
v 0.27599999 0.20999999 0
l 287 288
v 0.38600001 0.19 0
v 0.38800001 0.19 0
l 289 290
v 0.428 0.19 0
v 0.43000001 0.19 0
l 291 292
v 0.45199999 0.19 0
v 0.454 0.19 0
l 293 294
v 0.47799999 0.19 0
v 0.47999999 0.19 0
l 295 296
v 0.48199999 0.19 0
v 0.484 0.19 0
l 297 298
v 0.37200001 0.20999999 0
v 0.37 0.20999999 0
l 299 300
v 0.252 0.19 0
v 0.25400001 0.19 0
l 301 302
v 0.266 0.19 0
v 0.26800001 0.19 0
l 303 304
v 0.322 0.19 0
v 0.324 0.19 0
l 305 306
v 0.338 0.19 0
v 0.34 0.19 0
l 307 308
v 0.35800001 0.19 0
v 0.36000001 0.19 0
l 309 310
v 0.40000001 0.19 0
v 0.40200001 0.19 0
l 311 312
v 0.412 0.19 0
v 0.414 0.19 0
l 313 314
v 0.42399999 0.19 0
v 0.426 0.19 0
l 315 316
v 0.43399999 0.19 0
v 0.43599999 0.19 0
l 317 318
v 0.43599999 0.19 0
v 0.43799999 0.19 0
l 319 320
v 0.44800001 0.19 0
v 0.44999999 0.19 0
l 321 322
v 0.44999999 0.19 0
v 0.45199999 0.19 0
l 323 324
v 0.46000001 0.19 0
v 0.46200001 0.19 0
l 325 326
v 0.46599999 0.19 0
v 0.46799999 0.19 0
l 327 328
v 0.47999999 0.19 0
v 0.48199999 0.19 0
l 329 330
v 0.484 0.19 0
v 0.486 0.19 0
l 331 332
v 0.486 0.19 0
v 0.48800001 0.19 0
l 333 334
v 0.49599999 0.19 0
v 0.498 0.19 0
l 335 336
v 0.50199997 0.19 0
v 0.50400001 0.19 0
l 337 338
v 0.50800002 0.19 0
v 0.50999999 0.19 0
l 339 340
v 0.514 0.19 0
v 0.51599997 0.19 0
l 341 342
v 0.51999998 0.19 0
v 0.52200001 0.19 0
l 343 344
v 0.53200001 0.19 0
v 0.53399998 0.19 0
l 345 346
v 0.546 0.19 0
v 0.54799998 0.19 0
l 347 348
v 0.55800003 0.19 0
v 0.56 0.19 0
l 349 350
v 0.57999998 0.19 0
v 0.58200002 0.19 0
l 351 352
v 0.59600002 0.19 0
v 0.59799999 0.19 0
l 353 354
v 0.59600002 0.20999999 0
v 0.59399998 0.20999999 0
l 355 356
v 0.57800001 0.20999999 0
v 0.57599998 0.20999999 0
l 357 358
v 0.51800001 0.20999999 0
v 0.51599997 0.20999999 0
l 359 360
v 0.51200002 0.20999999 0
v 0.50999999 0.20999999 0
l 361 362
v 0.50599998 0.20999999 0
v 0.50400001 0.20999999 0
l 363 364
v 0.49000001 0.20999999 0
v 0.48800001 0.20999999 0
l 365 366
v 0.44999999 0.20999999 0
v 0.44800001 0.20999999 0
l 367 368
v 0.43799999 0.20999999 0
v 0.43599999 0.20999999 0
l 369 370
v 0.41600001 0.20999999 0
v 0.414 0.20999999 0
l 371 372
v 0.40400001 0.20999999 0
v 0.40200001 0.20999999 0
l 373 374
v 0.39199999 0.20999999 0
v 0.38999999 0.20999999 0
l 375 376
v 0.37 0.20999999 0
v 0.368 0.20999999 0
l 377 378
v 0.36399999 0.20999999 0
v 0.36199999 0.20999999 0
l 379 380
v 0.36000001 0.20999999 0
v 0.35800001 0.20999999 0
l 381 382
v 0.324 0.20999999 0
v 0.322 0.20999999 0
l 383 384
v 0.31999999 0.20999999 0
v 0.31799999 0.20999999 0
l 385 386
v 0.27399999 0.20999999 0
v 0.27200001 0.20999999 0
l 387 388
v 0.27200001 0.20999999 0
v 0.27000001 0.20999999 0
l 389 390
v 0.27000001 0.20999999 0
v 0.26800001 0.20999999 0
l 391 392
v 0.25400001 0.20999999 0
v 0.252 0.20999999 0
l 393 394
v 0.60000002 0.2 0
v 0.60000002 0.20200001 0
l 395 396
v 0.60000002 0.19599999 0
v 0.60000002 0.198 0
l 397 398
v 0.37 0.19 0
v 0.37200001 0.19 0
l 399 400
v 0.47999999 0.20999999 0
v 0.47799999 0.20999999 0
l 401 402
v 0.56 0.19 0
v 0.56199998 0.19 0
l 403 404
v 0.38999999 0.19 0
v 0.39199999 0.19 0
l 405 406
v 0.398 0.19 0
v 0.40000001 0.19 0
l 407 408
v 0.60000002 0.204 0
v 0.60000002 0.206 0
l 409 410
v 0.46799999 0.19 0
v 0.47 0.19 0
l 411 412
v 0.5 0.19 0
v 0.50199997 0.19 0
l 413 414
v 0.50400001 0.19 0
v 0.50599998 0.19 0
l 415 416
v 0.60000002 0.206 0
v 0.60000002 0.208 0
l 417 418
v 0.47400001 0.20999999 0
v 0.472 0.20999999 0
l 419 420
v 0.27399999 0.19 0
v 0.27599999 0.19 0
l 421 422
v 0.28999999 0.19 0
v 0.292 0.19 0
l 423 424
v 0.30000001 0.19 0
v 0.30199999 0.19 0
l 425 426
v 0.31600001 0.19 0
v 0.31799999 0.19 0
l 427 428
v 0.32800001 0.19 0
v 0.33000001 0.19 0
l 429 430
v 0.34400001 0.19 0
v 0.34599999 0.19 0
l 431 432
v 0.352 0.19 0
v 0.354 0.19 0
l 433 434
v 0.368 0.19 0
v 0.37 0.19 0
l 435 436
v 0.37599999 0.19 0
v 0.37799999 0.19 0
l 437 438
v 0.382 0.19 0
v 0.384 0.19 0
l 439 440
v 0.39399999 0.19 0
v 0.396 0.19 0
l 441 442
v 0.40599999 0.19 0
v 0.40799999 0.19 0
l 443 444
v 0.41800001 0.19 0
v 0.41999999 0.19 0
l 445 446
v 0.498 0.20999999 0
v 0.49599999 0.20999999 0
l 447 448
v 0.48199999 0.20999999 0
v 0.47999999 0.20999999 0
l 449 450
v 0.46799999 0.20999999 0
v 0.46599999 0.20999999 0
l 451 452
v 0.456 0.20999999 0
v 0.454 0.20999999 0
l 453 454
v 0.44400001 0.20999999 0
v 0.442 0.20999999 0
l 455 456
v 0.43200001 0.20999999 0
v 0.43000001 0.20999999 0
l 457 458
v 0.31 0.20999999 0
v 0.308 0.20999999 0
l 459 460
v 0.28600001 0.20999999 0
v 0.28400001 0.20999999 0
l 461 462
v 0.264 0.20999999 0
v 0.26199999 0.20999999 0
l 463 464
v 0.5 0.20999999 0
v 0.498 0.20999999 0
l 465 466
v 0.50400001 0.20999999 0
v 0.50199997 0.20999999 0
l 467 468
v 0.498 0.19 0
v 0.5 0.19 0
l 469 470
v 0.53799999 0.19 0
v 0.54000002 0.19 0
l 471 472
v 0.56199998 0.19 0
v 0.56400001 0.19 0
l 473 474
v 0.58600003 0.19 0
v 0.588 0.19 0
l 475 476
v 0.58600003 0.20999999 0
v 0.58399999 0.20999999 0
l 477 478
v 0.55599999 0.20999999 0
v 0.55400002 0.20999999 0
l 479 480
v 0.54000002 0.19 0
v 0.542 0.19 0
l 481 482
v 0.528 0.20999999 0
v 0.52600002 0.20999999 0
l 483 484
v 0.56400001 0.19 0
v 0.56599998 0.19 0
l 485 486
v 0.26800001 0.19 0
v 0.27000001 0.19 0
l 487 488
v 0.31799999 0.20999999 0
v 0.31600001 0.20999999 0
l 489 490
v 0.29800001 0.20999999 0
v 0.296 0.20999999 0
l 491 492
v 0.57599998 0.19 0
v 0.57800001 0.19 0
l 493 494
v 0.36000001 0.19 0
v 0.36199999 0.19 0
l 495 496
v 0.52399999 0.19 0
v 0.52600002 0.19 0
l 497 498
v 0.25600001 0.20999999 0
v 0.25400001 0.20999999 0
l 499 500
v 0.27599999 0.20999999 0
v 0.27399999 0.20999999 0
l 501 502
v 0.59399998 0.19 0
v 0.59600002 0.19 0
l 503 504
v 0.55400002 0.19 0
v 0.55599999 0.19 0
l 505 506
v 0.54799998 0.19 0
v 0.55000001 0.19 0
l 507 508
v 0.55000001 0.19 0
v 0.55199999 0.19 0
l 509 510
v 0.51599997 0.19 0
v 0.51800001 0.19 0
l 511 512
v 0.55599999 0.19 0
v 0.55800003 0.19 0
l 513 514
v 0.48800001 0.19 0
v 0.49000001 0.19 0
l 515 516
v 0.49000001 0.19 0
v 0.49200001 0.19 0
l 517 518
v 0.472 0.19 0
v 0.47400001 0.19 0
l 519 520
v 0.51800001 0.19 0
v 0.51999998 0.19 0
l 521 522
v 0.354 0.19 0
v 0.35600001 0.19 0
l 523 524
v 0.46200001 0.19 0
v 0.46399999 0.19 0
l 525 526
v 0.47400001 0.19 0
v 0.47600001 0.19 0
l 527 528
v 0.456 0.19 0
v 0.458 0.19 0
l 529 530
v 0.324 0.19 0
v 0.32600001 0.19 0
l 531 532
v 0.46399999 0.19 0
v 0.46599999 0.19 0
l 533 534
v 0.44600001 0.19 0
v 0.44800001 0.19 0
l 535 536
v 0.31799999 0.19 0
v 0.31999999 0.19 0
l 537 538
v 0.336 0.19 0
v 0.338 0.19 0
l 539 540
v 0.44400001 0.19 0
v 0.44600001 0.19 0
l 541 542
v 0.458 0.19 0
v 0.46000001 0.19 0
l 543 544
v 0.30199999 0.19 0
v 0.30399999 0.19 0
l 545 546
v 0.43799999 0.19 0
v 0.44 0.19 0
l 547 548
v 0.27599999 0.19 0
v 0.278 0.19 0
l 549 550
v 0.28799999 0.19 0
v 0.28999999 0.19 0
l 551 552
v 0.44 0.19 0
v 0.442 0.19 0
l 553 554
v 0.35600001 0.19 0
v 0.35800001 0.19 0
l 555 556
v 0.33399999 0.19 0
v 0.336 0.19 0
l 557 558
v 0.31999999 0.19 0
v 0.322 0.19 0
l 559 560
v 0.31 0.19 0
v 0.31200001 0.19 0
l 561 562
v 0.30399999 0.19 0
v 0.30599999 0.19 0
l 563 564
v 0.308 0.19 0
v 0.31 0.19 0
l 565 566
v 0.28600001 0.19 0
v 0.28799999 0.19 0
l 567 568
v 0.32600001 0.19 0
v 0.32800001 0.19 0
l 569 570
v 0.296 0.19 0
v 0.29800001 0.19 0
l 571 572
v 0.278 0.19 0
v 0.28 0.19 0
l 573 574
v 0.29800001 0.19 0
v 0.30000001 0.19 0
l 575 576
v 0.25 0.208 0
v 0.25 0.206 0
l 577 578
v 0.59799999 0.20999999 0
v 0.59600002 0.20999999 0
l 579 580
v 0.26199999 0.20999999 0
v 0.25999999 0.20999999 0
l 581 582
v 0.26800001 0.20999999 0
v 0.266 0.20999999 0
l 583 584
v 0.308 0.20999999 0
v 0.30599999 0.20999999 0
l 585 586
v 0.28999999 0.20999999 0
v 0.28799999 0.20999999 0
l 587 588
v 0.31400001 0.20999999 0
v 0.31200001 0.20999999 0
l 589 590
v 0.32800001 0.20999999 0
v 0.32600001 0.20999999 0
l 591 592
v 0.33399999 0.20999999 0
v 0.33199999 0.20999999 0
l 593 594
v 0.34 0.20999999 0
v 0.338 0.20999999 0
l 595 596
v 0.354 0.20999999 0
v 0.352 0.20999999 0
l 597 598
v 0.368 0.20999999 0
v 0.366 0.20999999 0
l 599 600
v 0.37799999 0.20999999 0
v 0.37599999 0.20999999 0
l 601 602
v 0.384 0.20999999 0
v 0.382 0.20999999 0
l 603 604
v 0.38999999 0.20999999 0
v 0.38800001 0.20999999 0
l 605 606
v 0.396 0.20999999 0
v 0.39399999 0.20999999 0
l 607 608
v 0.40200001 0.20999999 0
v 0.40000001 0.20999999 0
l 609 610
v 0.40799999 0.20999999 0
v 0.40599999 0.20999999 0
l 611 612
v 0.414 0.20999999 0
v 0.412 0.20999999 0
l 613 614
v 0.41999999 0.20999999 0
v 0.41800001 0.20999999 0
l 615 616
v 0.426 0.20999999 0
v 0.42399999 0.20999999 0
l 617 618
v 0.43599999 0.20999999 0
v 0.43399999 0.20999999 0
l 619 620
v 0.442 0.20999999 0
v 0.44 0.20999999 0
l 621 622
v 0.56199998 0.20999999 0
v 0.56 0.20999999 0
l 623 624
v 0.44800001 0.20999999 0
v 0.44600001 0.20999999 0
l 625 626
v 0.454 0.20999999 0
v 0.45199999 0.20999999 0
l 627 628
v 0.58999997 0.20999999 0
v 0.588 0.20999999 0
l 629 630
v 0.46000001 0.20999999 0
v 0.458 0.20999999 0
l 631 632
v 0.46599999 0.20999999 0
v 0.46399999 0.20999999 0
l 633 634
v 0.472 0.20999999 0
v 0.47 0.20999999 0
l 635 636
v 0.51599997 0.20999999 0
v 0.514 0.20999999 0
l 637 638
v 0.50999999 0.20999999 0
v 0.50800002 0.20999999 0
l 639 640
v 0.52200001 0.20999999 0
v 0.51999998 0.20999999 0
l 641 642
v 0.53600001 0.20999999 0
v 0.53399998 0.20999999 0
l 643 644
v 0.542 0.20999999 0
v 0.54000002 0.20999999 0
l 645 646
v 0.54799998 0.20999999 0
v 0.546 0.20999999 0
l 647 648
v 0.60000002 0.208 0
v 0.60000002 0.20999999 0
l 649 650
v 0.60000002 0.20999999 0
v 0.59799999 0.20999999 0
l 651 652
v 0.60000002 0.19 0
v 0.60000002 0.192 0
l 653 654
v 0.25 0.20999999 0
v 0.25 0.208 0
l 655 656
v 0.59799999 0.19 0
v 0.60000002 0.19 0
l 657 658
v 0.25 0.192 0
v 0.25 0.19 0
l 659 660
v 0.252 0.20999999 0
v 0.25 0.20999999 0
l 661 662
v 0.25 0.19 0
v 0.252 0.19 0
l 663 664
v 0.60000002 0.198 0
v 0.60000002 0.2 0
l 665 666
v 0.25 0.19599999 0
v 0.25 0.19400001 0
l 667 668
v 0.25999999 0.20999999 0
v 0.25799999 0.20999999 0
l 669 670
v 0.266 0.20999999 0
v 0.264 0.20999999 0
l 671 672
v 0.28799999 0.20999999 0
v 0.28600001 0.20999999 0
l 673 674
v 0.30599999 0.20999999 0
v 0.30399999 0.20999999 0
l 675 676
v 0.31200001 0.20999999 0
v 0.31 0.20999999 0
l 677 678
v 0.32600001 0.20999999 0
v 0.324 0.20999999 0
l 679 680
v 0.33199999 0.20999999 0
v 0.33000001 0.20999999 0
l 681 682
v 0.338 0.20999999 0
v 0.336 0.20999999 0
l 683 684
v 0.352 0.20999999 0
v 0.34999999 0.20999999 0
l 685 686
v 0.366 0.20999999 0
v 0.36399999 0.20999999 0
l 687 688
v 0.37599999 0.20999999 0
v 0.37400001 0.20999999 0
l 689 690
v 0.382 0.20999999 0
v 0.38 0.20999999 0
l 691 692
v 0.38800001 0.20999999 0
v 0.38600001 0.20999999 0
l 693 694
v 0.39399999 0.20999999 0
v 0.39199999 0.20999999 0
l 695 696
v 0.40000001 0.20999999 0
v 0.398 0.20999999 0
l 697 698
v 0.40599999 0.20999999 0
v 0.40400001 0.20999999 0
l 699 700
v 0.412 0.20999999 0
v 0.41 0.20999999 0
l 701 702
v 0.41800001 0.20999999 0
v 0.41600001 0.20999999 0
l 703 704
v 0.42399999 0.20999999 0
v 0.42199999 0.20999999 0
l 705 706
v 0.43399999 0.20999999 0
v 0.43200001 0.20999999 0
l 707 708
v 0.44 0.20999999 0
v 0.43799999 0.20999999 0
l 709 710
v 0.44600001 0.20999999 0
v 0.44400001 0.20999999 0
l 711 712
v 0.56 0.20999999 0
v 0.55800003 0.20999999 0
l 713 714
v 0.45199999 0.20999999 0
v 0.44999999 0.20999999 0
l 715 716
v 0.458 0.20999999 0
v 0.456 0.20999999 0
l 717 718
v 0.588 0.20999999 0
v 0.58600003 0.20999999 0
l 719 720
v 0.46399999 0.20999999 0
v 0.46200001 0.20999999 0
l 721 722
v 0.47 0.20999999 0
v 0.46799999 0.20999999 0
l 723 724
v 0.50800002 0.20999999 0
v 0.50599998 0.20999999 0
l 725 726
v 0.514 0.20999999 0
v 0.51200002 0.20999999 0
l 727 728
v 0.51999998 0.20999999 0
v 0.51800001 0.20999999 0
l 729 730
v 0.53399998 0.20999999 0
v 0.53200001 0.20999999 0
l 731 732
v 0.54000002 0.20999999 0
v 0.53799999 0.20999999 0
l 733 734
v 0.546 0.20999999 0
v 0.54400003 0.20999999 0
l 735 736
v 0.25 0.2 0
v 0.25 0.198 0
l 737 738
v 0.60000002 0.19400001 0
v 0.60000002 0.19599999 0
l 739 740
