# Wavefront OBJ file written 2026-06-15T00:09:10
o beam3d_edgeMesh

# points : 756
# lines  : 760

# <points count="756">
v 0.25 0.19 0.0099999998
v 0.60000002 0.19 0.0099999998
v 0.60000002 0.20999999 0.0099999998
v 0.25 0.20999999 0.0099999998
v 0.60000002 0.20999999 0
v 0.60000002 0.19 0
v 0.25 0.20999999 0
v 0.25 0.19 0
v 0.58999997 0.19 0.0099999998
v 0.588 0.19 0.0099999998
v 0.58600003 0.19 0.0099999998
v 0.59799999 0.19 0.0099999998
v 0.59600002 0.19 0.0099999998
v 0.58399999 0.19 0.0099999998
v 0.58200002 0.19 0.0099999998
v 0.57999998 0.19 0.0099999998
v 0.57800001 0.19 0.0099999998
v 0.57599998 0.19 0.0099999998
v 0.574 0.19 0.0099999998
v 0.57200003 0.19 0.0099999998
v 0.56999999 0.19 0.0099999998
v 0.56800002 0.19 0.0099999998
v 0.56199998 0.19 0.0099999998
v 0.56 0.19 0.0099999998
v 0.55800003 0.19 0.0099999998
v 0.55599999 0.19 0.0099999998
v 0.55400002 0.19 0.0099999998
v 0.55199999 0.19 0.0099999998
v 0.546 0.19 0.0099999998
v 0.54400003 0.19 0.0099999998
v 0.266 0.19 0.0099999998
v 0.264 0.19 0.0099999998
v 0.25400001 0.19 0.0099999998
v 0.252 0.19 0.0099999998
v 0.27000001 0.19 0.0099999998
v 0.26800001 0.19 0.0099999998
v 0.27399999 0.19 0.0099999998
v 0.27200001 0.19 0.0099999998
v 0.28200001 0.19 0.0099999998
v 0.28 0.19 0.0099999998
v 0.28600001 0.19 0.0099999998
v 0.28400001 0.19 0.0099999998
v 0.28999999 0.19 0.0099999998
v 0.28799999 0.19 0.0099999998
v 0.29800001 0.19 0.0099999998
v 0.296 0.19 0.0099999998
v 0.30000001 0.19 0.0099999998
v 0.53600001 0.19 0.0099999998
v 0.53399998 0.19 0.0099999998
v 0.308 0.19 0.0099999998
v 0.30599999 0.19 0.0099999998
v 0.31200001 0.19 0.0099999998
v 0.31 0.19 0.0099999998
v 0.31600001 0.19 0.0099999998
v 0.31400001 0.19 0.0099999998
v 0.31999999 0.19 0.0099999998
v 0.31799999 0.19 0.0099999998
v 0.324 0.19 0.0099999998
v 0.322 0.19 0.0099999998
v 0.32800001 0.19 0.0099999998
v 0.32600001 0.19 0.0099999998
v 0.528 0.19 0.0099999998
v 0.52600002 0.19 0.0099999998
v 0.33199999 0.19 0.0099999998
v 0.33000001 0.19 0.0099999998
v 0.336 0.19 0.0099999998
v 0.33399999 0.19 0.0099999998
v 0.52399999 0.19 0.0099999998
v 0.52200001 0.19 0.0099999998
v 0.51999998 0.19 0.0099999998
v 0.51800001 0.19 0.0099999998
v 0.35600001 0.19 0.0099999998
v 0.354 0.19 0.0099999998
v 0.45199999 0.19 0.0099999998
v 0.44999999 0.19 0.0099999998
v 0.36399999 0.19 0.0099999998
v 0.36199999 0.19 0.0099999998
v 0.51599997 0.19 0.0099999998
v 0.514 0.19 0.0099999998
v 0.368 0.19 0.0099999998
v 0.366 0.19 0.0099999998
v 0.40000001 0.19 0.0099999998
v 0.398 0.19 0.0099999998
v 0.51200002 0.19 0.0099999998
v 0.50999999 0.19 0.0099999998
v 0.46799999 0.19 0.0099999998
v 0.46599999 0.19 0.0099999998
v 0.55000001 0.19 0.0099999998
v 0.54799998 0.19 0.0099999998
v 0.47600001 0.19 0.0099999998
v 0.47400001 0.19 0.0099999998
v 0.44400001 0.19 0.0099999998
v 0.442 0.19 0.0099999998
v 0.50800002 0.19 0.0099999998
v 0.50599998 0.19 0.0099999998
v 0.59399998 0.19 0.0099999998
v 0.59200001 0.19 0.0099999998
v 0.37599999 0.19 0.0099999998
v 0.37400001 0.19 0.0099999998
v 0.472 0.19 0.0099999998
v 0.47 0.19 0.0099999998
v 0.56599998 0.19 0.0099999998
v 0.56400001 0.19 0.0099999998
v 0.46399999 0.19 0.0099999998
v 0.46200001 0.19 0.0099999998
v 0.49200001 0.19 0.0099999998
v 0.49000001 0.19 0.0099999998
v 0.40400001 0.19 0.0099999998
v 0.40200001 0.19 0.0099999998
v 0.49599999 0.19 0.0099999998
v 0.49399999 0.19 0.0099999998
v 0.382 0.19 0.0099999998
v 0.38 0.19 0.0099999998
v 0.46000001 0.19 0.0099999998
v 0.458 0.19 0.0099999998
v 0.37799999 0.19 0.0099999998
v 0.396 0.19 0.0099999998
v 0.39399999 0.19 0.0099999998
v 0.42199999 0.19 0.0099999998
v 0.41999999 0.19 0.0099999998
v 0.352 0.19 0.0099999998
v 0.34999999 0.19 0.0099999998
v 0.44 0.19 0.0099999998
v 0.43799999 0.19 0.0099999998
v 0.484 0.19 0.0099999998
v 0.48199999 0.19 0.0099999998
v 0.5 0.19 0.0099999998
v 0.498 0.19 0.0099999998
v 0.38999999 0.19 0.0099999998
v 0.38800001 0.19 0.0099999998
v 0.36000001 0.19 0.0099999998
v 0.35800001 0.19 0.0099999998
v 0.44800001 0.19 0.0099999998
v 0.44600001 0.19 0.0099999998
v 0.542 0.19 0.0099999998
v 0.25 0.19 0.0060000001
v 0.25 0.19 0.0040000002
v 0.294 0.19 0.0099999998
v 0.292 0.19 0.0099999998
v 0.41 0.19 0.0099999998
v 0.40799999 0.19 0.0099999998
v 0.30399999 0.19 0.0099999998
v 0.30199999 0.19 0.0099999998
v 0.278 0.19 0.0099999998
v 0.27599999 0.19 0.0099999998
v 0.25799999 0.19 0.0099999998
v 0.25600001 0.19 0.0099999998
v 0.39199999 0.19 0.0099999998
v 0.26199999 0.19 0.0099999998
v 0.25999999 0.19 0.0099999998
v 0.34799999 0.19 0.0099999998
v 0.34599999 0.19 0.0099999998
v 0.338 0.19 0.0099999998
v 0.34200001 0.19 0.0099999998
v 0.34 0.19 0.0099999998
v 0.37200001 0.19 0.0099999998
v 0.38600001 0.19 0.0099999998
v 0.40599999 0.19 0.0099999998
v 0.43000001 0.19 0.0099999998
v 0.428 0.19 0.0099999998
v 0.43399999 0.19 0.0099999998
v 0.43200001 0.19 0.0099999998
v 0.43599999 0.19 0.0099999998
v 0.454 0.19 0.0099999998
v 0.456 0.19 0.0099999998
v 0.47799999 0.19 0.0099999998
v 0.47999999 0.19 0.0099999998
v 0.486 0.19 0.0099999998
v 0.48800001 0.19 0.0099999998
v 0.50199997 0.19 0.0099999998
v 0.50400001 0.19 0.0099999998
v 0.52999997 0.19 0.0099999998
v 0.53200001 0.19 0.0099999998
v 0.54000002 0.19 0.0099999998
v 0.53799999 0.19 0.0099999998
v 0.41600001 0.19 0.0099999998
v 0.414 0.19 0.0099999998
v 0.42399999 0.19 0.0099999998
v 0.384 0.19 0.0099999998
v 0.60000002 0.19 0.0040000002
v 0.60000002 0.19 0.0060000001
v 0.37 0.19 0.0099999998
v 0.34400001 0.19 0.0099999998
v 0.41800001 0.19 0.0099999998
v 0.25 0.19 0.0020000001
v 0.60000002 0.19 0.0020000001
v 0.25 0.19 0.0080000004
v 0.60000002 0.19 0.0080000004
v 0.426 0.19 0.0099999998
v 0.412 0.19 0.0099999998
v 0.60000002 0.2 0.0099999998
v 0.60000002 0.198 0.0099999998
v 0.60000002 0.19599999 0.0099999998
v 0.60000002 0.19400001 0.0099999998
v 0.60000002 0.204 0.0099999998
v 0.60000002 0.20200001 0.0099999998
v 0.60000002 0.208 0.0099999998
v 0.60000002 0.206 0.0099999998
v 0.60000002 0.20999999 0.0020000001
v 0.60000002 0.20999999 0.0040000002
v 0.60000002 0.20999999 0.0060000001
v 0.60000002 0.192 0.0099999998
v 0.60000002 0.20999999 0.0080000004
v 0.58999997 0.20999999 0.0099999998
v 0.59200001 0.20999999 0.0099999998
v 0.57800001 0.20999999 0.0099999998
v 0.57999998 0.20999999 0.0099999998
v 0.574 0.20999999 0.0099999998
v 0.57599998 0.20999999 0.0099999998
v 0.56999999 0.20999999 0.0099999998
v 0.57200003 0.20999999 0.0099999998
v 0.56599998 0.20999999 0.0099999998
v 0.56800002 0.20999999 0.0099999998
v 0.56199998 0.20999999 0.0099999998
v 0.56400001 0.20999999 0.0099999998
v 0.55800003 0.20999999 0.0099999998
v 0.56 0.20999999 0.0099999998
v 0.55400002 0.20999999 0.0099999998
v 0.55599999 0.20999999 0.0099999998
v 0.30399999 0.20999999 0.0099999998
v 0.30599999 0.20999999 0.0099999998
v 0.294 0.20999999 0.0099999998
v 0.296 0.20999999 0.0099999998
v 0.546 0.20999999 0.0099999998
v 0.54799998 0.20999999 0.0099999998
v 0.28999999 0.20999999 0.0099999998
v 0.292 0.20999999 0.0099999998
v 0.29800001 0.20999999 0.0099999998
v 0.542 0.20999999 0.0099999998
v 0.54400003 0.20999999 0.0099999998
v 0.53799999 0.20999999 0.0099999998
v 0.54000002 0.20999999 0.0099999998
v 0.28799999 0.20999999 0.0099999998
v 0.53399998 0.20999999 0.0099999998
v 0.53600001 0.20999999 0.0099999998
v 0.28400001 0.20999999 0.0099999998
v 0.28600001 0.20999999 0.0099999998
v 0.52999997 0.20999999 0.0099999998
v 0.53200001 0.20999999 0.0099999998
v 0.52600002 0.20999999 0.0099999998
v 0.528 0.20999999 0.0099999998
v 0.52399999 0.20999999 0.0099999998
v 0.28 0.20999999 0.0099999998
v 0.28200001 0.20999999 0.0099999998
v 0.51999998 0.20999999 0.0099999998
v 0.52200001 0.20999999 0.0099999998
v 0.51599997 0.20999999 0.0099999998
v 0.51800001 0.20999999 0.0099999998
v 0.27599999 0.20999999 0.0099999998
v 0.278 0.20999999 0.0099999998
v 0.27200001 0.20999999 0.0099999998
v 0.27399999 0.20999999 0.0099999998
v 0.27000001 0.20999999 0.0099999998
v 0.5 0.20999999 0.0099999998
v 0.50199997 0.20999999 0.0099999998
v 0.498 0.20999999 0.0099999998
v 0.49399999 0.20999999 0.0099999998
v 0.49599999 0.20999999 0.0099999998
v 0.266 0.20999999 0.0099999998
v 0.26800001 0.20999999 0.0099999998
v 0.398 0.20999999 0.0099999998
v 0.40000001 0.20999999 0.0099999998
v 0.486 0.20999999 0.0099999998
v 0.48800001 0.20999999 0.0099999998
v 0.48199999 0.20999999 0.0099999998
v 0.484 0.20999999 0.0099999998
v 0.44999999 0.20999999 0.0099999998
v 0.45199999 0.20999999 0.0099999998
v 0.33199999 0.20999999 0.0099999998
v 0.33399999 0.20999999 0.0099999998
v 0.382 0.20999999 0.0099999998
v 0.384 0.20999999 0.0099999998
v 0.25600001 0.20999999 0.0099999998
v 0.25799999 0.20999999 0.0099999998
v 0.30000001 0.20999999 0.0099999998
v 0.30199999 0.20999999 0.0099999998
v 0.32800001 0.20999999 0.0099999998
v 0.33000001 0.20999999 0.0099999998
v 0.37400001 0.20999999 0.0099999998
v 0.37599999 0.20999999 0.0099999998
v 0.40599999 0.20999999 0.0099999998
v 0.40799999 0.20999999 0.0099999998
v 0.47400001 0.20999999 0.0099999998
v 0.47600001 0.20999999 0.0099999998
v 0.37799999 0.20999999 0.0099999998
v 0.38 0.20999999 0.0099999998
v 0.38600001 0.20999999 0.0099999998
v 0.38800001 0.20999999 0.0099999998
v 0.35800001 0.20999999 0.0099999998
v 0.36000001 0.20999999 0.0099999998
v 0.44600001 0.20999999 0.0099999998
v 0.44800001 0.20999999 0.0099999998
v 0.354 0.20999999 0.0099999998
v 0.35600001 0.20999999 0.0099999998
v 0.25999999 0.20999999 0.0099999998
v 0.26199999 0.20999999 0.0099999998
v 0.46799999 0.20999999 0.0099999998
v 0.47 0.20999999 0.0099999998
v 0.38999999 0.20999999 0.0099999998
v 0.39199999 0.20999999 0.0099999998
v 0.472 0.20999999 0.0099999998
v 0.454 0.20999999 0.0099999998
v 0.456 0.20999999 0.0099999998
v 0.428 0.20999999 0.0099999998
v 0.43000001 0.20999999 0.0099999998
v 0.41 0.20999999 0.0099999998
v 0.412 0.20999999 0.0099999998
v 0.366 0.20999999 0.0099999998
v 0.368 0.20999999 0.0099999998
v 0.55199999 0.20999999 0.0099999998
v 0.51200002 0.20999999 0.0099999998
v 0.514 0.20999999 0.0099999998
v 0.46000001 0.20999999 0.0099999998
v 0.46200001 0.20999999 0.0099999998
v 0.34400001 0.20999999 0.0099999998
v 0.34599999 0.20999999 0.0099999998
v 0.32600001 0.20999999 0.0099999998
v 0.58200002 0.20999999 0.0099999998
v 0.58399999 0.20999999 0.0099999998
v 0.49000001 0.20999999 0.0099999998
v 0.49200001 0.20999999 0.0099999998
v 0.40200001 0.20999999 0.0099999998
v 0.40400001 0.20999999 0.0099999998
v 0.55000001 0.20999999 0.0099999998
v 0.25 0.20999999 0.0040000002
v 0.25 0.20999999 0.0060000001
v 0.25 0.20999999 0.0080000004
v 0.58600003 0.20999999 0.0099999998
v 0.588 0.20999999 0.0099999998
v 0.44 0.20999999 0.0099999998
v 0.442 0.20999999 0.0099999998
v 0.336 0.20999999 0.0099999998
v 0.308 0.20999999 0.0099999998
v 0.264 0.20999999 0.0099999998
v 0.458 0.20999999 0.0099999998
v 0.31400001 0.20999999 0.0099999998
v 0.31600001 0.20999999 0.0099999998
v 0.50400001 0.20999999 0.0099999998
v 0.59600002 0.20999999 0.0099999998
v 0.59799999 0.20999999 0.0099999998
v 0.59399998 0.20999999 0.0099999998
v 0.50999999 0.20999999 0.0099999998
v 0.50599998 0.20999999 0.0099999998
v 0.50800002 0.20999999 0.0099999998
v 0.47799999 0.20999999 0.0099999998
v 0.46399999 0.20999999 0.0099999998
v 0.44400001 0.20999999 0.0099999998
v 0.41999999 0.20999999 0.0099999998
v 0.42199999 0.20999999 0.0099999998
v 0.41600001 0.20999999 0.0099999998
v 0.41800001 0.20999999 0.0099999998
v 0.414 0.20999999 0.0099999998
v 0.396 0.20999999 0.0099999998
v 0.39399999 0.20999999 0.0099999998
v 0.37200001 0.20999999 0.0099999998
v 0.37 0.20999999 0.0099999998
v 0.36399999 0.20999999 0.0099999998
v 0.36199999 0.20999999 0.0099999998
v 0.352 0.20999999 0.0099999998
v 0.34799999 0.20999999 0.0099999998
v 0.34999999 0.20999999 0.0099999998
v 0.338 0.20999999 0.0099999998
v 0.34 0.20999999 0.0099999998
v 0.31999999 0.20999999 0.0099999998
v 0.322 0.20999999 0.0099999998
v 0.31799999 0.20999999 0.0099999998
v 0.25400001 0.20999999 0.0099999998
v 0.31 0.20999999 0.0099999998
v 0.31200001 0.20999999 0.0099999998
v 0.43399999 0.20999999 0.0099999998
v 0.43599999 0.20999999 0.0099999998
v 0.426 0.20999999 0.0099999998
v 0.46599999 0.20999999 0.0099999998
v 0.47999999 0.20999999 0.0099999998
v 0.43200001 0.20999999 0.0099999998
v 0.25 0.20999999 0.0020000001
v 0.252 0.20999999 0.0099999998
v 0.42399999 0.20999999 0.0099999998
v 0.43799999 0.20999999 0.0099999998
v 0.324 0.20999999 0.0099999998
v 0.34200001 0.20999999 0.0099999998
v 0.25 0.2 0.0099999998
v 0.25 0.20200001 0.0099999998
v 0.25 0.204 0.0099999998
v 0.25 0.198 0.0099999998
v 0.25 0.206 0.0099999998
v 0.25 0.208 0.0099999998
v 0.25 0.19400001 0.0099999998
v 0.25 0.19599999 0.0099999998
v 0.25 0.192 0.0099999998
v 0.25 0.19400001 0
v 0.25 0.192 0
v 0.60000002 0.192 0
v 0.60000002 0.19400001 0
v 0.56599998 0.20999999 0
v 0.56400001 0.20999999 0
v 0.588 0.19 0
v 0.58999997 0.19 0
v 0.58200002 0.19 0
v 0.58399999 0.19 0
v 0.58399999 0.20999999 0
v 0.58200002 0.20999999 0
v 0.264 0.19 0
v 0.266 0.19 0
v 0.28 0.20999999 0
v 0.278 0.20999999 0
v 0.528 0.19 0
v 0.52999997 0.19 0
v 0.294 0.20999999 0
v 0.292 0.20999999 0
v 0.25400001 0.19 0
v 0.25600001 0.19 0
v 0.542 0.19 0
v 0.54400003 0.19 0
v 0.57200003 0.20999999 0
v 0.56999999 0.20999999 0
v 0.60000002 0.20200001 0
v 0.60000002 0.204 0
v 0.56599998 0.19 0
v 0.56800002 0.19 0
v 0.30199999 0.20999999 0
v 0.30000001 0.20999999 0
v 0.55199999 0.20999999 0
v 0.55000001 0.20999999 0
v 0.56999999 0.19 0
v 0.292 0.19 0
v 0.294 0.19 0
v 0.574 0.19 0
v 0.57599998 0.19 0
v 0.25 0.204 0
v 0.25 0.20200001 0
v 0.53399998 0.19 0
v 0.53600001 0.19 0
v 0.28200001 0.19 0
v 0.28400001 0.19 0
v 0.49399999 0.19 0
v 0.49599999 0.19 0
v 0.52200001 0.19 0
v 0.52399999 0.19 0
v 0.322 0.20999999 0
v 0.31999999 0.20999999 0
v 0.37799999 0.19 0
v 0.38 0.19 0
v 0.34599999 0.20999999 0
v 0.34400001 0.20999999 0
v 0.396 0.19 0
v 0.398 0.19 0
v 0.40400001 0.19 0
v 0.40599999 0.19 0
v 0.55400002 0.20999999 0
v 0.34999999 0.19 0
v 0.352 0.19 0
v 0.38800001 0.19 0
v 0.38999999 0.19 0
v 0.46200001 0.20999999 0
v 0.46000001 0.20999999 0
v 0.25799999 0.19 0
v 0.25999999 0.19 0
v 0.33000001 0.19 0
v 0.33199999 0.19 0
v 0.27200001 0.19 0
v 0.27399999 0.19 0
v 0.57599998 0.20999999 0
v 0.574 0.20999999 0
v 0.36199999 0.20999999 0
v 0.36000001 0.20999999 0
v 0.52999997 0.20999999 0
v 0.528 0.20999999 0
v 0.59200001 0.19 0
v 0.57999998 0.20999999 0
v 0.57800001 0.20999999 0
v 0.546 0.19 0
v 0.57200003 0.19 0
v 0.58600003 0.19 0
v 0.48800001 0.20999999 0
v 0.486 0.20999999 0
v 0.25 0.2 0
v 0.34 0.19 0
v 0.34200001 0.19 0
v 0.59399998 0.20999999 0
v 0.59200001 0.20999999 0
v 0.34200001 0.20999999 0
v 0.35800001 0.20999999 0
v 0.35600001 0.20999999 0
v 0.426 0.19 0
v 0.428 0.19 0
v 0.50599998 0.19 0
v 0.50800002 0.19 0
v 0.52600002 0.20999999 0
v 0.52399999 0.20999999 0
v 0.34599999 0.19 0
v 0.34799999 0.19 0
v 0.37400001 0.19 0
v 0.37599999 0.19 0
v 0.47600001 0.20999999 0
v 0.47400001 0.20999999 0
v 0.31400001 0.19 0
v 0.31600001 0.19 0
v 0.43000001 0.20999999 0
v 0.428 0.20999999 0
v 0.366 0.19 0
v 0.368 0.19 0
v 0.28400001 0.20999999 0
v 0.28200001 0.20999999 0
v 0.49599999 0.20999999 0
v 0.49399999 0.20999999 0
v 0.484 0.20999999 0
v 0.48199999 0.20999999 0
v 0.26199999 0.19 0
v 0.25 0.198 0
v 0.25 0.19599999 0
v 0.336 0.20999999 0
v 0.33399999 0.20999999 0
v 0.50199997 0.20999999 0
v 0.5 0.20999999 0
v 0.382 0.19 0
v 0.384 0.19 0
v 0.38600001 0.19 0
v 0.34400001 0.19 0
v 0.34799999 0.20999999 0
v 0.40799999 0.19 0
v 0.41 0.19 0
v 0.414 0.19 0
v 0.41600001 0.19 0
v 0.41999999 0.19 0
v 0.42199999 0.19 0
v 0.43200001 0.19 0
v 0.43399999 0.19 0
v 0.50999999 0.19 0
v 0.51200002 0.19 0
v 0.514 0.19 0
v 0.57800001 0.19 0
v 0.57999998 0.19 0
v 0.25 0.206 0
v 0.55800003 0.20999999 0
v 0.55599999 0.20999999 0
v 0.54799998 0.20999999 0
v 0.53200001 0.20999999 0
v 0.52200001 0.20999999 0
v 0.47799999 0.20999999 0
v 0.296 0.19 0
v 0.37200001 0.19 0
v 0.53799999 0.19 0
v 0.426 0.20999999 0
v 0.31200001 0.19 0
v 0.33399999 0.19 0
v 0.36399999 0.19 0
v 0.27000001 0.19 0
v 0.49200001 0.20999999 0
v 0.28600001 0.19 0
v 0.28999999 0.20999999 0
v 0.58999997 0.20999999 0
v 0.36199999 0.19 0
v 0.49000001 0.20999999 0
v 0.39199999 0.19 0
v 0.39399999 0.19 0
v 0.40200001 0.19 0
v 0.52600002 0.19 0
v 0.55199999 0.19 0
v 0.55400002 0.19 0
v 0.56800002 0.20999999 0
v 0.56199998 0.20999999 0
v 0.54400003 0.20999999 0
v 0.542 0.20999999 0
v 0.53799999 0.20999999 0
v 0.53600001 0.20999999 0
v 0.412 0.19 0
v 0.42399999 0.19 0
v 0.25799999 0.20999999 0
v 0.25600001 0.20999999 0
v 0.28 0.19 0
v 0.30599999 0.19 0
v 0.308 0.19 0
v 0.41800001 0.19 0
v 0.43000001 0.19 0
v 0.442 0.19 0
v 0.44400001 0.19 0
v 0.454 0.19 0
v 0.456 0.19 0
v 0.47 0.19 0
v 0.472 0.19 0
v 0.47600001 0.19 0
v 0.47799999 0.19 0
v 0.49200001 0.19 0
v 0.53200001 0.19 0
v 0.59399998 0.19 0
v 0.42199999 0.20999999 0
v 0.41999999 0.20999999 0
v 0.41 0.20999999 0
v 0.40799999 0.20999999 0
v 0.398 0.20999999 0
v 0.396 0.20999999 0
v 0.38600001 0.20999999 0
v 0.384 0.20999999 0
v 0.38 0.20999999 0
v 0.37799999 0.20999999 0
v 0.37400001 0.20999999 0
v 0.37200001 0.20999999 0
v 0.354 0.20999999 0
v 0.34999999 0.20999999 0
v 0.34 0.20999999 0
v 0.33000001 0.20999999 0
v 0.32800001 0.20999999 0
v 0.31600001 0.20999999 0
v 0.31400001 0.20999999 0
v 0.30399999 0.20999999 0
v 0.29800001 0.20999999 0
v 0.296 0.20999999 0
v 0.27599999 0.20999999 0
v 0.45199999 0.19 0
v 0.47999999 0.19 0
v 0.48199999 0.19 0
v 0.484 0.19 0
v 0.37 0.20999999 0
v 0.252 0.19 0
v 0.26800001 0.19 0
v 0.322 0.19 0
v 0.324 0.19 0
v 0.338 0.19 0
v 0.35800001 0.19 0
v 0.36000001 0.19 0
v 0.40000001 0.19 0
v 0.43599999 0.19 0
v 0.43799999 0.19 0
v 0.44800001 0.19 0
v 0.44999999 0.19 0
v 0.46000001 0.19 0
v 0.46200001 0.19 0
v 0.46599999 0.19 0
v 0.46799999 0.19 0
v 0.486 0.19 0
v 0.48800001 0.19 0
v 0.498 0.19 0
v 0.50199997 0.19 0
v 0.50400001 0.19 0
v 0.51599997 0.19 0
v 0.51999998 0.19 0
v 0.54799998 0.19 0
v 0.55800003 0.19 0
v 0.56 0.19 0
v 0.59600002 0.19 0
v 0.59799999 0.19 0
v 0.59600002 0.20999999 0
v 0.51800001 0.20999999 0
v 0.51599997 0.20999999 0
v 0.51200002 0.20999999 0
v 0.50999999 0.20999999 0
v 0.50599998 0.20999999 0
v 0.50400001 0.20999999 0
v 0.44999999 0.20999999 0
v 0.44800001 0.20999999 0
v 0.43799999 0.20999999 0
v 0.43599999 0.20999999 0
v 0.41600001 0.20999999 0
v 0.414 0.20999999 0
v 0.40400001 0.20999999 0
v 0.40200001 0.20999999 0
v 0.39199999 0.20999999 0
v 0.38999999 0.20999999 0
v 0.368 0.20999999 0
v 0.36399999 0.20999999 0
v 0.324 0.20999999 0
v 0.31799999 0.20999999 0
v 0.27399999 0.20999999 0
v 0.27200001 0.20999999 0
v 0.27000001 0.20999999 0
v 0.26800001 0.20999999 0
v 0.25400001 0.20999999 0
v 0.252 0.20999999 0
v 0.60000002 0.2 0
v 0.60000002 0.19599999 0
v 0.60000002 0.198 0
v 0.37 0.19 0
v 0.47999999 0.20999999 0
v 0.56199998 0.19 0
v 0.60000002 0.206 0
v 0.5 0.19 0
v 0.60000002 0.208 0
v 0.472 0.20999999 0
v 0.27599999 0.19 0
v 0.28999999 0.19 0
v 0.30000001 0.19 0
v 0.30199999 0.19 0
v 0.31799999 0.19 0
v 0.32800001 0.19 0
v 0.354 0.19 0
v 0.498 0.20999999 0
v 0.46799999 0.20999999 0
v 0.46599999 0.20999999 0
v 0.456 0.20999999 0
v 0.454 0.20999999 0
v 0.44400001 0.20999999 0
v 0.442 0.20999999 0
v 0.43200001 0.20999999 0
v 0.31 0.20999999 0
v 0.308 0.20999999 0
v 0.28600001 0.20999999 0
v 0.264 0.20999999 0
v 0.26199999 0.20999999 0
v 0.54000002 0.19 0
v 0.56400001 0.19 0
v 0.58600003 0.20999999 0
v 0.55599999 0.19 0
v 0.55000001 0.19 0
v 0.51800001 0.19 0
v 0.49000001 0.19 0
v 0.47400001 0.19 0
v 0.35600001 0.19 0
v 0.46399999 0.19 0
v 0.458 0.19 0
v 0.32600001 0.19 0
v 0.44600001 0.19 0
v 0.31999999 0.19 0
v 0.336 0.19 0
v 0.30399999 0.19 0
v 0.44 0.19 0
v 0.278 0.19 0
v 0.28799999 0.19 0
v 0.31 0.19 0
v 0.29800001 0.19 0
v 0.25 0.208 0
v 0.59799999 0.20999999 0
v 0.25999999 0.20999999 0
v 0.266 0.20999999 0
v 0.30599999 0.20999999 0
v 0.28799999 0.20999999 0
v 0.31200001 0.20999999 0
v 0.32600001 0.20999999 0
v 0.33199999 0.20999999 0
v 0.338 0.20999999 0
v 0.352 0.20999999 0
v 0.366 0.20999999 0
v 0.37599999 0.20999999 0
v 0.382 0.20999999 0
v 0.38800001 0.20999999 0
v 0.39399999 0.20999999 0
v 0.40000001 0.20999999 0
v 0.40599999 0.20999999 0
v 0.412 0.20999999 0
v 0.41800001 0.20999999 0
v 0.42399999 0.20999999 0
v 0.43399999 0.20999999 0
v 0.44 0.20999999 0
v 0.56 0.20999999 0
v 0.44600001 0.20999999 0
v 0.45199999 0.20999999 0
v 0.588 0.20999999 0
v 0.458 0.20999999 0
v 0.46399999 0.20999999 0
v 0.47 0.20999999 0
v 0.514 0.20999999 0
v 0.50800002 0.20999999 0
v 0.51999998 0.20999999 0
v 0.53399998 0.20999999 0
v 0.54000002 0.20999999 0
v 0.546 0.20999999 0
# </points>

# <edges count="760">
l 9 10
l 10 11
l 12 13
l 14 15
l 16 17
l 17 18
l 19 20
l 21 22
l 23 24
l 24 25
l 26 27
l 27 28
l 29 30
l 31 32
l 33 34
l 35 36
l 37 38
l 39 40
l 41 42
l 43 44
l 45 46
l 47 45
l 48 49
l 50 51
l 52 53
l 54 55
l 56 57
l 58 59
l 60 61
l 62 63
l 64 65
l 66 67
l 68 69
l 70 71
l 72 73
l 74 75
l 76 77
l 78 79
l 80 81
l 82 83
l 84 85
l 86 87
l 88 89
l 90 91
l 92 93
l 94 95
l 96 97
l 98 99
l 100 101
l 102 103
l 104 105
l 106 107
l 108 109
l 110 111
l 112 113
l 114 115
l 113 116
l 117 118
l 119 120
l 121 122
l 123 124
l 125 126
l 127 128
l 83 117
l 129 130
l 131 132
l 133 134
l 30 135
l 22 102
l 103 23
l 11 14
l 136 137
l 138 139
l 140 141
l 142 143
l 144 145
l 146 147
l 118 148
l 149 150
l 151 152
l 147 33
l 32 149
l 36 31
l 38 35
l 40 144
l 42 39
l 44 41
l 46 138
l 51 142
l 53 50
l 55 52
l 59 56
l 61 58
l 67 64
l 153 66
l 154 155
l 122 151
l 132 72
l 77 131
l 81 76
l 99 156
l 130 157
l 109 82
l 158 108
l 159 160
l 161 162
l 124 163
l 93 123
l 134 92
l 75 133
l 164 74
l 115 165
l 105 114
l 87 104
l 101 86
l 91 100
l 166 90
l 126 167
l 168 125
l 107 169
l 111 106
l 128 110
l 170 127
l 95 171
l 85 94
l 79 84
l 71 78
l 69 70
l 63 68
l 172 62
l 49 173
l 89 29
l 28 88
l 20 21
l 15 16
l 13 96
l 174 175
l 176 177
l 178 119
l 157 179
l 155 153
l 167 166
l 25 26
l 18 19
l 97 9
l 180 181
l 150 146
l 145 37
l 139 43
l 143 47
l 65 60
l 182 80
l 57 54
l 152 183
l 73 121
l 116 98
l 179 112
l 120 184
l 162 159
l 183 154
l 156 182
l 148 129
l 169 168
l 184 176
l 141 158
l 163 161
l 165 164
l 135 174
l 173 172
l 171 170
l 175 48
l 137 185
l 186 180
l 187 136
l 181 188
l 160 189
l 190 140
l 185 8
l 6 186
l 1 187
l 34 1
l 188 2
l 2 12
l 177 190
l 189 178
l 191 192
l 192 193
l 193 194
l 195 196
l 197 198
l 196 191
l 199 200
l 200 201
l 194 202
l 201 203
l 203 3
l 202 2
l 3 197
l 5 199
l 198 195
l 204 205
l 206 207
l 208 209
l 210 211
l 212 213
l 214 215
l 216 217
l 218 219
l 220 221
l 222 223
l 224 225
l 226 227
l 223 228
l 229 230
l 231 232
l 233 226
l 234 235
l 236 237
l 238 239
l 240 241
l 242 240
l 243 244
l 245 246
l 247 248
l 249 250
l 251 252
l 253 251
l 254 255
l 256 254
l 257 258
l 259 260
l 261 262
l 263 264
l 265 266
l 267 268
l 269 270
l 271 272
l 273 274
l 275 276
l 277 278
l 279 280
l 281 282
l 283 284
l 285 286
l 287 288
l 289 290
l 291 292
l 293 294
l 295 296
l 297 298
l 299 300
l 298 301
l 302 303
l 304 305
l 306 307
l 308 309
l 268 302
l 310 218
l 311 312
l 313 314
l 315 316
l 317 277
l 318 319
l 320 321
l 322 323
l 324 310
l 241 238
l 325 326
l 326 327
l 328 329
l 330 331
l 270 332
l 278 269
l 221 333
l 244 236
l 334 259
l 303 335
l 237 233
l 336 337
l 255 338
l 339 340
l 205 341
l 329 204
l 207 318
l 209 206
l 211 208
l 213 210
l 215 212
l 217 214
l 219 216
l 225 324
l 230 224
l 232 229
l 235 231
l 239 234
l 246 242
l 248 245
l 312 247
l 342 311
l 343 344
l 321 257
l 264 320
l 266 263
l 284 345
l 314 346
l 292 267
l 347 291
l 348 349
l 350 351
l 307 352
l 282 306
l 323 281
l 262 322
l 353 261
l 300 354
l 288 299
l 272 287
l 286 271
l 280 285
l 355 279
l 309 356
l 357 308
l 290 358
l 294 289
l 359 293
l 360 361
l 362 363
l 364 365
l 337 366
l 276 220
l 228 275
l 250 243
l 260 253
l 367 273
l 368 369
l 341 339
l 370 371
l 372 304
l 227 222
l 252 249
l 274 295
l 346 373
l 356 355
l 374 265
l 258 256
l 301 283
l 373 297
l 305 375
l 351 348
l 345 374
l 319 328
l 335 313
l 296 334
l 338 343
l 358 357
l 375 370
l 344 342
l 331 347
l 352 350
l 354 353
l 361 359
l 333 368
l 316 360
l 369 336
l 366 364
l 332 362
l 376 325
l 377 367
l 349 378
l 379 330
l 365 380
l 363 381
l 340 3
l 327 4
l 4 377
l 7 376
l 371 379
l 381 315
l 378 372
l 380 317
l 382 383
l 383 384
l 385 382
l 384 386
l 386 387
l 388 389
l 389 385
l 390 388
l 1 390
l 387 4
l 391 392
l 393 394
l 395 396
l 397 398
l 399 400
l 401 402
l 403 404
l 405 406
l 407 408
l 409 410
l 411 412
l 413 414
l 415 416
l 417 418
l 419 420
l 421 422
l 423 424
l 420 425
l 426 427
l 428 429
l 430 431
l 432 433
l 434 435
l 436 437
l 438 439
l 440 441
l 442 443
l 444 445
l 446 447
l 448 449
l 450 423
l 451 452
l 453 454
l 455 456
l 457 458
l 459 460
l 461 462
l 463 464
l 465 466
l 467 468
l 398 469
l 470 471
l 414 472
l 473 428
l 400 474
l 475 476
l 431 477
l 478 479
l 480 481
l 445 482
l 483 484
l 485 486
l 487 488
l 489 490
l 491 492
l 493 494
l 495 496
l 497 498
l 499 500
l 501 502
l 503 504
l 505 506
l 507 508
l 509 403
l 458 509
l 510 511
l 512 513
l 514 515
l 443 516
l 517 518
l 479 519
l 520 444
l 521 522
l 523 524
l 525 526
l 527 528
l 529 530
l 530 531
l 532 533
l 534 430
l 412 457
l 535 536
l 424 537
l 538 467
l 490 539
l 402 470
l 540 495
l 427 541
l 492 451
l 542 493
l 433 543
l 425 473
l 500 544
l 545 497
l 460 546
l 547 501
l 504 405
l 548 461
l 506 549
l 476 507
l 435 550
l 410 551
l 481 552
l 553 547
l 549 554
l 555 556
l 557 448
l 558 407
l 559 560
l 416 561
l 396 562
l 563 564
l 565 566
l 561 395
l 522 567
l 526 568
l 569 570
l 571 434
l 572 573
l 524 574
l 575 527
l 576 577
l 578 579
l 580 581
l 582 583
l 584 436
l 408 585
l 469 586
l 464 415
l 587 588
l 589 590
l 591 592
l 593 594
l 595 596
l 597 598
l 484 599
l 600 520
l 482 601
l 602 603
l 604 605
l 606 421
l 422 607
l 608 409
l 406 609
l 518 453
l 486 575
l 610 578
l 583 611
l 612 613
l 598 614
l 615 411
l 404 616
l 617 618
l 619 478
l 620 621
l 622 557
l 567 523
l 568 485
l 528 623
l 623 624
l 625 626
l 626 610
l 627 628
l 629 630
l 611 612
l 613 631
l 631 632
l 437 633
l 634 635
l 488 529
l 531 636
l 637 438
l 585 432
l 472 638
l 639 640
l 533 399
l 641 642
l 643 480
l 471 463
l 644 645
l 646 647
l 648 649
l 554 475
l 650 651
l 652 653
l 654 655
l 656 657
l 658 659
l 614 660
l 661 465
l 466 483
l 662 440
l 441 663
l 664 665
l 665 666
l 666 667
l 668 669
l 670 417
l 671 672
l 673 542
l 674 540
l 640 675
l 454 555
l 447 622
l 418 676
l 630 580
l 677 634
l 635 487
l 676 678
l 496 679
l 462 680
l 681 426
l 682 683
l 498 684
l 685 459
l 519 491
l 452 686
l 502 673
l 494 442
l 516 517
l 556 446
l 449 521
l 574 525
l 687 505
l 508 674
l 688 689
l 690 691
l 692 693
l 694 499
l 695 696
l 697 503
l 698 699
l 515 687
l 649 514
l 633 677
l 543 700
l 675 701
l 474 397
l 702 401
l 536 450
l 700 413
l 468 489
l 701 419
l 616 548
l 663 604
l 607 608
l 429 532
l 621 553
l 439 558
l 570 668
l 609 664
l 586 641
l 560 703
l 638 704
l 704 559
l 636 705
l 703 639
l 632 706
l 706 584
l 581 707
l 705 637
l 686 708
l 628 709
l 707 582
l 579 710
l 618 711
l 709 629
l 712 625
l 684 713
l 714 619
l 577 712
l 710 627
l 683 715
l 624 716
l 680 717
l 718 681
l 716 576
l 708 620
l 546 714
l 713 617
l 719 545
l 715 572
l 573 719
l 550 718
l 711 685
l 541 720
l 717 571
l 720 682
l 721 534
l 722 643
l 699 723
l 667 724
l 696 725
l 551 726
l 605 727
l 603 728
l 513 729
l 601 730
l 599 731
l 660 732
l 596 733
l 594 734
l 659 735
l 592 736
l 657 737
l 590 738
l 655 739
l 588 740
l 544 741
l 653 742
l 693 743
l 562 744
l 651 745
l 691 746
l 552 747
l 456 748
l 689 749
l 679 750
l 645 751
l 647 752
l 539 753
l 566 754
l 564 755
l 537 756
l 678 5
l 5 722
l 6 393
l 7 721
l 642 6
l 392 8
l 669 7
l 8 615
l 672 670
l 511 391
l 723 569
l 724 698
l 726 697
l 725 606
l 727 695
l 728 662
l 729 602
l 730 512
l 731 600
l 732 661
l 733 597
l 734 595
l 735 593
l 736 658
l 737 591
l 738 656
l 739 589
l 740 654
l 741 587
l 742 694
l 743 652
l 745 692
l 744 535
l 746 650
l 748 690
l 747 702
l 749 455
l 750 688
l 752 648
l 751 646
l 753 644
l 754 538
l 755 565
l 756 563
l 477 510
l 394 671
# </edges>
