# Wavefront OBJ file written 2026-06-15T00:09:10
o cylinder_edgeMesh

# points : 210
# lines  : 210

# <points count="210">
v 0.2499105 0.2029902 0
v 0.24964234 0.20596971 0
v 0.24919648 0.20892784 0
v 0.24964234 0.19403028 0
v 0.2499105 0.19700979 0
v 0.24919648 0.20892784 0.0099999998
v 0.24964234 0.20596971 0.0099999998
v 0.24919648 0.19107215 0
v 0.24777864 0.21473776 0.0099999998
v 0.2485745 0.21185403 0.0099999998
v 0.2443793 0.17696787 0
v 0.24567728 0.17966317 0
v 0.1831335 0.15293068 0
v 0.18597864 0.15200624 0
v 0.24131194 0.17183399 0.0099999998
v 0.23955356 0.16941379 0.0099999998
v 0.21826705 0.15345632 0.0099999998
v 0.21545085 0.15244718 0.0099999998
v 0.17000891 0.15999332 0
v 0.17245515 0.15827134 0
v 0.23345654 0.16284277 0
v 0.2356188 0.16491011 0
v 0.20671166 0.15045251 0
v 0.2096628 0.15094258 0
v 0.16767003 0.16185853 0.0099999998
v 0.16544686 0.16386026 0.0099999998
v 0.24964234 0.19403028 0.0099999998
v 0.24919648 0.19107215 0.0099999998
v 0.18597864 0.15200624 0.0099999998
v 0.1831335 0.15293068 0.0099999998
v 0.2443793 0.17696787 0.0099999998
v 0.24292244 0.17435503 0.0099999998
v 0.1918091 0.15067548 0.0099999998
v 0.18887395 0.15125361 0.0099999998
v 0.23765357 0.16710307 0
v 0.23955356 0.16941379 0
v 0.15632959 0.17565055 0.0099999998
v 0.15495156 0.17830582 0.0099999998
v 0.22101787 0.15463206 0
v 0.22369343 0.15597023 0
v 0.2485745 0.21185403 0
v 0.22628419 0.242534 0.0099999998
v 0.22878085 0.24088597 0.0099999998
v 0.17245515 0.24172866 0.0099999998
v 0.175 0.24330127 0.0099999998
v 0.21257934 0.15160826 0
v 0.21545085 0.15244718 0
v 0.2485745 0.18814598 0.0099999998
v 0.24777864 0.18526225 0.0099999998
v 0.16544686 0.23613974 0.0099999998
v 0.16767003 0.23814148 0.0099999998
v 0.24681175 0.21756874 0.0099999998
v 0.23765357 0.23289694 0.0099999998
v 0.23955356 0.23058622 0.0099999998
v 0.15002237 0.20149577 0.0099999998
v 0.15020129 0.20448196 0.0099999998
v 0.15632959 0.22434944 0
v 0.15495156 0.22169419 0
v 0.22101787 0.15463206 0.0099999998
v 0.15786394 0.17308247 0
v 0.15954915 0.17061074 0
v 0.16334741 0.16599137 0.0099999998
v 0.20074797 0.15000559 0.0099999998
v 0.19775675 0.15005034 0.0099999998
v 0.22878085 0.15911403 0.0099999998
v 0.22628419 0.15746599 0.0099999998
v 0.16334741 0.16599137 0
v 0.16544686 0.16386026 0
v 0.19775675 0.24994965 0.0099999998
v 0.20074797 0.24999441 0.0099999998
v 0.175 0.24330127 0
v 0.17245515 0.24172866 0
v 0.175 0.15669873 0
v 0.17763434 0.15528113 0
v 0.15020129 0.19551803 0
v 0.15055846 0.19254789 0
v 0.18887395 0.15125361 0
v 0.1918091 0.15067548 0
v 0.19477357 0.1502739 0
v 0.2037365 0.15013981 0
v 0.24567728 0.22033684 0
v 0.2443793 0.22303212 0
v 0.17000891 0.15999332 0.0099999998
v 0.1831335 0.24706933 0.0099999998
v 0.18597864 0.24799377 0.0099999998
v 0.1918091 0.24932453 0.0099999998
v 0.19477357 0.2497261 0.0099999998
v 0.18034875 0.15402362 0.0099999998
v 0.24292244 0.22564496 0
v 0.24131194 0.228166 0
v 0.23117448 0.23909158 0.0099999998
v 0.23345654 0.23715724 0.0099999998
v 0.19477357 0.1502739 0.0099999998
v 0.21257934 0.15160826 0.0099999998
v 0.15109262 0.21039559 0
v 0.15055846 0.20745212 0
v 0.23345654 0.16284277 0.0099999998
v 0.23117448 0.16090843 0.0099999998
v 0.15180185 0.21330184 0.0099999998
v 0.15268363 0.21616048 0.0099999998
v 0.15373479 0.18103872 0.0099999998
v 0.15268363 0.18383951 0.0099999998
v 0.15954915 0.22938927 0
v 0.15786394 0.22691754 0
v 0.22628419 0.15746599 0
v 0.22878085 0.15911403 0
v 0.17763434 0.24471886 0.0099999998
v 0.24681175 0.18243127 0
v 0.23765357 0.16710307 0.0099999998
v 0.20671166 0.24954748 0
v 0.2037365 0.2498602 0
v 0.18034875 0.24597639 0
v 0.17763434 0.24471886 0
v 0.21545085 0.24755283 0.0099999998
v 0.21826705 0.24654369 0.0099999998
v 0.16137916 0.23175579 0.0099999998
v 0.16334741 0.23400864 0.0099999998
v 0.24131194 0.228166 0.0099999998
v 0.22369343 0.24402978 0
v 0.22101787 0.24536793 0
v 0.17000891 0.24000667 0
v 0.22878085 0.24088597 0
v 0.22628419 0.242534 0
v 0.15109262 0.18960442 0
v 0.15180185 0.18669815 0
v 0.24777864 0.21473776 0
v 0.24681175 0.21756874 0
v 0.15055846 0.20745212 0.0099999998
v 0.15109262 0.21039559 0.0099999998
v 0.15180185 0.18669815 0.0099999998
v 0.15109262 0.18960442 0.0099999998
v 0.21257934 0.24839173 0
v 0.2096628 0.24905741 0
v 0.22101787 0.24536793 0.0099999998
v 0.22369343 0.24402978 0.0099999998
v 0.15055846 0.19254789 0.0099999998
v 0.21826705 0.24654369 0
v 0.21545085 0.24755283 0
v 0.18034875 0.24597639 0.0099999998
v 0.2356188 0.2350899 0.0099999998
v 0.2443793 0.22303212 0.0099999998
v 0.24567728 0.22033684 0.0099999998
v 0.16767003 0.23814148 0
v 0.20074797 0.24999441 0
v 0.17000891 0.24000667 0.0099999998
v 0.15495156 0.17830582 0
v 0.15632959 0.17565055 0
v 0.24777864 0.18526225 0
v 0.16544686 0.23613974 0
v 0.18887395 0.2487464 0.0099999998
v 0.16767003 0.16185853 0
v 0.18597864 0.24799377 0
v 0.1831335 0.24706933 0
v 0.19775675 0.24994965 0
v 0.15786394 0.22691754 0.0099999998
v 0.15954915 0.22938927 0.0099999998
v 0.20671166 0.15045251 0.0099999998
v 0.2037365 0.15013981 0.0099999998
v 0.24292244 0.22564496 0.0099999998
v 0.15373479 0.21896127 0
v 0.15002237 0.19850422 0.0099999998
v 0.16137916 0.16824421 0
v 0.15002237 0.19850422 0
v 0.15373479 0.21896127 0.0099999998
v 0.15495156 0.22169419 0.0099999998
v 0.15632959 0.22434944 0.0099999998
v 0.16137916 0.16824421 0.0099999998
v 0.15020129 0.19551803 0.0099999998
v 0.15268363 0.18383951 0
v 0.15373479 0.18103872 0
v 0.2485745 0.18814598 0
v 0.18034875 0.15402362 0
v 0.17763434 0.15528113 0.0099999998
v 0.2096628 0.15094258 0.0099999998
v 0.23117448 0.16090843 0
v 0.21826705 0.15345632 0
v 0.24131194 0.17183399 0
v 0.24292244 0.17435503 0
v 0.24567728 0.17966317 0.0099999998
v 0.20671166 0.24954748 0.0099999998
v 0.2096628 0.24905741 0.0099999998
v 0.175 0.15669873 0.0099999998
v 0.15002237 0.20149577 0
v 0.15268363 0.21616048 0
v 0.16334741 0.23400864 0
v 0.19477357 0.2497261 0
v 0.23765357 0.23289694 0
v 0.2356188 0.2350899 0
v 0.19775675 0.15005034 0
v 0.18887395 0.2487464 0
v 0.15954915 0.17061074 0.0099999998
v 0.23117448 0.23909158 0
v 0.2499105 0.2029902 0.0099999998
v 0.2499105 0.19700979 0.0099999998
v 0.22369343 0.15597023 0.0099999998
v 0.2356188 0.16491011 0.0099999998
v 0.23955356 0.23058622 0
v 0.17245515 0.15827134 0.0099999998
v 0.24681175 0.18243127 0.0099999998
v 0.16137916 0.23175579 0
v 0.15786394 0.17308247 0.0099999998
v 0.15020129 0.20448196 0
v 0.21257934 0.24839173 0.0099999998
v 0.15180185 0.21330184 0
v 0.1918091 0.24932453 0
v 0.2037365 0.2498602 0.0099999998
v 0.23345654 0.23715724 0
v 0.20074797 0.15000559 0
v 0.25 0.2 0
v 0.25 0.2 0.0099999998
# </points>

# <edges count="210">
l 1 2
l 2 3
l 4 5
l 6 7
l 8 4
l 9 10
l 11 12
l 13 14
l 15 16
l 17 18
l 19 20
l 21 22
l 23 24
l 25 26
l 27 28
l 29 30
l 31 32
l 33 34
l 35 36
l 37 38
l 39 40
l 3 41
l 42 43
l 44 45
l 46 47
l 48 49
l 50 51
l 52 9
l 53 54
l 32 15
l 55 56
l 57 58
l 59 17
l 60 61
l 26 62
l 63 64
l 65 66
l 67 68
l 69 70
l 71 72
l 73 74
l 75 76
l 14 77
l 78 79
l 80 23
l 81 82
l 83 25
l 84 85
l 86 87
l 30 88
l 89 90
l 91 92
l 93 33
l 18 94
l 95 96
l 97 98
l 99 100
l 101 102
l 103 104
l 105 106
l 45 107
l 12 108
l 16 109
l 110 111
l 112 113
l 114 115
l 116 117
l 54 118
l 119 120
l 72 121
l 122 123
l 124 125
l 126 127
l 20 73
l 34 29
l 128 129
l 130 131
l 132 133
l 134 135
l 113 71
l 131 136
l 41 126
l 28 48
l 137 138
l 107 139
l 56 128
l 140 53
l 64 93
l 141 142
l 117 50
l 77 78
l 121 143
l 82 89
l 111 144
l 145 44
l 120 137
l 146 147
l 108 148
l 143 149
l 135 42
l 85 150
l 76 124
l 123 119
l 138 132
l 151 19
l 92 140
l 152 153
l 142 52
l 150 86
l 115 134
l 127 81
l 144 154
l 155 156
l 133 110
l 157 158
l 129 99
l 87 69
l 118 159
l 156 116
l 139 84
l 43 91
l 51 145
l 102 130
l 58 160
l 104 57
l 161 55
l 61 162
l 38 101
l 147 60
l 158 63
l 163 75
l 100 164
l 165 166
l 98 65
l 62 167
l 136 168
l 169 170
l 148 171
l 172 13
l 88 173
l 94 174
l 175 21
l 176 39
l 177 178
l 179 31
l 24 46
l 180 181
l 174 157
l 106 175
l 125 169
l 22 35
l 171 8
l 47 176
l 173 182
l 162 67
l 183 163
l 153 112
l 74 172
l 160 184
l 168 161
l 149 185
l 40 105
l 166 155
l 164 165
l 36 177
l 154 186
l 170 146
l 159 141
l 187 188
l 178 11
l 79 189
l 190 152
l 167 191
l 68 151
l 192 122
l 10 6
l 7 193
l 194 27
l 195 59
l 196 97
l 90 197
l 198 83
l 66 195
l 49 199
l 109 196
l 200 103
l 201 37
l 96 202
l 203 114
l 204 95
l 205 190
l 70 206
l 188 207
l 202 183
l 208 80
l 181 203
l 184 204
l 191 201
l 185 200
l 186 205
l 197 187
l 206 180
l 207 192
l 182 198
l 189 208
l 199 179
l 209 1
l 193 210
l 5 209
l 210 194
# </edges>
