v 0.58999997 0.19 0.0099999998
v -0.41000003 0.19 0.0099999998
l 1 2
v 0.588 0.19 0.0099999998
v -0.412 0.19 0.0099999998
l 3 4
v 0.59799999 0.19 0.0099999998
v -0.40200001 0.19 0.0099999998
l 5 6
v 0.58399999 0.19 0.0099999998
v -0.41600001 0.19 0.0099999998
l 7 8
v 0.57999998 0.19 0.0099999998
v -0.42000002 0.19 0.0099999998
l 9 10
v 0.57800001 0.19 0.0099999998
v -0.42199999 0.19 0.0099999998
l 11 12
v 0.574 0.19 0.0099999998
v -0.426 0.19 0.0099999998
l 13 14
v 0.56999999 0.19 0.0099999998
v -0.43000001 0.19 0.0099999998
l 15 16
v 0.56199998 0.19 0.0099999998
v -0.43800002 0.19 0.0099999998
l 17 18
v 0.56 0.19 0.0099999998
v -0.44 0.19 0.0099999998
l 19 20
v 0.55599999 0.19 0.0099999998
v -0.44400001 0.19 0.0099999998
l 21 22
v 0.55400002 0.19 0.0099999998
v -0.44599998 0.19 0.0099999998
l 23 24
v 0.546 0.19 0.0099999998
v -0.454 0.19 0.0099999998
l 25 26
v 0.266 0.19 0.0099999998
v -0.734 0.19 0.0099999998
l 27 28
v 0.25400001 0.19 0.0099999998
v -0.74599999 0.19 0.0099999998
l 29 30
v 0.27000001 0.19 0.0099999998
v -0.72999999 0.19 0.0099999998
l 31 32
v 0.27399999 0.19 0.0099999998
v -0.72600001 0.19 0.0099999998
l 33 34
v 0.28200001 0.19 0.0099999998
v -0.71799999 0.19 0.0099999998
l 35 36
v 0.28600001 0.19 0.0099999998
v -0.71399999 0.19 0.0099999998
l 37 38
v 0.28999999 0.19 0.0099999998
v -0.71000001 0.19 0.0099999998
l 39 40
v 0.29800001 0.19 0.0099999998
v -0.70199999 0.19 0.0099999998
l 41 42
v 0.30000001 0.19 0.0099999998
v -0.69999999 0.19 0.0099999998
l 43 44
v 0.53600001 0.19 0.0099999998
v -0.46399999 0.19 0.0099999998
l 45 46
v 0.308 0.19 0.0099999998
v -0.692 0.19 0.0099999998
l 47 48
v 0.31200001 0.19 0.0099999998
v -0.68799999 0.19 0.0099999998
l 49 50
v 0.31600001 0.19 0.0099999998
v -0.68399999 0.19 0.0099999998
l 51 52
v 0.31999999 0.19 0.0099999998
v -0.68000001 0.19 0.0099999998
l 53 54
v 0.324 0.19 0.0099999998
v -0.676 0.19 0.0099999998
l 55 56
v 0.32800001 0.19 0.0099999998
v -0.67199999 0.19 0.0099999998
l 57 58
v 0.528 0.19 0.0099999998
v -0.472 0.19 0.0099999998
l 59 60
v 0.33199999 0.19 0.0099999998
v -0.66800001 0.19 0.0099999998
l 61 62
v 0.336 0.19 0.0099999998
v -0.664 0.19 0.0099999998
l 63 64
v 0.52399999 0.19 0.0099999998
v -0.47600001 0.19 0.0099999998
l 65 66
v 0.51999998 0.19 0.0099999998
v -0.48000002 0.19 0.0099999998
l 67 68
v 0.35600001 0.19 0.0099999998
v -0.64399999 0.19 0.0099999998
l 69 70
v 0.45199999 0.19 0.0099999998
v -0.54800001 0.19 0.0099999998
l 71 72
v 0.36399999 0.19 0.0099999998
v -0.63600001 0.19 0.0099999998
l 73 74
v 0.51599997 0.19 0.0099999998
v -0.48400003 0.19 0.0099999998
l 75 76
v 0.368 0.19 0.0099999998
v -0.632 0.19 0.0099999998
l 77 78
v 0.40000001 0.19 0.0099999998
v -0.59999999 0.19 0.0099999998
l 79 80
v 0.51200002 0.19 0.0099999998
v -0.48799998 0.19 0.0099999998
l 81 82
v 0.46799999 0.19 0.0099999998
v -0.53200001 0.19 0.0099999998
l 83 84
v 0.55000001 0.19 0.0099999998
v -0.44999999 0.19 0.0099999998
l 85 86
v 0.47600001 0.19 0.0099999998
v -0.52399999 0.19 0.0099999998
l 87 88
v 0.44400001 0.19 0.0099999998
v -0.55599999 0.19 0.0099999998
l 89 90
v 0.50800002 0.19 0.0099999998
v -0.49199998 0.19 0.0099999998
l 91 92
v 0.59399998 0.19 0.0099999998
v -0.40600002 0.19 0.0099999998
l 93 94
v 0.37599999 0.19 0.0099999998
v -0.62400001 0.19 0.0099999998
l 95 96
v 0.472 0.19 0.0099999998
v -0.528 0.19 0.0099999998
l 97 98
v 0.56599998 0.19 0.0099999998
v -0.43400002 0.19 0.0099999998
l 99 100
v 0.46399999 0.19 0.0099999998
v -0.53600001 0.19 0.0099999998
l 101 102
v 0.49200001 0.19 0.0099999998
v -0.50799999 0.19 0.0099999998
l 103 104
v 0.40400001 0.19 0.0099999998
v -0.59599999 0.19 0.0099999998
l 105 106
v 0.49599999 0.19 0.0099999998
v -0.50400001 0.19 0.0099999998
l 107 108
v 0.382 0.19 0.0099999998
v -0.618 0.19 0.0099999998
l 109 110
v 0.46000001 0.19 0.0099999998
v -0.53999999 0.19 0.0099999998
l 111 112
v 0.38 0.19 0.0099999998
v -0.62 0.19 0.0099999998
l 113 114
v 0.396 0.19 0.0099999998
v -0.604 0.19 0.0099999998
l 115 116
v 0.42199999 0.19 0.0099999998
v -0.57800001 0.19 0.0099999998
l 117 118
v 0.352 0.19 0.0099999998
v -0.648 0.19 0.0099999998
l 119 120
v 0.44 0.19 0.0099999998
v -0.56 0.19 0.0099999998
l 121 122
v 0.484 0.19 0.0099999998
v -0.516 0.19 0.0099999998
l 123 124
v 0.5 0.19 0.0099999998
v -0.5 0.19 0.0099999998
l 125 126
v 0.398 0.19 0.0099999998
v -0.602 0.19 0.0099999998
l 127 128
v 0.38999999 0.19 0.0099999998
v -0.61000001 0.19 0.0099999998
l 129 130
v 0.36000001 0.19 0.0099999998
v -0.63999999 0.19 0.0099999998
l 131 132
v 0.44800001 0.19 0.0099999998
v -0.55199999 0.19 0.0099999998
l 133 134
v 0.54400003 0.19 0.0099999998
v -0.45599997 0.19 0.0099999998
l 135 136
v 0.56800002 0.19 0.0099999998
v -0.43199998 0.19 0.0099999998
l 137 138
v 0.56400001 0.19 0.0099999998
v -0.43599999 0.19 0.0099999998
l 139 140
v 0.58600003 0.19 0.0099999998
v -0.41399997 0.19 0.0099999998
l 141 142
v 0.25 0.19 0.0060000001
v 0.25 0.19 -0.994
l 143 144
v 0.294 0.19 0.0099999998
v -0.706 0.19 0.0099999998
l 145 146
v 0.41 0.19 0.0099999998
v -0.59 0.19 0.0099999998
l 147 148
v 0.30399999 0.19 0.0099999998
v -0.69600001 0.19 0.0099999998
l 149 150
v 0.278 0.19 0.0099999998
v -0.722 0.19 0.0099999998
l 151 152
v 0.25799999 0.19 0.0099999998
v -0.74200001 0.19 0.0099999998
l 153 154
v 0.39399999 0.19 0.0099999998
v -0.60600001 0.19 0.0099999998
l 155 156
v 0.26199999 0.19 0.0099999998
v -0.73800001 0.19 0.0099999998
l 157 158
v 0.34799999 0.19 0.0099999998
v -0.65200001 0.19 0.0099999998
l 159 160
v 0.25600001 0.19 0.0099999998
v -0.74399999 0.19 0.0099999998
l 161 162
v 0.264 0.19 0.0099999998
v -0.736 0.19 0.0099999998
l 163 164
v 0.26800001 0.19 0.0099999998
v -0.73199999 0.19 0.0099999998
l 165 166
v 0.27200001 0.19 0.0099999998
v -0.72799999 0.19 0.0099999998
l 167 168
v 0.28 0.19 0.0099999998
v -0.72 0.19 0.0099999998
l 169 170
v 0.28400001 0.19 0.0099999998
v -0.71599999 0.19 0.0099999998
l 171 172
v 0.28799999 0.19 0.0099999998
v -0.71200001 0.19 0.0099999998
l 173 174
v 0.296 0.19 0.0099999998
v -0.704 0.19 0.0099999998
l 175 176
v 0.30599999 0.19 0.0099999998
v -0.69400001 0.19 0.0099999998
l 177 178
v 0.31 0.19 0.0099999998
v -0.69 0.19 0.0099999998
l 179 180
v 0.31400001 0.19 0.0099999998
v -0.68599999 0.19 0.0099999998
l 181 182
v 0.322 0.19 0.0099999998
v -0.678 0.19 0.0099999998
l 183 184
v 0.32600001 0.19 0.0099999998
v -0.67399999 0.19 0.0099999998
l 185 186
v 0.33399999 0.19 0.0099999998
v -0.66600001 0.19 0.0099999998
l 187 188
v 0.338 0.19 0.0099999998
v -0.662 0.19 0.0099999998
l 189 190
v 0.34200001 0.19 0.0099999998
v -0.65799999 0.19 0.0099999998
l 191 192
v 0.34999999 0.19 0.0099999998
v -0.65000001 0.19 0.0099999998
l 193 194
v 0.35800001 0.19 0.0099999998
v -0.64199999 0.19 0.0099999998
l 195 196
v 0.36199999 0.19 0.0099999998
v -0.63800001 0.19 0.0099999998
l 197 198
v 0.366 0.19 0.0099999998
v -0.634 0.19 0.0099999998
l 199 200
v 0.37400001 0.19 0.0099999998
v -0.62599999 0.19 0.0099999998
l 201 202
v 0.38800001 0.19 0.0099999998
v -0.61199999 0.19 0.0099999998
l 203 204
v 0.40200001 0.19 0.0099999998
v -0.59799999 0.19 0.0099999998
l 205 206
v 0.40599999 0.19 0.0099999998
v -0.59400001 0.19 0.0099999998
l 207 208
v 0.43000001 0.19 0.0099999998
v -0.56999999 0.19 0.0099999998
l 209 210
v 0.43399999 0.19 0.0099999998
v -0.56600001 0.19 0.0099999998
l 211 212
v 0.43799999 0.19 0.0099999998
v -0.56200001 0.19 0.0099999998
l 213 214
v 0.442 0.19 0.0099999998
v -0.558 0.19 0.0099999998
l 215 216
v 0.44600001 0.19 0.0099999998
v -0.55399999 0.19 0.0099999998
l 217 218
v 0.44999999 0.19 0.0099999998
v -0.55000001 0.19 0.0099999998
l 219 220
v 0.454 0.19 0.0099999998
v -0.546 0.19 0.0099999998
l 221 222
v 0.458 0.19 0.0099999998
v -0.542 0.19 0.0099999998
l 223 224
v 0.46200001 0.19 0.0099999998
v -0.53799999 0.19 0.0099999998
l 225 226
v 0.46599999 0.19 0.0099999998
v -0.53400001 0.19 0.0099999998
l 227 228
v 0.47 0.19 0.0099999998
v -0.53 0.19 0.0099999998
l 229 230
v 0.47400001 0.19 0.0099999998
v -0.52599999 0.19 0.0099999998
l 231 232
v 0.47799999 0.19 0.0099999998
v -0.52200001 0.19 0.0099999998
l 233 234
v 0.48199999 0.19 0.0099999998
v -0.51800001 0.19 0.0099999998
l 235 236
v 0.486 0.19 0.0099999998
v -0.514 0.19 0.0099999998
l 237 238
v 0.49000001 0.19 0.0099999998
v -0.50999999 0.19 0.0099999998
l 239 240
v 0.49399999 0.19 0.0099999998
v -0.50600001 0.19 0.0099999998
l 241 242
v 0.498 0.19 0.0099999998
v -0.502 0.19 0.0099999998
l 243 244
v 0.50199997 0.19 0.0099999998
v -0.49800003 0.19 0.0099999998
l 245 246
v 0.50599998 0.19 0.0099999998
v -0.49400002 0.19 0.0099999998
l 247 248
v 0.50999999 0.19 0.0099999998
v -0.49000001 0.19 0.0099999998
l 249 250
v 0.514 0.19 0.0099999998
v -0.486 0.19 0.0099999998
l 251 252
v 0.51800001 0.19 0.0099999998
v -0.48199999 0.19 0.0099999998
l 253 254
v 0.52200001 0.19 0.0099999998
v -0.47799999 0.19 0.0099999998
l 255 256
v 0.52600002 0.19 0.0099999998
v -0.47399998 0.19 0.0099999998
l 257 258
v 0.52999997 0.19 0.0099999998
v -0.47000003 0.19 0.0099999998
l 259 260
v 0.53399998 0.19 0.0099999998
v -0.46600002 0.19 0.0099999998
l 261 262
v 0.54799998 0.19 0.0099999998
v -0.45200002 0.19 0.0099999998
l 263 264
v 0.55199999 0.19 0.0099999998
v -0.44800001 0.19 0.0099999998
l 265 266
v 0.57200003 0.19 0.0099999998
v -0.42799997 0.19 0.0099999998
l 267 268
v 0.58200002 0.19 0.0099999998
v -0.41799998 0.19 0.0099999998
l 269 270
v 0.59600002 0.19 0.0099999998
v -0.40399998 0.19 0.0099999998
l 271 272
v 0.54000002 0.19 0.0099999998
v -0.45999998 0.19 0.0099999998
l 273 274
v 0.41600001 0.19 0.0099999998
v -0.58399999 0.19 0.0099999998
l 275 276
v 0.42399999 0.19 0.0099999998
v -0.57600001 0.19 0.0099999998
l 277 278
v 0.38600001 0.19 0.0099999998
v -0.61399999 0.19 0.0099999998
l 279 280
v 0.34 0.19 0.0099999998
v -0.66 0.19 0.0099999998
l 281 282
v 0.47999999 0.19 0.0099999998
v -0.52000001 0.19 0.0099999998
l 283 284
v 0.55800003 0.19 0.0099999998
v -0.44199997 0.19 0.0099999998
l 285 286
v 0.57599998 0.19 0.0099999998
v -0.42400002 0.19 0.0099999998
l 287 288
v 0.59200001 0.19 0.0099999998
v -0.40799999 0.19 0.0099999998
l 289 290
v 0.60000002 0.19 0.0040000002
v 0.60000002 0.19 1.004
l 291 292
v 0.25999999 0.19 0.0099999998
v -0.74000001 0.19 0.0099999998
l 293 294
v 0.27599999 0.19 0.0099999998
v -0.72400001 0.19 0.0099999998
l 295 296
v 0.292 0.19 0.0099999998
v -0.708 0.19 0.0099999998
l 297 298
v 0.30199999 0.19 0.0099999998
v -0.69800001 0.19 0.0099999998
l 299 300
v 0.33000001 0.19 0.0099999998
v -0.66999999 0.19 0.0099999998
l 301 302
v 0.37 0.19 0.0099999998
v -0.63 0.19 0.0099999998
l 303 304
v 0.31799999 0.19 0.0099999998
v -0.68200001 0.19 0.0099999998
l 305 306
v 0.34599999 0.19 0.0099999998
v -0.65400001 0.19 0.0099999998
l 307 308
v 0.354 0.19 0.0099999998
v -0.646 0.19 0.0099999998
l 309 310
v 0.37799999 0.19 0.0099999998
v -0.62200001 0.19 0.0099999998
l 311 312
v 0.384 0.19 0.0099999998
v -0.616 0.19 0.0099999998
l 313 314
v 0.41999999 0.19 0.0099999998
v -0.58000001 0.19 0.0099999998
l 315 316
v 0.43200001 0.19 0.0099999998
v -0.56799999 0.19 0.0099999998
l 317 318
v 0.34400001 0.19 0.0099999998
v -0.65599999 0.19 0.0099999998
l 319 320
v 0.37200001 0.19 0.0099999998
v -0.62799999 0.19 0.0099999998
l 321 322
v 0.39199999 0.19 0.0099999998
v -0.60800001 0.19 0.0099999998
l 323 324
v 0.48800001 0.19 0.0099999998
v -0.51199999 0.19 0.0099999998
l 325 326
v 0.41800001 0.19 0.0099999998
v -0.58199999 0.19 0.0099999998
l 327 328
v 0.40799999 0.19 0.0099999998
v -0.59200001 0.19 0.0099999998
l 329 330
v 0.43599999 0.19 0.0099999998
v -0.56400001 0.19 0.0099999998
l 331 332
v 0.456 0.19 0.0099999998
v -0.544 0.19 0.0099999998
l 333 334
v 0.542 0.19 0.0099999998
v -0.458 0.19 0.0099999998
l 335 336
v 0.53200001 0.19 0.0099999998
v -0.46799999 0.19 0.0099999998
l 337 338
v 0.50400001 0.19 0.0099999998
v -0.49599999 0.19 0.0099999998
l 339 340
v 0.53799999 0.19 0.0099999998
v -0.46200001 0.19 0.0099999998
l 341 342
v 0.25 0.19 0.0040000002
v 0.25 0.19 -0.996
l 343 344
v 0.60000002 0.19 0.0020000001
v 0.60000002 0.19 1.002
l 345 346
v 0.25 0.19 0.0080000004
v 0.25 0.19 -0.992
l 347 348
v 0.60000002 0.19 0.0060000001
v 0.60000002 0.19 1.006
l 349 350
v 0.428 0.19 0.0099999998
v -0.572 0.19 0.0099999998
l 351 352
v 0.412 0.19 0.0099999998
v -0.588 0.19 0.0099999998
l 353 354
v 0.25 0.19 0.0020000001
v 0.25 0.19 -0.998
l 355 356
v 0.60000002 0.19 0
v 0.60000002 0.19 1
l 357 358
v 0.25 0.19 0.0099999998
v 0.25 0.19 -0.99
l 359 360
v 0.252 0.19 0.0099999998
v -0.748 0.19 0.0099999998
l 361 362
v 0.60000002 0.19 0.0080000004
v 0.60000002 0.19 1.008
l 363 364
v 0.60000002 0.19 0.0099999998
v -0.39999998 0.19 0.0099999998
l 365 366
v 0.414 0.19 0.0099999998
v -0.586 0.19 0.0099999998
l 367 368
v 0.426 0.19 0.0099999998
v -0.574 0.19 0.0099999998
l 369 370
v 0.60000002 0.2 0.0099999998
v 0.60000002 -0.8 0.0099999998
l 371 372
v 0.60000002 0.198 0.0099999998
v 0.60000002 -0.802 0.0099999998
l 373 374
v 0.60000002 0.19599999 0.0099999998
v 0.60000002 -0.80400001 0.0099999998
l 375 376
v 0.60000002 0.204 0.0099999998
v 0.60000002 -0.796 0.0099999998
l 377 378
v 0.60000002 0.208 0.0099999998
v 0.60000002 -0.792 0.0099999998
l 379 380
v 0.60000002 0.20200001 0.0099999998
v 0.60000002 -0.79799999 0.0099999998
l 381 382
v 0.60000002 0.20999999 0.0020000001
v 0.60000002 0.20999999 1.002
l 383 384
v 0.60000002 0.20999999 0.0040000002
v 0.60000002 0.20999999 1.004
l 385 386
v 0.60000002 0.19400001 0.0099999998
v 0.60000002 -0.80599999 0.0099999998
l 387 388
v 0.60000002 0.20999999 0.0060000001
v 0.60000002 0.20999999 1.006
l 389 390
v 0.60000002 0.20999999 0.0080000004
v 0.60000002 0.20999999 1.008
l 391 392
v 0.60000002 0.192 0.0099999998
v 0.60000002 -0.808 0.0099999998
l 393 394
v 0.60000002 0.20999999 0.0099999998
v 0.60000002 -0.79000001 0.0099999998
l 395 396
v 0.60000002 0.20999999 0
v 0.60000002 0.20999999 1
l 397 398
v 0.60000002 0.206 0.0099999998
v 0.60000002 -0.794 0.0099999998
l 399 400
v 0.58999997 0.20999999 0.0099999998
v 1.59 0.20999999 0.0099999998
l 401 402
v 0.57800001 0.20999999 0.0099999998
v 1.578 0.20999999 0.0099999998
l 403 404
v 0.574 0.20999999 0.0099999998
v 1.574 0.20999999 0.0099999998
l 405 406
v 0.56999999 0.20999999 0.0099999998
v 1.57 0.20999999 0.0099999998
l 407 408
v 0.56599998 0.20999999 0.0099999998
v 1.566 0.20999999 0.0099999998
l 409 410
v 0.56199998 0.20999999 0.0099999998
v 1.562 0.20999999 0.0099999998
l 411 412
v 0.55800003 0.20999999 0.0099999998
v 1.558 0.20999999 0.0099999998
l 413 414
v 0.55400002 0.20999999 0.0099999998
v 1.554 0.20999999 0.0099999998
l 415 416
v 0.30399999 0.20999999 0.0099999998
v 1.304 0.20999999 0.0099999998
l 417 418
v 0.294 0.20999999 0.0099999998
v 1.294 0.20999999 0.0099999998
l 419 420
v 0.546 0.20999999 0.0099999998
v 1.546 0.20999999 0.0099999998
l 421 422
v 0.28999999 0.20999999 0.0099999998
v 1.29 0.20999999 0.0099999998
l 423 424
v 0.296 0.20999999 0.0099999998
v 1.296 0.20999999 0.0099999998
l 425 426
v 0.542 0.20999999 0.0099999998
v 1.542 0.20999999 0.0099999998
l 427 428
v 0.53799999 0.20999999 0.0099999998
v 1.538 0.20999999 0.0099999998
l 429 430
v 0.28799999 0.20999999 0.0099999998
v 1.288 0.20999999 0.0099999998
l 431 432
v 0.53399998 0.20999999 0.0099999998
v 1.534 0.20999999 0.0099999998
l 433 434
v 0.28400001 0.20999999 0.0099999998
v 1.284 0.20999999 0.0099999998
l 435 436
v 0.52999997 0.20999999 0.0099999998
v 1.53 0.20999999 0.0099999998
l 437 438
v 0.52600002 0.20999999 0.0099999998
v 1.526 0.20999999 0.0099999998
l 439 440
v 0.52399999 0.20999999 0.0099999998
v 1.524 0.20999999 0.0099999998
l 441 442
v 0.28 0.20999999 0.0099999998
v 1.28 0.20999999 0.0099999998
l 443 444
v 0.51999998 0.20999999 0.0099999998
v 1.52 0.20999999 0.0099999998
l 445 446
v 0.51599997 0.20999999 0.0099999998
v 1.516 0.20999999 0.0099999998
l 447 448
v 0.27599999 0.20999999 0.0099999998
v 1.276 0.20999999 0.0099999998
l 449 450
v 0.27200001 0.20999999 0.0099999998
v 1.272 0.20999999 0.0099999998
l 451 452
v 0.27000001 0.20999999 0.0099999998
v 1.27 0.20999999 0.0099999998
l 453 454
v 0.5 0.20999999 0.0099999998
v 1.5 0.20999999 0.0099999998
l 455 456
v 0.498 0.20999999 0.0099999998
v 1.498 0.20999999 0.0099999998
l 457 458
v 0.49399999 0.20999999 0.0099999998
v 1.494 0.20999999 0.0099999998
l 459 460
v 0.266 0.20999999 0.0099999998
v 1.266 0.20999999 0.0099999998
l 461 462
v 0.398 0.20999999 0.0099999998
v 1.398 0.20999999 0.0099999998
l 463 464
v 0.486 0.20999999 0.0099999998
v 1.486 0.20999999 0.0099999998
l 465 466
v 0.48199999 0.20999999 0.0099999998
v 1.482 0.20999999 0.0099999998
l 467 468
v 0.44999999 0.20999999 0.0099999998
v 1.45 0.20999999 0.0099999998
l 469 470
v 0.33199999 0.20999999 0.0099999998
v 1.332 0.20999999 0.0099999998
l 471 472
v 0.382 0.20999999 0.0099999998
v 1.382 0.20999999 0.0099999998
l 473 474
v 0.25600001 0.20999999 0.0099999998
v 1.256 0.20999999 0.0099999998
l 475 476
v 0.30000001 0.20999999 0.0099999998
v 1.3 0.20999999 0.0099999998
l 477 478
v 0.32800001 0.20999999 0.0099999998
v 1.328 0.20999999 0.0099999998
l 479 480
v 0.37400001 0.20999999 0.0099999998
v 1.374 0.20999999 0.0099999998
l 481 482
v 0.40599999 0.20999999 0.0099999998
v 1.406 0.20999999 0.0099999998
l 483 484
v 0.47400001 0.20999999 0.0099999998
v 1.474 0.20999999 0.0099999998
l 485 486
v 0.37799999 0.20999999 0.0099999998
v 1.378 0.20999999 0.0099999998
l 487 488
v 0.38600001 0.20999999 0.0099999998
v 1.386 0.20999999 0.0099999998
l 489 490
v 0.35800001 0.20999999 0.0099999998
v 1.358 0.20999999 0.0099999998
l 491 492
v 0.44600001 0.20999999 0.0099999998
v 1.446 0.20999999 0.0099999998
l 493 494
v 0.354 0.20999999 0.0099999998
v 1.354 0.20999999 0.0099999998
l 495 496
v 0.25999999 0.20999999 0.0099999998
v 1.26 0.20999999 0.0099999998
l 497 498
v 0.46799999 0.20999999 0.0099999998
v 1.468 0.20999999 0.0099999998
l 499 500
v 0.38999999 0.20999999 0.0099999998
v 1.39 0.20999999 0.0099999998
l 501 502
v 0.47 0.20999999 0.0099999998
v 1.47 0.20999999 0.0099999998
l 503 504
v 0.454 0.20999999 0.0099999998
v 1.454 0.20999999 0.0099999998
l 505 506
v 0.428 0.20999999 0.0099999998
v 1.428 0.20999999 0.0099999998
l 507 508
v 0.41 0.20999999 0.0099999998
v 1.41 0.20999999 0.0099999998
l 509 510
v 0.366 0.20999999 0.0099999998
v 1.366 0.20999999 0.0099999998
l 511 512
v 0.45199999 0.20999999 0.0099999998
v 1.452 0.20999999 0.0099999998
l 513 514
v 0.55199999 0.20999999 0.0099999998
v 1.552 0.20999999 0.0099999998
l 515 516
v 0.51200002 0.20999999 0.0099999998
v 1.512 0.20999999 0.0099999998
l 517 518
v 0.46000001 0.20999999 0.0099999998
v 1.46 0.20999999 0.0099999998
l 519 520
v 0.34400001 0.20999999 0.0099999998
v 1.344 0.20999999 0.0099999998
l 521 522
v 0.32600001 0.20999999 0.0099999998
v 1.326 0.20999999 0.0099999998
l 523 524
v 0.58200002 0.20999999 0.0099999998
v 1.582 0.20999999 0.0099999998
l 525 526
v 0.49000001 0.20999999 0.0099999998
v 1.49 0.20999999 0.0099999998
l 527 528
v 0.40200001 0.20999999 0.0099999998
v 1.402 0.20999999 0.0099999998
l 529 530
v 0.55000001 0.20999999 0.0099999998
v 1.55 0.20999999 0.0099999998
l 531 532
v 0.528 0.20999999 0.0099999998
v 1.528 0.20999999 0.0099999998
l 533 534
v 0.25 0.20999999 0.0040000002
v 0.25 0.20999999 1.004
l 535 536
v 0.25 0.20999999 0.0060000001
v 0.25 0.20999999 1.006
l 537 538
v 0.58600003 0.20999999 0.0099999998
v 1.586 0.20999999 0.0099999998
l 539 540
v 0.44 0.20999999 0.0099999998
v 1.44 0.20999999 0.0099999998
l 541 542
v 0.33399999 0.20999999 0.0099999998
v 1.334 0.20999999 0.0099999998
l 543 544
v 0.33000001 0.20999999 0.0099999998
v 1.33 0.20999999 0.0099999998
l 545 546
v 0.30599999 0.20999999 0.0099999998
v 1.306 0.20999999 0.0099999998
l 547 548
v 0.28200001 0.20999999 0.0099999998
v 1.282 0.20999999 0.0099999998
l 549 550
v 0.264 0.20999999 0.0099999998
v 1.264 0.20999999 0.0099999998
l 551 552
v 0.456 0.20999999 0.0099999998
v 1.456 0.20999999 0.0099999998
l 553 554
v 0.28600001 0.20999999 0.0099999998
v 1.286 0.20999999 0.0099999998
l 555 556
v 0.31400001 0.20999999 0.0099999998
v 1.314 0.20999999 0.0099999998
l 557 558
v 0.50199997 0.20999999 0.0099999998
v 1.502 0.20999999 0.0099999998
l 559 560
v 0.59600002 0.20999999 0.0099999998
v 1.596 0.20999999 0.0099999998
l 561 562
v 0.59200001 0.20999999 0.0099999998
v 1.592 0.20999999 0.0099999998
l 563 564
v 0.588 0.20999999 0.0099999998
v 1.588 0.20999999 0.0099999998
l 565 566
v 0.57999998 0.20999999 0.0099999998
v 1.58 0.20999999 0.0099999998
l 567 568
v 0.57599998 0.20999999 0.0099999998
v 1.576 0.20999999 0.0099999998
l 569 570
v 0.57200003 0.20999999 0.0099999998
v 1.572 0.20999999 0.0099999998
l 571 572
v 0.56800002 0.20999999 0.0099999998
v 1.568 0.20999999 0.0099999998
l 573 574
v 0.56400001 0.20999999 0.0099999998
v 1.564 0.20999999 0.0099999998
l 575 576
v 0.56 0.20999999 0.0099999998
v 1.56 0.20999999 0.0099999998
l 577 578
v 0.55599999 0.20999999 0.0099999998
v 1.556 0.20999999 0.0099999998
l 579 580
v 0.54799998 0.20999999 0.0099999998
v 1.548 0.20999999 0.0099999998
l 581 582
v 0.54400003 0.20999999 0.0099999998
v 1.544 0.20999999 0.0099999998
l 583 584
v 0.54000002 0.20999999 0.0099999998
v 1.54 0.20999999 0.0099999998
l 585 586
v 0.53600001 0.20999999 0.0099999998
v 1.536 0.20999999 0.0099999998
l 587 588
v 0.53200001 0.20999999 0.0099999998
v 1.532 0.20999999 0.0099999998
l 589 590
v 0.52200001 0.20999999 0.0099999998
v 1.522 0.20999999 0.0099999998
l 591 592
v 0.51800001 0.20999999 0.0099999998
v 1.518 0.20999999 0.0099999998
l 593 594
v 0.514 0.20999999 0.0099999998
v 1.514 0.20999999 0.0099999998
l 595 596
v 0.50999999 0.20999999 0.0099999998
v 1.51 0.20999999 0.0099999998
l 597 598
v 0.50599998 0.20999999 0.0099999998
v 1.506 0.20999999 0.0099999998
l 599 600
v 0.49200001 0.20999999 0.0099999998
v 1.492 0.20999999 0.0099999998
l 601 602
v 0.48800001 0.20999999 0.0099999998
v 1.488 0.20999999 0.0099999998
l 603 604
v 0.484 0.20999999 0.0099999998
v 1.484 0.20999999 0.0099999998
l 605 606
v 0.47600001 0.20999999 0.0099999998
v 1.476 0.20999999 0.0099999998
l 607 608
v 0.46200001 0.20999999 0.0099999998
v 1.462 0.20999999 0.0099999998
l 609 610
v 0.44800001 0.20999999 0.0099999998
v 1.448 0.20999999 0.0099999998
l 611 612
v 0.44400001 0.20999999 0.0099999998
v 1.444 0.20999999 0.0099999998
l 613 614
v 0.41999999 0.20999999 0.0099999998
v 1.42 0.20999999 0.0099999998
l 615 616
v 0.41600001 0.20999999 0.0099999998
v 1.416 0.20999999 0.0099999998
l 617 618
v 0.412 0.20999999 0.0099999998
v 1.412 0.20999999 0.0099999998
l 619 620
v 0.40799999 0.20999999 0.0099999998
v 1.408 0.20999999 0.0099999998
l 621 622
v 0.40400001 0.20999999 0.0099999998
v 1.404 0.20999999 0.0099999998
l 623 624
v 0.40000001 0.20999999 0.0099999998
v 1.4 0.20999999 0.0099999998
l 625 626
v 0.396 0.20999999 0.0099999998
v 1.396 0.20999999 0.0099999998
l 627 628
v 0.39199999 0.20999999 0.0099999998
v 1.392 0.20999999 0.0099999998
l 629 630
v 0.38800001 0.20999999 0.0099999998
v 1.388 0.20999999 0.0099999998
l 631 632
v 0.384 0.20999999 0.0099999998
v 1.384 0.20999999 0.0099999998
l 633 634
v 0.38 0.20999999 0.0099999998
v 1.38 0.20999999 0.0099999998
l 635 636
v 0.37599999 0.20999999 0.0099999998
v 1.376 0.20999999 0.0099999998
l 637 638
v 0.37200001 0.20999999 0.0099999998
v 1.372 0.20999999 0.0099999998
l 639 640
v 0.368 0.20999999 0.0099999998
v 1.368 0.20999999 0.0099999998
l 641 642
v 0.36399999 0.20999999 0.0099999998
v 1.364 0.20999999 0.0099999998
l 643 644
v 0.36000001 0.20999999 0.0099999998
v 1.36 0.20999999 0.0099999998
l 645 646
v 0.35600001 0.20999999 0.0099999998
v 1.356 0.20999999 0.0099999998
l 647 648
v 0.352 0.20999999 0.0099999998
v 1.352 0.20999999 0.0099999998
l 649 650
v 0.34799999 0.20999999 0.0099999998
v 1.348 0.20999999 0.0099999998
l 651 652
v 0.338 0.20999999 0.0099999998
v 1.338 0.20999999 0.0099999998
l 653 654
v 0.31999999 0.20999999 0.0099999998
v 1.32 0.20999999 0.0099999998
l 655 656
v 0.31600001 0.20999999 0.0099999998
v 1.316 0.20999999 0.0099999998
l 657 658
v 0.30199999 0.20999999 0.0099999998
v 1.302 0.20999999 0.0099999998
l 659 660
v 0.29800001 0.20999999 0.0099999998
v 1.298 0.20999999 0.0099999998
l 661 662
v 0.278 0.20999999 0.0099999998
v 1.278 0.20999999 0.0099999998
l 663 664
v 0.26800001 0.20999999 0.0099999998
v 1.268 0.20999999 0.0099999998
l 665 666
v 0.25400001 0.20999999 0.0099999998
v 1.254 0.20999999 0.0099999998
l 667 668
v 0.31 0.20999999 0.0099999998
v 1.31 0.20999999 0.0099999998
l 669 670
v 0.59399998 0.20999999 0.0099999998
v 1.594 0.20999999 0.0099999998
l 671 672
v 0.43399999 0.20999999 0.0099999998
v 1.434 0.20999999 0.0099999998
l 673 674
v 0.426 0.20999999 0.0099999998
v 1.426 0.20999999 0.0099999998
l 675 676
v 0.292 0.20999999 0.0099999998
v 1.292 0.20999999 0.0099999998
l 677 678
v 0.27399999 0.20999999 0.0099999998
v 1.274 0.20999999 0.0099999998
l 679 680
v 0.25799999 0.20999999 0.0099999998
v 1.258 0.20999999 0.0099999998
l 681 682
v 0.46399999 0.20999999 0.0099999998
v 1.464 0.20999999 0.0099999998
l 683 684
v 0.37 0.20999999 0.0099999998
v 1.37 0.20999999 0.0099999998
l 685 686
v 0.47999999 0.20999999 0.0099999998
v 1.48 0.20999999 0.0099999998
l 687 688
v 0.49599999 0.20999999 0.0099999998
v 1.496 0.20999999 0.0099999998
l 689 690
v 0.472 0.20999999 0.0099999998
v 1.472 0.20999999 0.0099999998
l 691 692
v 0.46599999 0.20999999 0.0099999998
v 1.466 0.20999999 0.0099999998
l 693 694
v 0.43000001 0.20999999 0.0099999998
v 1.43 0.20999999 0.0099999998
l 695 696
v 0.41800001 0.20999999 0.0099999998
v 1.418 0.20999999 0.0099999998
l 697 698
v 0.47799999 0.20999999 0.0099999998
v 1.478 0.20999999 0.0099999998
l 699 700
v 0.58399999 0.20999999 0.0099999998
v 1.584 0.20999999 0.0099999998
l 701 702
v 0.458 0.20999999 0.0099999998
v 1.458 0.20999999 0.0099999998
l 703 704
v 0.26199999 0.20999999 0.0099999998
v 1.262 0.20999999 0.0099999998
l 705 706
v 0.50400001 0.20999999 0.0099999998
v 1.504 0.20999999 0.0099999998
l 707 708
v 0.36199999 0.20999999 0.0099999998
v 1.362 0.20999999 0.0099999998
l 709 710
v 0.43200001 0.20999999 0.0099999998
v 1.432 0.20999999 0.0099999998
l 711 712
v 0.50800002 0.20999999 0.0099999998
v 1.508 0.20999999 0.0099999998
l 713 714
v 0.442 0.20999999 0.0099999998
v 1.442 0.20999999 0.0099999998
l 715 716
v 0.414 0.20999999 0.0099999998
v 1.414 0.20999999 0.0099999998
l 717 718
v 0.39399999 0.20999999 0.0099999998
v 1.394 0.20999999 0.0099999998
l 719 720
v 0.34999999 0.20999999 0.0099999998
v 1.35 0.20999999 0.0099999998
l 721 722
v 0.308 0.20999999 0.0099999998
v 1.308 0.20999999 0.0099999998
l 723 724
v 0.34599999 0.20999999 0.0099999998
v 1.346 0.20999999 0.0099999998
l 725 726
v 0.31200001 0.20999999 0.0099999998
v 1.312 0.20999999 0.0099999998
l 727 728
v 0.31799999 0.20999999 0.0099999998
v 1.318 0.20999999 0.0099999998
l 729 730
v 0.336 0.20999999 0.0099999998
v 1.336 0.20999999 0.0099999998
l 731 732
v 0.25 0.20999999 0.0020000001
v 0.25 0.20999999 1.002
l 733 734
v 0.252 0.20999999 0.0099999998
v 1.252 0.20999999 0.0099999998
l 735 736
v 0.42199999 0.20999999 0.0099999998
v 1.422 0.20999999 0.0099999998
l 737 738
v 0.43799999 0.20999999 0.0099999998
v 1.438 0.20999999 0.0099999998
l 739 740
v 0.322 0.20999999 0.0099999998
v 1.322 0.20999999 0.0099999998
l 741 742
v 0.34 0.20999999 0.0099999998
v 1.34 0.20999999 0.0099999998
l 743 744
v 0.59799999 0.20999999 0.0099999998
v 1.598 0.20999999 0.0099999998
l 745 746
v 0.25 0.20999999 0.0080000004
v 0.25 0.20999999 1.008
l 747 748
v 0.25 0.20999999 0.0099999998
v 1.25 0.20999999 0.0099999998
l 749 750
v 0.25 0.20999999 0
v 0.25 0.20999999 1
l 751 752
v 0.43599999 0.20999999 0.0099999998
v 1.436 0.20999999 0.0099999998
l 753 754
v 0.34200001 0.20999999 0.0099999998
v 1.342 0.20999999 0.0099999998
l 755 756
v 0.42399999 0.20999999 0.0099999998
v 1.424 0.20999999 0.0099999998
l 757 758
v 0.324 0.20999999 0.0099999998
v 1.324 0.20999999 0.0099999998
l 759 760
v 0.25 0.2 0.0099999998
v 0.25 1.2 0.0099999998
l 761 762
v 0.25 0.20200001 0.0099999998
v 0.25 1.202 0.0099999998
l 763 764
v 0.25 0.198 0.0099999998
v 0.25 1.198 0.0099999998
l 765 766
v 0.25 0.204 0.0099999998
v 0.25 1.204 0.0099999998
l 767 768
v 0.25 0.206 0.0099999998
v 0.25 1.206 0.0099999998
l 769 770
v 0.25 0.19400001 0.0099999998
v 0.25 1.194 0.0099999998
l 771 772
v 0.25 0.19599999 0.0099999998
v 0.25 1.196 0.0099999998
l 773 774
v 0.25 0.192 0.0099999998
v 0.25 1.192 0.0099999998
l 775 776
v 0.25 0.19 0.0099999998
v 0.25 1.19 0.0099999998
l 777 778
v 0.25 0.208 0.0099999998
v 0.25 1.208 0.0099999998
l 779 780
v 0.25 0.19400001 0
v 0.25 -0.80599999 0
l 781 782
v 0.60000002 0.192 0
v 0.60000002 1.192 0
l 783 784
v 0.56599998 0.20999999 0
v -0.43400002 0.20999999 0
l 785 786
v 0.588 0.19 0
v 1.588 0.19 0
l 787 788
v 0.58200002 0.19 0
v 1.582 0.19 0
l 789 790
v 0.58399999 0.20999999 0
v -0.41600001 0.20999999 0
l 791 792
v 0.264 0.19 0
v 1.264 0.19 0
l 793 794
v 0.28 0.20999999 0
v -0.72 0.20999999 0
l 795 796
v 0.528 0.19 0
v 1.528 0.19 0
l 797 798
v 0.294 0.20999999 0
v -0.706 0.20999999 0
l 799 800
v 0.25400001 0.19 0
v 1.254 0.19 0
l 801 802
v 0.542 0.19 0
v 1.542 0.19 0
l 803 804
v 0.57200003 0.20999999 0
v -0.42799997 0.20999999 0
l 805 806
v 0.60000002 0.20200001 0
v 0.60000002 1.202 0
l 807 808
v 0.56599998 0.19 0
v 1.566 0.19 0
l 809 810
v 0.30199999 0.20999999 0
v -0.69800001 0.20999999 0
l 811 812
v 0.55199999 0.20999999 0
v -0.44800001 0.20999999 0
l 813 814
v 0.56800002 0.19 0
v 1.568 0.19 0
l 815 816
v 0.292 0.19 0
v 1.292 0.19 0
l 817 818
v 0.574 0.19 0
v 1.574 0.19 0
l 819 820
v 0.25 0.204 0
v 0.25 -0.796 0
l 821 822
v 0.53399998 0.19 0
v 1.534 0.19 0
l 823 824
v 0.28200001 0.19 0
v 1.282 0.19 0
l 825 826
v 0.49399999 0.19 0
v 1.494 0.19 0
l 827 828
v 0.52200001 0.19 0
v 1.522 0.19 0
l 829 830
v 0.322 0.20999999 0
v -0.678 0.20999999 0
l 831 832
v 0.37799999 0.19 0
v 1.378 0.19 0
l 833 834
v 0.34599999 0.20999999 0
v -0.65400001 0.20999999 0
l 835 836
v 0.396 0.19 0
v 1.396 0.19 0
l 837 838
v 0.40400001 0.19 0
v 1.404 0.19 0
l 839 840
v 0.55400002 0.20999999 0
v -0.44599998 0.20999999 0
l 841 842
v 0.34999999 0.19 0
v 1.35 0.19 0
l 843 844
v 0.38800001 0.19 0
v 1.388 0.19 0
l 845 846
v 0.46200001 0.20999999 0
v -0.53799999 0.20999999 0
l 847 848
v 0.25799999 0.19 0
v 1.258 0.19 0
l 849 850
v 0.33000001 0.19 0
v 1.33 0.19 0
l 851 852
v 0.27200001 0.19 0
v 1.272 0.19 0
l 853 854
v 0.57599998 0.20999999 0
v -0.42400002 0.20999999 0
l 855 856
v 0.36199999 0.20999999 0
v -0.63800001 0.20999999 0
l 857 858
v 0.52999997 0.20999999 0
v -0.47000003 0.20999999 0
l 859 860
v 0.58999997 0.19 0
v 1.59 0.19 0
l 861 862
v 0.57999998 0.20999999 0
v -0.42000002 0.20999999 0
l 863 864
v 0.54400003 0.19 0
v 1.544 0.19 0
l 865 866
v 0.57200003 0.19 0
v 1.572 0.19 0
l 867 868
v 0.58399999 0.19 0
v 1.584 0.19 0
l 869 870
v 0.48800001 0.20999999 0
v -0.51199999 0.20999999 0
l 871 872
v 0.25 0.20200001 0
v 0.25 -0.79799999 0
l 873 874
v 0.34 0.19 0
v 1.34 0.19 0
l 875 876
v 0.59399998 0.20999999 0
v -0.40600002 0.20999999 0
l 877 878
v 0.34400001 0.20999999 0
v -0.65599999 0.20999999 0
l 879 880
v 0.35800001 0.20999999 0
v -0.64199999 0.20999999 0
l 881 882
v 0.426 0.19 0
v 1.426 0.19 0
l 883 884
v 0.50599998 0.19 0
v 1.506 0.19 0
l 885 886
v 0.52600002 0.20999999 0
v -0.47399998 0.20999999 0
l 887 888
v 0.34599999 0.19 0
v 1.346 0.19 0
l 889 890
v 0.37400001 0.19 0
v 1.374 0.19 0
l 891 892
v 0.47600001 0.20999999 0
v -0.52399999 0.20999999 0
l 893 894
v 0.31400001 0.19 0
v 1.314 0.19 0
l 895 896
v 0.43000001 0.20999999 0
v -0.56999999 0.20999999 0
l 897 898
v 0.366 0.19 0
v 1.366 0.19 0
l 899 900
v 0.28400001 0.20999999 0
v -0.71599999 0.20999999 0
l 901 902
v 0.49599999 0.20999999 0
v -0.50400001 0.20999999 0
l 903 904
v 0.484 0.20999999 0
v -0.516 0.20999999 0
l 905 906
v 0.26199999 0.19 0
v 1.262 0.19 0
l 907 908
v 0.25999999 0.19 0
v 1.26 0.19 0
l 909 910
v 0.25 0.198 0
v 0.25 -0.802 0
l 911 912
v 0.336 0.20999999 0
v -0.664 0.20999999 0
l 913 914
v 0.50199997 0.20999999 0
v -0.49800003 0.20999999 0
l 915 916
v 0.38 0.19 0
v 1.38 0.19 0
l 917 918
v 0.384 0.19 0
v 1.384 0.19 0
l 919 920
v 0.34200001 0.19 0
v 1.342 0.19 0
l 921 922
v 0.34799999 0.20999999 0
v -0.65200001 0.20999999 0
l 923 924
v 0.40799999 0.19 0
v 1.408 0.19 0
l 925 926
v 0.414 0.19 0
v 1.414 0.19 0
l 927 928
v 0.41999999 0.19 0
v 1.42 0.19 0
l 929 930
v 0.43200001 0.19 0
v 1.432 0.19 0
l 931 932
v 0.50999999 0.19 0
v 1.51 0.19 0
l 933 934
v 0.51200002 0.19 0
v 1.512 0.19 0
l 935 936
v 0.57800001 0.19 0
v 1.578 0.19 0
l 937 938
v 0.25 0.206 0
v 0.25 -0.794 0
l 939 940
v 0.25600001 0.19 0
v 1.256 0.19 0
l 941 942
v 0.55800003 0.20999999 0
v -0.44199997 0.20999999 0
l 943 944
v 0.55000001 0.20999999 0
v -0.44999999 0.20999999 0
l 945 946
v 0.53200001 0.20999999 0
v -0.46799999 0.20999999 0
l 947 948
v 0.52399999 0.20999999 0
v -0.47600001 0.20999999 0
l 949 950
v 0.58200002 0.20999999 0
v -0.41799998 0.20999999 0
l 951 952
v 0.47799999 0.20999999 0
v -0.52200001 0.20999999 0
l 953 954
v 0.294 0.19 0
v 1.294 0.19 0
l 955 956
v 0.34799999 0.19 0
v 1.348 0.19 0
l 957 958
v 0.37200001 0.19 0
v 1.372 0.19 0
l 959 960
v 0.53600001 0.19 0
v 1.536 0.19 0
l 961 962
v 0.56999999 0.19 0
v 1.57 0.19 0
l 963 964
v 0.428 0.20999999 0
v -0.572 0.20999999 0
l 965 966
v 0.31200001 0.19 0
v 1.312 0.19 0
l 967 968
v 0.33199999 0.19 0
v 1.332 0.19 0
l 969 970
v 0.36399999 0.19 0
v 1.364 0.19 0
l 971 972
v 0.28200001 0.20999999 0
v -0.71799999 0.20999999 0
l 973 974
v 0.27000001 0.19 0
v 1.27 0.19 0
l 975 976
v 0.49399999 0.20999999 0
v -0.50600001 0.20999999 0
l 977 978
v 0.486 0.20999999 0
v -0.514 0.20999999 0
l 979 980
v 0.28400001 0.19 0
v 1.284 0.19 0
l 981 982
v 0.292 0.20999999 0
v -0.708 0.20999999 0
l 983 984
v 0.59200001 0.20999999 0
v -0.40799999 0.20999999 0
l 985 986
v 0.36199999 0.19 0
v 1.362 0.19 0
l 987 988
v 0.49200001 0.20999999 0
v -0.50799999 0.20999999 0
l 989 990
v 0.39199999 0.19 0
v 1.392 0.19 0
l 991 992
v 0.40200001 0.19 0
v 1.402 0.19 0
l 993 994
v 0.52600002 0.19 0
v 1.526 0.19 0
l 995 996
v 0.55199999 0.19 0
v 1.552 0.19 0
l 997 998
v 0.56999999 0.20999999 0
v -0.43000001 0.20999999 0
l 999 1000
v 0.56400001 0.20999999 0
v -0.43599999 0.20999999 0
l 1001 1002
v 0.54400003 0.20999999 0
v -0.45599997 0.20999999 0
l 1003 1004
v 0.53799999 0.20999999 0
v -0.46200001 0.20999999 0
l 1005 1006
v 0.56800002 0.20999999 0
v -0.43199998 0.20999999 0
l 1007 1008
v 0.41 0.19 0
v 1.41 0.19 0
l 1009 1010
v 0.42199999 0.19 0
v 1.422 0.19 0
l 1011 1012
v 0.25799999 0.20999999 0
v -0.74200001 0.20999999 0
l 1013 1014
v 0.28 0.19 0
v 1.28 0.19 0
l 1015 1016
v 0.30599999 0.19 0
v 1.306 0.19 0
l 1017 1018
v 0.41600001 0.19 0
v 1.416 0.19 0
l 1019 1020
v 0.43000001 0.19 0
v 1.43 0.19 0
l 1021 1022
v 0.442 0.19 0
v 1.442 0.19 0
l 1023 1024
v 0.454 0.19 0
v 1.454 0.19 0
l 1025 1026
v 0.47 0.19 0
v 1.47 0.19 0
l 1027 1028
v 0.47600001 0.19 0
v 1.476 0.19 0
l 1029 1030
v 0.49200001 0.19 0
v 1.492 0.19 0
l 1031 1032
v 0.52999997 0.19 0
v 1.53 0.19 0
l 1033 1034
v 0.59200001 0.19 0
v 1.592 0.19 0
l 1035 1036
v 0.574 0.20999999 0
v -0.426 0.20999999 0
l 1037 1038
v 0.42199999 0.20999999 0
v -0.57800001 0.20999999 0
l 1039 1040
v 0.41 0.20999999 0
v -0.59 0.20999999 0
l 1041 1042
v 0.398 0.20999999 0
v -0.602 0.20999999 0
l 1043 1044
v 0.38600001 0.20999999 0
v -0.61399999 0.20999999 0
l 1045 1046
v 0.38 0.20999999 0
v -0.62 0.20999999 0
l 1047 1048
v 0.37400001 0.20999999 0
v -0.62599999 0.20999999 0
l 1049 1050
v 0.35600001 0.20999999 0
v -0.64399999 0.20999999 0
l 1051 1052
v 0.34999999 0.20999999 0
v -0.65000001 0.20999999 0
l 1053 1054
v 0.34200001 0.20999999 0
v -0.65799999 0.20999999 0
l 1055 1056
v 0.33000001 0.20999999 0
v -0.66999999 0.20999999 0
l 1057 1058
v 0.31600001 0.20999999 0
v -0.68399999 0.20999999 0
l 1059 1060
v 0.30399999 0.20999999 0
v -0.69600001 0.20999999 0
l 1061 1062
v 0.30000001 0.20999999 0
v -0.69999999 0.20999999 0
l 1063 1064
v 0.296 0.20999999 0
v -0.704 0.20999999 0
l 1065 1066
v 0.278 0.20999999 0
v -0.722 0.20999999 0
l 1067 1068
v 0.38600001 0.19 0
v 1.386 0.19 0
l 1069 1070
v 0.428 0.19 0
v 1.428 0.19 0
l 1071 1072
v 0.45199999 0.19 0
v 1.452 0.19 0
l 1073 1074
v 0.47799999 0.19 0
v 1.478 0.19 0
l 1075 1076
v 0.48199999 0.19 0
v 1.482 0.19 0
l 1077 1078
v 0.37200001 0.20999999 0
v -0.62799999 0.20999999 0
l 1079 1080
v 0.252 0.19 0
v 1.252 0.19 0
l 1081 1082
v 0.266 0.19 0
v 1.266 0.19 0
l 1083 1084
v 0.322 0.19 0
v 1.322 0.19 0
l 1085 1086
v 0.338 0.19 0
v 1.338 0.19 0
l 1087 1088
v 0.35800001 0.19 0
v 1.358 0.19 0
l 1089 1090
v 0.40000001 0.19 0
v 1.4 0.19 0
l 1091 1092
v 0.412 0.19 0
v 1.412 0.19 0
l 1093 1094
v 0.42399999 0.19 0
v 1.424 0.19 0
l 1095 1096
v 0.43399999 0.19 0
v 1.434 0.19 0
l 1097 1098
v 0.43599999 0.19 0
v 1.436 0.19 0
l 1099 1100
v 0.44800001 0.19 0
v 1.448 0.19 0
l 1101 1102
v 0.44999999 0.19 0
v 1.45 0.19 0
l 1103 1104
v 0.46000001 0.19 0
v 1.46 0.19 0
l 1105 1106
v 0.46599999 0.19 0
v 1.466 0.19 0
l 1107 1108
v 0.47999999 0.19 0
v 1.48 0.19 0
l 1109 1110
v 0.484 0.19 0
v 1.484 0.19 0
l 1111 1112
v 0.486 0.19 0
v 1.486 0.19 0
l 1113 1114
v 0.49599999 0.19 0
v 1.496 0.19 0
l 1115 1116
v 0.50199997 0.19 0
v 1.502 0.19 0
l 1117 1118
v 0.50800002 0.19 0
v 1.508 0.19 0
l 1119 1120
v 0.514 0.19 0
v 1.514 0.19 0
l 1121 1122
v 0.51999998 0.19 0
v 1.52 0.19 0
l 1123 1124
v 0.53200001 0.19 0
v 1.532 0.19 0
l 1125 1126
v 0.546 0.19 0
v 1.546 0.19 0
l 1127 1128
v 0.55800003 0.19 0
v 1.558 0.19 0
l 1129 1130
v 0.57999998 0.19 0
v 1.58 0.19 0
l 1131 1132
v 0.59600002 0.19 0
v 1.596 0.19 0
l 1133 1134
v 0.59600002 0.20999999 0
v -0.40399998 0.20999999 0
l 1135 1136
v 0.57800001 0.20999999 0
v -0.42199999 0.20999999 0
l 1137 1138
v 0.51800001 0.20999999 0
v -0.48199999 0.20999999 0
l 1139 1140
v 0.51200002 0.20999999 0
v -0.48799998 0.20999999 0
l 1141 1142
v 0.50599998 0.20999999 0
v -0.49400002 0.20999999 0
l 1143 1144
v 0.49000001 0.20999999 0
v -0.50999999 0.20999999 0
l 1145 1146
v 0.44999999 0.20999999 0
v -0.55000001 0.20999999 0
l 1147 1148
v 0.43799999 0.20999999 0
v -0.56200001 0.20999999 0
l 1149 1150
v 0.41600001 0.20999999 0
v -0.58399999 0.20999999 0
l 1151 1152
v 0.40400001 0.20999999 0
v -0.59599999 0.20999999 0
l 1153 1154
v 0.39199999 0.20999999 0
v -0.60800001 0.20999999 0
l 1155 1156
v 0.37 0.20999999 0
v -0.63 0.20999999 0
l 1157 1158
v 0.36399999 0.20999999 0
v -0.63600001 0.20999999 0
l 1159 1160
v 0.36000001 0.20999999 0
v -0.63999999 0.20999999 0
l 1161 1162
v 0.324 0.20999999 0
v -0.676 0.20999999 0
l 1163 1164
v 0.31999999 0.20999999 0
v -0.68000001 0.20999999 0
l 1165 1166
v 0.27399999 0.20999999 0
v -0.72600001 0.20999999 0
l 1167 1168
v 0.27200001 0.20999999 0
v -0.72799999 0.20999999 0
l 1169 1170
v 0.27000001 0.20999999 0
v -0.72999999 0.20999999 0
l 1171 1172
v 0.25400001 0.20999999 0
v -0.74599999 0.20999999 0
l 1173 1174
v 0.60000002 0.2 0
v 0.60000002 1.2 0
l 1175 1176
v 0.60000002 0.19599999 0
v 0.60000002 1.196 0
l 1177 1178
v 0.37 0.19 0
v 1.37 0.19 0
l 1179 1180
v 0.47999999 0.20999999 0
v -0.52000001 0.20999999 0
l 1181 1182
v 0.56 0.19 0
v 1.56 0.19 0
l 1183 1184
v 0.38999999 0.19 0
v 1.39 0.19 0
l 1185 1186
v 0.398 0.19 0
v 1.398 0.19 0
l 1187 1188
v 0.60000002 0.204 0
v 0.60000002 1.204 0
l 1189 1190
v 0.46799999 0.19 0
v 1.468 0.19 0
l 1191 1192
v 0.5 0.19 0
v 1.5 0.19 0
l 1193 1194
v 0.50400001 0.19 0
v 1.504 0.19 0
l 1195 1196
v 0.60000002 0.206 0
v 0.60000002 1.206 0
l 1197 1198
v 0.47400001 0.20999999 0
v -0.52599999 0.20999999 0
l 1199 1200
v 0.27399999 0.19 0
v 1.274 0.19 0
l 1201 1202
v 0.28999999 0.19 0
v 1.29 0.19 0
l 1203 1204
v 0.30000001 0.19 0
v 1.3 0.19 0
l 1205 1206
v 0.31600001 0.19 0
v 1.316 0.19 0
l 1207 1208
v 0.32800001 0.19 0
v 1.328 0.19 0
l 1209 1210
v 0.34400001 0.19 0
v 1.344 0.19 0
l 1211 1212
v 0.352 0.19 0
v 1.352 0.19 0
l 1213 1214
v 0.368 0.19 0
v 1.368 0.19 0
l 1215 1216
v 0.37599999 0.19 0
v 1.376 0.19 0
l 1217 1218
v 0.382 0.19 0
v 1.382 0.19 0
l 1219 1220
v 0.39399999 0.19 0
v 1.394 0.19 0
l 1221 1222
v 0.40599999 0.19 0
v 1.406 0.19 0
l 1223 1224
v 0.41800001 0.19 0
v 1.418 0.19 0
l 1225 1226
v 0.498 0.20999999 0
v -0.502 0.20999999 0
l 1227 1228
v 0.48199999 0.20999999 0
v -0.51800001 0.20999999 0
l 1229 1230
v 0.46799999 0.20999999 0
v -0.53200001 0.20999999 0
l 1231 1232
v 0.456 0.20999999 0
v -0.544 0.20999999 0
l 1233 1234
v 0.44400001 0.20999999 0
v -0.55599999 0.20999999 0
l 1235 1236
v 0.43200001 0.20999999 0
v -0.56799999 0.20999999 0
l 1237 1238
v 0.31 0.20999999 0
v -0.69 0.20999999 0
l 1239 1240
v 0.28600001 0.20999999 0
v -0.71399999 0.20999999 0
l 1241 1242
v 0.264 0.20999999 0
v -0.736 0.20999999 0
l 1243 1244
v 0.5 0.20999999 0
v -0.5 0.20999999 0
l 1245 1246
v 0.50400001 0.20999999 0
v -0.49599999 0.20999999 0
l 1247 1248
v 0.498 0.19 0
v 1.498 0.19 0
l 1249 1250
v 0.53799999 0.19 0
v 1.538 0.19 0
l 1251 1252
v 0.56199998 0.19 0
v 1.562 0.19 0
l 1253 1254
v 0.58600003 0.19 0
v 1.586 0.19 0
l 1255 1256
v 0.58600003 0.20999999 0
v -0.41399997 0.20999999 0
l 1257 1258
v 0.55599999 0.20999999 0
v -0.44400001 0.20999999 0
l 1259 1260
v 0.54000002 0.19 0
v 1.54 0.19 0
l 1261 1262
v 0.528 0.20999999 0
v -0.472 0.20999999 0
l 1263 1264
v 0.56400001 0.19 0
v 1.564 0.19 0
l 1265 1266
v 0.26800001 0.19 0
v 1.268 0.19 0
l 1267 1268
v 0.31799999 0.20999999 0
v -0.68200001 0.20999999 0
l 1269 1270
v 0.29800001 0.20999999 0
v -0.70199999 0.20999999 0
l 1271 1272
v 0.57599998 0.19 0
v 1.576 0.19 0
l 1273 1274
v 0.36000001 0.19 0
v 1.36 0.19 0
l 1275 1276
v 0.52399999 0.19 0
v 1.524 0.19 0
l 1277 1278
v 0.25600001 0.20999999 0
v -0.74399999 0.20999999 0
l 1279 1280
v 0.27599999 0.20999999 0
v -0.72400001 0.20999999 0
l 1281 1282
v 0.59399998 0.19 0
v 1.594 0.19 0
l 1283 1284
v 0.55400002 0.19 0
v 1.554 0.19 0
l 1285 1286
v 0.54799998 0.19 0
v 1.548 0.19 0
l 1287 1288
v 0.55000001 0.19 0
v 1.55 0.19 0
l 1289 1290
v 0.51599997 0.19 0
v 1.516 0.19 0
l 1291 1292
v 0.55599999 0.19 0
v 1.556 0.19 0
l 1293 1294
v 0.48800001 0.19 0
v 1.488 0.19 0
l 1295 1296
v 0.49000001 0.19 0
v 1.49 0.19 0
l 1297 1298
v 0.472 0.19 0
v 1.472 0.19 0
l 1299 1300
v 0.51800001 0.19 0
v 1.518 0.19 0
l 1301 1302
v 0.354 0.19 0
v 1.354 0.19 0
l 1303 1304
v 0.46200001 0.19 0
v 1.462 0.19 0
l 1305 1306
v 0.47400001 0.19 0
v 1.474 0.19 0
l 1307 1308
v 0.456 0.19 0
v 1.456 0.19 0
l 1309 1310
v 0.324 0.19 0
v 1.324 0.19 0
l 1311 1312
v 0.46399999 0.19 0
v 1.464 0.19 0
l 1313 1314
v 0.44600001 0.19 0
v 1.446 0.19 0
l 1315 1316
v 0.31799999 0.19 0
v 1.318 0.19 0
l 1317 1318
v 0.336 0.19 0
v 1.336 0.19 0
l 1319 1320
v 0.44400001 0.19 0
v 1.444 0.19 0
l 1321 1322
v 0.458 0.19 0
v 1.458 0.19 0
l 1323 1324
v 0.30199999 0.19 0
v 1.302 0.19 0
l 1325 1326
v 0.43799999 0.19 0
v 1.438 0.19 0
l 1327 1328
v 0.27599999 0.19 0
v 1.276 0.19 0
l 1329 1330
v 0.28799999 0.19 0
v 1.288 0.19 0
l 1331 1332
v 0.44 0.19 0
v 1.44 0.19 0
l 1333 1334
v 0.35600001 0.19 0
v 1.356 0.19 0
l 1335 1336
v 0.33399999 0.19 0
v 1.334 0.19 0
l 1337 1338
v 0.31999999 0.19 0
v 1.32 0.19 0
l 1339 1340
v 0.31 0.19 0
v 1.31 0.19 0
l 1341 1342
v 0.30399999 0.19 0
v 1.304 0.19 0
l 1343 1344
v 0.308 0.19 0
v 1.308 0.19 0
l 1345 1346
v 0.28600001 0.19 0
v 1.286 0.19 0
l 1347 1348
v 0.32600001 0.19 0
v 1.326 0.19 0
l 1349 1350
v 0.296 0.19 0
v 1.296 0.19 0
l 1351 1352
v 0.278 0.19 0
v 1.278 0.19 0
l 1353 1354
v 0.29800001 0.19 0
v 1.298 0.19 0
l 1355 1356
v 0.25 0.208 0
v 0.25 -0.792 0
l 1357 1358
v 0.59799999 0.20999999 0
v -0.40200001 0.20999999 0
l 1359 1360
v 0.26199999 0.20999999 0
v -0.73800001 0.20999999 0
l 1361 1362
v 0.26800001 0.20999999 0
v -0.73199999 0.20999999 0
l 1363 1364
v 0.308 0.20999999 0
v -0.692 0.20999999 0
l 1365 1366
v 0.28999999 0.20999999 0
v -0.71000001 0.20999999 0
l 1367 1368
v 0.31400001 0.20999999 0
v -0.68599999 0.20999999 0
l 1369 1370
v 0.32800001 0.20999999 0
v -0.67199999 0.20999999 0
l 1371 1372
v 0.33399999 0.20999999 0
v -0.66600001 0.20999999 0
l 1373 1374
v 0.34 0.20999999 0
v -0.66 0.20999999 0
l 1375 1376
v 0.354 0.20999999 0
v -0.646 0.20999999 0
l 1377 1378
v 0.368 0.20999999 0
v -0.632 0.20999999 0
l 1379 1380
v 0.37799999 0.20999999 0
v -0.62200001 0.20999999 0
l 1381 1382
v 0.384 0.20999999 0
v -0.616 0.20999999 0
l 1383 1384
v 0.38999999 0.20999999 0
v -0.61000001 0.20999999 0
l 1385 1386
v 0.396 0.20999999 0
v -0.604 0.20999999 0
l 1387 1388
v 0.40200001 0.20999999 0
v -0.59799999 0.20999999 0
l 1389 1390
v 0.40799999 0.20999999 0
v -0.59200001 0.20999999 0
l 1391 1392
v 0.414 0.20999999 0
v -0.586 0.20999999 0
l 1393 1394
v 0.41999999 0.20999999 0
v -0.58000001 0.20999999 0
l 1395 1396
v 0.426 0.20999999 0
v -0.574 0.20999999 0
l 1397 1398
v 0.43599999 0.20999999 0
v -0.56400001 0.20999999 0
l 1399 1400
v 0.442 0.20999999 0
v -0.558 0.20999999 0
l 1401 1402
v 0.56199998 0.20999999 0
v -0.43800002 0.20999999 0
l 1403 1404
v 0.44800001 0.20999999 0
v -0.55199999 0.20999999 0
l 1405 1406
v 0.454 0.20999999 0
v -0.546 0.20999999 0
l 1407 1408
v 0.58999997 0.20999999 0
v -0.41000003 0.20999999 0
l 1409 1410
v 0.46000001 0.20999999 0
v -0.53999999 0.20999999 0
l 1411 1412
v 0.46599999 0.20999999 0
v -0.53400001 0.20999999 0
l 1413 1414
v 0.472 0.20999999 0
v -0.528 0.20999999 0
l 1415 1416
v 0.51599997 0.20999999 0
v -0.48400003 0.20999999 0
l 1417 1418
v 0.50999999 0.20999999 0
v -0.49000001 0.20999999 0
l 1419 1420
v 0.52200001 0.20999999 0
v -0.47799999 0.20999999 0
l 1421 1422
v 0.53600001 0.20999999 0
v -0.46399999 0.20999999 0
l 1423 1424
v 0.542 0.20999999 0
v -0.458 0.20999999 0
l 1425 1426
v 0.54799998 0.20999999 0
v -0.45200002 0.20999999 0
l 1427 1428
v 0.60000002 0.208 0
v 0.60000002 1.208 0
l 1429 1430
v 0.60000002 0.20999999 0
v -0.39999998 0.20999999 0
l 1431 1432
v 0.60000002 0.19 0
v 0.60000002 1.19 0
l 1433 1434
v 0.25 0.20999999 0
v 0.25 -0.79000001 0
l 1435 1436
v 0.59799999 0.19 0
v 1.598 0.19 0
l 1437 1438
v 0.25 0.192 0
v 0.25 -0.808 0
l 1439 1440
v 0.252 0.20999999 0
v -0.748 0.20999999 0
l 1441 1442
v 0.25 0.19 0
v 1.25 0.19 0
l 1443 1444
v 0.60000002 0.198 0
v 0.60000002 1.198 0
l 1445 1446
v 0.25 0.19599999 0
v 0.25 -0.80400001 0
l 1447 1448
v 0.25999999 0.20999999 0
v -0.74000001 0.20999999 0
l 1449 1450
v 0.266 0.20999999 0
v -0.734 0.20999999 0
l 1451 1452
v 0.28799999 0.20999999 0
v -0.71200001 0.20999999 0
l 1453 1454
v 0.30599999 0.20999999 0
v -0.69400001 0.20999999 0
l 1455 1456
v 0.31200001 0.20999999 0
v -0.68799999 0.20999999 0
l 1457 1458
v 0.32600001 0.20999999 0
v -0.67399999 0.20999999 0
l 1459 1460
v 0.33199999 0.20999999 0
v -0.66800001 0.20999999 0
l 1461 1462
v 0.338 0.20999999 0
v -0.662 0.20999999 0
l 1463 1464
v 0.352 0.20999999 0
v -0.648 0.20999999 0
l 1465 1466
v 0.366 0.20999999 0
v -0.634 0.20999999 0
l 1467 1468
v 0.37599999 0.20999999 0
v -0.62400001 0.20999999 0
l 1469 1470
v 0.382 0.20999999 0
v -0.618 0.20999999 0
l 1471 1472
v 0.38800001 0.20999999 0
v -0.61199999 0.20999999 0
l 1473 1474
v 0.39399999 0.20999999 0
v -0.60600001 0.20999999 0
l 1475 1476
v 0.40000001 0.20999999 0
v -0.59999999 0.20999999 0
l 1477 1478
v 0.40599999 0.20999999 0
v -0.59400001 0.20999999 0
l 1479 1480
v 0.412 0.20999999 0
v -0.588 0.20999999 0
l 1481 1482
v 0.41800001 0.20999999 0
v -0.58199999 0.20999999 0
l 1483 1484
v 0.42399999 0.20999999 0
v -0.57600001 0.20999999 0
l 1485 1486
v 0.43399999 0.20999999 0
v -0.56600001 0.20999999 0
l 1487 1488
v 0.44 0.20999999 0
v -0.56 0.20999999 0
l 1489 1490
v 0.44600001 0.20999999 0
v -0.55399999 0.20999999 0
l 1491 1492
v 0.56 0.20999999 0
v -0.44 0.20999999 0
l 1493 1494
v 0.45199999 0.20999999 0
v -0.54800001 0.20999999 0
l 1495 1496
v 0.458 0.20999999 0
v -0.542 0.20999999 0
l 1497 1498
v 0.588 0.20999999 0
v -0.412 0.20999999 0
l 1499 1500
v 0.46399999 0.20999999 0
v -0.53600001 0.20999999 0
l 1501 1502
v 0.47 0.20999999 0
v -0.53 0.20999999 0
l 1503 1504
v 0.50800002 0.20999999 0
v -0.49199998 0.20999999 0
l 1505 1506
v 0.514 0.20999999 0
v -0.486 0.20999999 0
l 1507 1508
v 0.51999998 0.20999999 0
v -0.48000002 0.20999999 0
l 1509 1510
v 0.53399998 0.20999999 0
v -0.46600002 0.20999999 0
l 1511 1512
v 0.54000002 0.20999999 0
v -0.45999998 0.20999999 0
l 1513 1514
v 0.546 0.20999999 0
v -0.454 0.20999999 0
l 1515 1516
v 0.25 0.2 0
v 0.25 -0.8 0
l 1517 1518
v 0.60000002 0.19400001 0
v 0.60000002 1.194 0
l 1519 1520
