v 0.2499105 0.2029902 0
v 0.24964234 0.20596971 0
l 1 2
v 0.24964234 0.20596971 0
v 0.24919648 0.20892784 0
l 3 4
v 0.24964234 0.19403028 0
v 0.2499105 0.19700979 0
l 5 6
v 0.24919648 0.20892784 0.0099999998
v 0.24964234 0.20596971 0.0099999998
l 7 8
v 0.24919648 0.19107215 0
v 0.24964234 0.19403028 0
l 9 10
v 0.24777864 0.21473776 0.0099999998
v 0.2485745 0.21185403 0.0099999998
l 11 12
v 0.2443793 0.17696787 0
v 0.24567728 0.17966317 0
l 13 14
v 0.1831335 0.15293068 0
v 0.18597864 0.15200624 0
l 15 16
v 0.24131194 0.17183399 0.0099999998
v 0.23955356 0.16941379 0.0099999998
l 17 18
v 0.21826705 0.15345632 0.0099999998
v 0.21545085 0.15244718 0.0099999998
l 19 20
v 0.17000891 0.15999332 0
v 0.17245515 0.15827134 0
l 21 22
v 0.23345654 0.16284277 0
v 0.2356188 0.16491011 0
l 23 24
v 0.20671166 0.15045251 0
v 0.2096628 0.15094258 0
l 25 26
v 0.16767003 0.16185853 0.0099999998
v 0.16544686 0.16386026 0.0099999998
l 27 28
v 0.24964234 0.19403028 0.0099999998
v 0.24919648 0.19107215 0.0099999998
l 29 30
v 0.18597864 0.15200624 0.0099999998
v 0.1831335 0.15293068 0.0099999998
l 31 32
v 0.2443793 0.17696787 0.0099999998
v 0.24292244 0.17435503 0.0099999998
l 33 34
v 0.1918091 0.15067548 0.0099999998
v 0.18887395 0.15125361 0.0099999998
l 35 36
v 0.23765357 0.16710307 0
v 0.23955356 0.16941379 0
l 37 38
v 0.15632959 0.17565055 0.0099999998
v 0.15495156 0.17830582 0.0099999998
l 39 40
v 0.22101787 0.15463206 0
v 0.22369343 0.15597023 0
l 41 42
v 0.24919648 0.20892784 0
v 0.2485745 0.21185403 0
l 43 44
v 0.22628419 0.242534 0.0099999998
v 0.22878085 0.24088597 0.0099999998
l 45 46
v 0.17245515 0.24172866 0.0099999998
v 0.175 0.24330127 0.0099999998
l 47 48
v 0.21257934 0.15160826 0
v 0.21545085 0.15244718 0
l 49 50
v 0.2485745 0.18814598 0.0099999998
v 0.24777864 0.18526225 0.0099999998
l 51 52
v 0.16544686 0.23613974 0.0099999998
v 0.16767003 0.23814148 0.0099999998
l 53 54
v 0.24681175 0.21756874 0.0099999998
v 0.24777864 0.21473776 0.0099999998
l 55 56
v 0.23765357 0.23289694 0.0099999998
v 0.23955356 0.23058622 0.0099999998
l 57 58
v 0.24292244 0.17435503 0.0099999998
v 0.24131194 0.17183399 0.0099999998
l 59 60
v 0.15002237 0.20149577 0.0099999998
v 0.15020129 0.20448196 0.0099999998
l 61 62
v 0.15632959 0.22434944 0
v 0.15495156 0.22169419 0
l 63 64
v 0.22101787 0.15463206 0.0099999998
v 0.21826705 0.15345632 0.0099999998
l 65 66
v 0.15786394 0.17308247 0
v 0.15954915 0.17061074 0
l 67 68
v 0.16544686 0.16386026 0.0099999998
v 0.16334741 0.16599137 0.0099999998
l 69 70
v 0.20074797 0.15000559 0.0099999998
v 0.19775675 0.15005034 0.0099999998
l 71 72
v 0.22878085 0.15911403 0.0099999998
v 0.22628419 0.15746599 0.0099999998
l 73 74
v 0.16334741 0.16599137 0
v 0.16544686 0.16386026 0
l 75 76
v 0.19775675 0.24994965 0.0099999998
v 0.20074797 0.24999441 0.0099999998
l 77 78
v 0.175 0.24330127 0
v 0.17245515 0.24172866 0
l 79 80
v 0.175 0.15669873 0
v 0.17763434 0.15528113 0
l 81 82
v 0.15020129 0.19551803 0
v 0.15055846 0.19254789 0
l 83 84
v 0.18597864 0.15200624 0
v 0.18887395 0.15125361 0
l 85 86
v 0.1918091 0.15067548 0
v 0.19477357 0.1502739 0
l 87 88
v 0.2037365 0.15013981 0
v 0.20671166 0.15045251 0
l 89 90
v 0.24567728 0.22033684 0
v 0.2443793 0.22303212 0
l 91 92
v 0.17000891 0.15999332 0.0099999998
v 0.16767003 0.16185853 0.0099999998
l 93 94
v 0.1831335 0.24706933 0.0099999998
v 0.18597864 0.24799377 0.0099999998
l 95 96
v 0.1918091 0.24932453 0.0099999998
v 0.19477357 0.2497261 0.0099999998
l 97 98
v 0.1831335 0.15293068 0.0099999998
v 0.18034875 0.15402362 0.0099999998
l 99 100
v 0.24292244 0.22564496 0
v 0.24131194 0.228166 0
l 101 102
v 0.23117448 0.23909158 0.0099999998
v 0.23345654 0.23715724 0.0099999998
l 103 104
v 0.19477357 0.1502739 0.0099999998
v 0.1918091 0.15067548 0.0099999998
l 105 106
v 0.21545085 0.15244718 0.0099999998
v 0.21257934 0.15160826 0.0099999998
l 107 108
v 0.15109262 0.21039559 0
v 0.15055846 0.20745212 0
l 109 110
v 0.23345654 0.16284277 0.0099999998
v 0.23117448 0.16090843 0.0099999998
l 111 112
v 0.15180185 0.21330184 0.0099999998
v 0.15268363 0.21616048 0.0099999998
l 113 114
v 0.15373479 0.18103872 0.0099999998
v 0.15268363 0.18383951 0.0099999998
l 115 116
v 0.15954915 0.22938927 0
v 0.15786394 0.22691754 0
l 117 118
v 0.22628419 0.15746599 0
v 0.22878085 0.15911403 0
l 119 120
v 0.175 0.24330127 0.0099999998
v 0.17763434 0.24471886 0.0099999998
l 121 122
v 0.24567728 0.17966317 0
v 0.24681175 0.18243127 0
l 123 124
v 0.23955356 0.16941379 0.0099999998
v 0.23765357 0.16710307 0.0099999998
l 125 126
v 0.20671166 0.24954748 0
v 0.2037365 0.2498602 0
l 127 128
v 0.18034875 0.24597639 0
v 0.17763434 0.24471886 0
l 129 130
v 0.21545085 0.24755283 0.0099999998
v 0.21826705 0.24654369 0.0099999998
l 131 132
v 0.16137916 0.23175579 0.0099999998
v 0.16334741 0.23400864 0.0099999998
l 133 134
v 0.23955356 0.23058622 0.0099999998
v 0.24131194 0.228166 0.0099999998
l 135 136
v 0.22369343 0.24402978 0
v 0.22101787 0.24536793 0
l 137 138
v 0.17245515 0.24172866 0
v 0.17000891 0.24000667 0
l 139 140
v 0.22878085 0.24088597 0
v 0.22628419 0.242534 0
l 141 142
v 0.15109262 0.18960442 0
v 0.15180185 0.18669815 0
l 143 144
v 0.24777864 0.21473776 0
v 0.24681175 0.21756874 0
l 145 146
v 0.17245515 0.15827134 0
v 0.175 0.15669873 0
l 147 148
v 0.18887395 0.15125361 0.0099999998
v 0.18597864 0.15200624 0.0099999998
l 149 150
v 0.15055846 0.20745212 0.0099999998
v 0.15109262 0.21039559 0.0099999998
l 151 152
v 0.15180185 0.18669815 0.0099999998
v 0.15109262 0.18960442 0.0099999998
l 153 154
v 0.21257934 0.24839173 0
v 0.2096628 0.24905741 0
l 155 156
v 0.22101787 0.24536793 0.0099999998
v 0.22369343 0.24402978 0.0099999998
l 157 158
v 0.17763434 0.24471886 0
v 0.175 0.24330127 0
l 159 160
v 0.15109262 0.18960442 0.0099999998
v 0.15055846 0.19254789 0.0099999998
l 161 162
v 0.2485745 0.21185403 0
v 0.24777864 0.21473776 0
l 163 164
v 0.24919648 0.19107215 0.0099999998
v 0.2485745 0.18814598 0.0099999998
l 165 166
v 0.21826705 0.24654369 0
v 0.21545085 0.24755283 0
l 167 168
v 0.17763434 0.24471886 0.0099999998
v 0.18034875 0.24597639 0.0099999998
l 169 170
v 0.15020129 0.20448196 0.0099999998
v 0.15055846 0.20745212 0.0099999998
l 171 172
v 0.2356188 0.2350899 0.0099999998
v 0.23765357 0.23289694 0.0099999998
l 173 174
v 0.19775675 0.15005034 0.0099999998
v 0.19477357 0.1502739 0.0099999998
l 175 176
v 0.2443793 0.22303212 0.0099999998
v 0.24567728 0.22033684 0.0099999998
l 177 178
v 0.16334741 0.23400864 0.0099999998
v 0.16544686 0.23613974 0.0099999998
l 179 180
v 0.18887395 0.15125361 0
v 0.1918091 0.15067548 0
l 181 182
v 0.17000891 0.24000667 0
v 0.16767003 0.23814148 0
l 183 184
v 0.2443793 0.22303212 0
v 0.24292244 0.22564496 0
l 185 186
v 0.2037365 0.2498602 0
v 0.20074797 0.24999441 0
l 187 188
v 0.17000891 0.24000667 0.0099999998
v 0.17245515 0.24172866 0.0099999998
l 189 190
v 0.22101787 0.24536793 0
v 0.21826705 0.24654369 0
l 191 192
v 0.15495156 0.17830582 0
v 0.15632959 0.17565055 0
l 193 194
v 0.24681175 0.18243127 0
v 0.24777864 0.18526225 0
l 195 196
v 0.16767003 0.23814148 0
v 0.16544686 0.23613974 0
l 197 198
v 0.22369343 0.24402978 0.0099999998
v 0.22628419 0.242534 0.0099999998
l 199 200
v 0.18597864 0.24799377 0.0099999998
v 0.18887395 0.2487464 0.0099999998
l 201 202
v 0.15055846 0.19254789 0
v 0.15109262 0.18960442 0
l 203 204
v 0.22628419 0.242534 0
v 0.22369343 0.24402978 0
l 205 206
v 0.21545085 0.24755283 0
v 0.21257934 0.24839173 0
l 207 208
v 0.16767003 0.16185853 0
v 0.17000891 0.15999332 0
l 209 210
v 0.23345654 0.23715724 0.0099999998
v 0.2356188 0.2350899 0.0099999998
l 211 212
v 0.18597864 0.24799377 0
v 0.1831335 0.24706933 0
l 213 214
v 0.24567728 0.22033684 0.0099999998
v 0.24681175 0.21756874 0.0099999998
l 215 216
v 0.18887395 0.2487464 0.0099999998
v 0.1918091 0.24932453 0.0099999998
l 217 218
v 0.21826705 0.24654369 0.0099999998
v 0.22101787 0.24536793 0.0099999998
l 219 220
v 0.24681175 0.21756874 0
v 0.24567728 0.22033684 0
l 221 222
v 0.20074797 0.24999441 0
v 0.19775675 0.24994965 0
l 223 224
v 0.15786394 0.22691754 0.0099999998
v 0.15954915 0.22938927 0.0099999998
l 225 226
v 0.2096628 0.24905741 0
v 0.20671166 0.24954748 0
l 227 228
v 0.20671166 0.15045251 0.0099999998
v 0.2037365 0.15013981 0.0099999998
l 229 230
v 0.15109262 0.21039559 0.0099999998
v 0.15180185 0.21330184 0.0099999998
l 231 232
v 0.19477357 0.2497261 0.0099999998
v 0.19775675 0.24994965 0.0099999998
l 233 234
v 0.24131194 0.228166 0.0099999998
v 0.24292244 0.22564496 0.0099999998
l 235 236
v 0.15954915 0.22938927 0.0099999998
v 0.16137916 0.23175579 0.0099999998
l 237 238
v 0.18034875 0.24597639 0.0099999998
v 0.1831335 0.24706933 0.0099999998
l 239 240
v 0.22878085 0.24088597 0.0099999998
v 0.23117448 0.23909158 0.0099999998
l 241 242
v 0.16767003 0.23814148 0.0099999998
v 0.17000891 0.24000667 0.0099999998
l 243 244
v 0.15268363 0.18383951 0.0099999998
v 0.15180185 0.18669815 0.0099999998
l 245 246
v 0.15495156 0.22169419 0
v 0.15373479 0.21896127 0
l 247 248
v 0.15786394 0.22691754 0
v 0.15632959 0.22434944 0
l 249 250
v 0.15002237 0.19850422 0.0099999998
v 0.15002237 0.20149577 0.0099999998
l 251 252
v 0.15954915 0.17061074 0
v 0.16137916 0.16824421 0
l 253 254
v 0.15495156 0.17830582 0.0099999998
v 0.15373479 0.18103872 0.0099999998
l 255 256
v 0.15632959 0.17565055 0
v 0.15786394 0.17308247 0
l 257 258
v 0.2037365 0.15013981 0.0099999998
v 0.20074797 0.15000559 0.0099999998
l 259 260
v 0.15002237 0.19850422 0
v 0.15020129 0.19551803 0
l 261 262
v 0.15268363 0.21616048 0.0099999998
v 0.15373479 0.21896127 0.0099999998
l 263 264
v 0.15495156 0.22169419 0.0099999998
v 0.15632959 0.22434944 0.0099999998
l 265 266
v 0.23117448 0.16090843 0.0099999998
v 0.22878085 0.15911403 0.0099999998
l 267 268
v 0.16334741 0.16599137 0.0099999998
v 0.16137916 0.16824421 0.0099999998
l 269 270
v 0.15055846 0.19254789 0.0099999998
v 0.15020129 0.19551803 0.0099999998
l 271 272
v 0.15268363 0.18383951 0
v 0.15373479 0.18103872 0
l 273 274
v 0.24777864 0.18526225 0
v 0.2485745 0.18814598 0
l 275 276
v 0.18034875 0.15402362 0
v 0.1831335 0.15293068 0
l 277 278
v 0.18034875 0.15402362 0.0099999998
v 0.17763434 0.15528113 0.0099999998
l 279 280
v 0.21257934 0.15160826 0.0099999998
v 0.2096628 0.15094258 0.0099999998
l 281 282
v 0.23117448 0.16090843 0
v 0.23345654 0.16284277 0
l 283 284
v 0.21826705 0.15345632 0
v 0.22101787 0.15463206 0
l 285 286
v 0.24131194 0.17183399 0
v 0.24292244 0.17435503 0
l 287 288
v 0.24567728 0.17966317 0.0099999998
v 0.2443793 0.17696787 0.0099999998
l 289 290
v 0.2096628 0.15094258 0
v 0.21257934 0.15160826 0
l 291 292
v 0.20671166 0.24954748 0.0099999998
v 0.2096628 0.24905741 0.0099999998
l 293 294
v 0.2096628 0.15094258 0.0099999998
v 0.20671166 0.15045251 0.0099999998
l 295 296
v 0.22878085 0.15911403 0
v 0.23117448 0.16090843 0
l 297 298
v 0.15180185 0.18669815 0
v 0.15268363 0.18383951 0
l 299 300
v 0.2356188 0.16491011 0
v 0.23765357 0.16710307 0
l 301 302
v 0.2485745 0.18814598 0
v 0.24919648 0.19107215 0
l 303 304
v 0.21545085 0.15244718 0
v 0.21826705 0.15345632 0
l 305 306
v 0.17763434 0.15528113 0.0099999998
v 0.175 0.15669873 0.0099999998
l 307 308
v 0.16137916 0.16824421 0
v 0.16334741 0.16599137 0
l 309 310
v 0.15002237 0.20149577 0
v 0.15002237 0.19850422 0
l 311 312
v 0.1831335 0.24706933 0
v 0.18034875 0.24597639 0
l 313 314
v 0.17763434 0.15528113 0
v 0.18034875 0.15402362 0
l 315 316
v 0.15373479 0.21896127 0
v 0.15268363 0.21616048 0
l 317 318
v 0.15020129 0.19551803 0.0099999998
v 0.15002237 0.19850422 0.0099999998
l 319 320
v 0.16544686 0.23613974 0
v 0.16334741 0.23400864 0
l 321 322
v 0.22369343 0.15597023 0
v 0.22628419 0.15746599 0
l 323 324
v 0.15632959 0.22434944 0.0099999998
v 0.15786394 0.22691754 0.0099999998
l 325 326
v 0.15373479 0.21896127 0.0099999998
v 0.15495156 0.22169419 0.0099999998
l 327 328
v 0.23955356 0.16941379 0
v 0.24131194 0.17183399 0
l 329 330
v 0.19775675 0.24994965 0
v 0.19477357 0.2497261 0
l 331 332
v 0.15373479 0.18103872 0
v 0.15495156 0.17830582 0
l 333 334
v 0.24292244 0.22564496 0.0099999998
v 0.2443793 0.22303212 0.0099999998
l 335 336
v 0.23765357 0.23289694 0
v 0.2356188 0.2350899 0
l 337 338
v 0.24292244 0.17435503 0
v 0.2443793 0.17696787 0
l 339 340
v 0.19477357 0.1502739 0
v 0.19775675 0.15005034 0
l 341 342
v 0.18887395 0.2487464 0
v 0.18597864 0.24799377 0
l 343 344
v 0.16137916 0.16824421 0.0099999998
v 0.15954915 0.17061074 0.0099999998
l 345 346
v 0.16544686 0.16386026 0
v 0.16767003 0.16185853 0
l 347 348
v 0.23117448 0.23909158 0
v 0.22878085 0.24088597 0
l 349 350
v 0.2485745 0.21185403 0.0099999998
v 0.24919648 0.20892784 0.0099999998
l 351 352
v 0.24964234 0.20596971 0.0099999998
v 0.2499105 0.2029902 0.0099999998
l 353 354
v 0.2499105 0.19700979 0.0099999998
v 0.24964234 0.19403028 0.0099999998
l 355 356
v 0.22369343 0.15597023 0.0099999998
v 0.22101787 0.15463206 0.0099999998
l 357 358
v 0.2356188 0.16491011 0.0099999998
v 0.23345654 0.16284277 0.0099999998
l 359 360
v 0.24131194 0.228166 0
v 0.23955356 0.23058622 0
l 361 362
v 0.17245515 0.15827134 0.0099999998
v 0.17000891 0.15999332 0.0099999998
l 363 364
v 0.22628419 0.15746599 0.0099999998
v 0.22369343 0.15597023 0.0099999998
l 365 366
v 0.24777864 0.18526225 0.0099999998
v 0.24681175 0.18243127 0.0099999998
l 367 368
v 0.23765357 0.16710307 0.0099999998
v 0.2356188 0.16491011 0.0099999998
l 369 370
v 0.16137916 0.23175579 0
v 0.15954915 0.22938927 0
l 371 372
v 0.15786394 0.17308247 0.0099999998
v 0.15632959 0.17565055 0.0099999998
l 373 374
v 0.15055846 0.20745212 0
v 0.15020129 0.20448196 0
l 375 376
v 0.21257934 0.24839173 0.0099999998
v 0.21545085 0.24755283 0.0099999998
l 377 378
v 0.15180185 0.21330184 0
v 0.15109262 0.21039559 0
l 379 380
v 0.1918091 0.24932453 0
v 0.18887395 0.2487464 0
l 381 382
v 0.20074797 0.24999441 0.0099999998
v 0.2037365 0.2498602 0.0099999998
l 383 384
v 0.2356188 0.2350899 0
v 0.23345654 0.23715724 0
l 385 386
v 0.15020129 0.20448196 0
v 0.15002237 0.20149577 0
l 387 388
v 0.20074797 0.15000559 0
v 0.2037365 0.15013981 0
l 389 390
v 0.2096628 0.24905741 0.0099999998
v 0.21257934 0.24839173 0.0099999998
l 391 392
v 0.15268363 0.21616048 0
v 0.15180185 0.21330184 0
l 393 394
v 0.15954915 0.17061074 0.0099999998
v 0.15786394 0.17308247 0.0099999998
l 395 396
v 0.16334741 0.23400864 0
v 0.16137916 0.23175579 0
l 397 398
v 0.19477357 0.2497261 0
v 0.1918091 0.24932453 0
l 399 400
v 0.23955356 0.23058622 0
v 0.23765357 0.23289694 0
l 401 402
v 0.2037365 0.2498602 0.0099999998
v 0.20671166 0.24954748 0.0099999998
l 403 404
v 0.23345654 0.23715724 0
v 0.23117448 0.23909158 0
l 405 406
v 0.175 0.15669873 0.0099999998
v 0.17245515 0.15827134 0.0099999998
l 407 408
v 0.19775675 0.15005034 0
v 0.20074797 0.15000559 0
l 409 410
v 0.24681175 0.18243127 0.0099999998
v 0.24567728 0.17966317 0.0099999998
l 411 412
v 0.25 0.2 0
v 0.2499105 0.2029902 0
l 413 414
v 0.2499105 0.2029902 0.0099999998
v 0.25 0.2 0.0099999998
l 415 416
v 0.2499105 0.19700979 0
v 0.25 0.2 0
l 417 418
v 0.25 0.2 0.0099999998
v 0.2499105 0.19700979 0.0099999998
l 419 420
