v 0.2499105 0.2029902 0
v 0.16027078 1.1989645 0
l 1 2
v 0.24964234 0.20596971 0
v 0.10060311 1.194801 0
l 3 4
v 0.24964234 0.19403028 0
v 0.33928207 1.1900045 0
l 5 6
v 0.24919648 0.20892784 0.0099999998
v 0.39823571 -0.77990344 0.0099999998
l 7 8
v 0.24919648 0.19107215 0
v 0.39823571 1.1799034 0
l 9 10
v 0.24777864 0.21473776 0.0099999998
v 0.51381442 -0.7492254 0.0099999998
l 11 12
v 0.2443793 0.17696787 0
v 0.67826201 1.0779372 0
l 13 14
v 0.1831335 0.15293068 0
v 1.1341903 -0.15608534 0
l 15 16
v 0.24131194 0.17183399 0.0099999998
v -0.34647378 -0.63718267 0.0099999998
l 17 18
v 0.21826705 0.15345632 0.0099999998
v -0.72311957 -0.18387323 0.0099999998
l 19 20
v 0.17000891 0.15999332 0
v 0.98772815 -0.41562396 0
l 21 22
v 0.23345654 0.16284277 0
v 0.95625015 0.85390672 0
l 23 24
v 0.20671166 0.15045251 0
v 1.1932022 0.3142707 0
l 25 26
v 0.16767003 0.16185853 0.0099999998
v -0.57547698 0.83098671 0.0099999998
l 27 28
v 0.24964234 0.19403028 0.0099999998
v 0.10060311 -0.794801 0.0099999998
l 29 30
v 0.18597864 0.15200624 0.0099999998
v -0.7650782 0.46102225 0.0099999998
l 31 32
v 0.2443793 0.17696787 0.0099999998
v -0.24261091 -0.69643956 0.0099999998
l 33 34
v 0.1918091 0.15067548 0.0099999998
v -0.78933927 0.34393145 0.0099999998
l 35 36
v 0.23765357 0.16710307 0
v 0.87277086 0.93951878 0
l 37 38
v 0.15632959 0.17565055 0.0099999998
v -0.30431003 1.0632378 0.0099999998
l 39 40
v 0.22101787 0.15463206 0
v 1.1153932 0.60194926 0
l 41 42
v 0.24919648 0.20892784 0
v 0.04128179 1.1870748 0
l 43 44
v 0.22628419 0.242534 0.0099999998
v 1.0608585 -0.30836137 0.0099999998
l 45 46
v 0.17245515 0.24172866 0.0099999998
v 1.0231351 0.76741263 0.0099999998
l 47 48
v 0.21257934 0.15160826 0
v 1.1724538 0.43203821 0
l 49 50
v 0.2485745 0.18814598 0.0099999998
v -0.017461284 -0.77581717 0.0099999998
l 51 52
v 0.16544686 0.23613974 0.0099999998
v 0.90859387 0.90526793 0.0099999998
l 53 54
v 0.24681175 0.21756874 0.0099999998
v 0.5700199 -0.72875916 0.0099999998
l 55 56
v 0.23765357 0.23289694 0.0099999998
v 0.87277086 -0.53951877 0.0099999998
l 57 58
v 0.24292244 0.17435503 0.0099999998
v -0.29542871 -0.66836559 0.0099999998
l 59 60
v 0.15002237 0.20149577 0.0099999998
v 0.20983029 1.1997057 0.0099999998
l 61 62
v 0.15632959 0.22434944 0
v -0.30431207 -0.66323676 0
l 63 64
v 0.22101787 0.15463206 0.0099999998
v -0.69851087 -0.23839071 0.0099999998
l 65 66
v 0.15786394 0.17308247 0
v 0.72118516 -0.65315552 0
l 67 68
v 0.16544686 0.16386026 0.0099999998
v -0.5363502 0.87623718 0.0099999998
l 69 70
v 0.20074797 0.15000559 0.0099999998
v -0.79914015 0.16496379 0.0099999998
l 71 72
v 0.22878085 0.15911403 0.0099999998
v -0.60579118 -0.3917848 0.0099999998
l 73 74
v 0.16334741 0.16599137 0
v 0.86514447 -0.54638556 0
l 75 76
v 0.19775675 0.24994965 0.0099999998
v 1.1976448 0.26491283 0.0099999998
l 77 78
v 0.175 0.24330127 0
v -0.67567995 -0.28238269 0
l 79 80
v 0.175 0.15669873 0
v 1.0555949 -0.31717117 0
l 81 82
v 0.15020129 0.19551803 0
v 0.26959321 -0.79732917 0
l 83 84
v 0.18597864 0.15200624 0
v 1.1538136 -0.099579743 0
l 85 86
v 0.1918091 0.15067548 0
v 1.1827585 0.016439886 0
l 87 88
v 0.2037365 0.15013981 0
v 1.1982585 0.25466772 0
l 89 90
v 0.24567728 0.22033684 0
v -0.18820738 1.1213053 0
l 91 92
v 0.17000891 0.15999332 0.0099999998
v -0.61182117 0.78348488 0.0099999998
l 93 94
v 0.1831335 0.24706933 0.0099999998
v 1.1341903 0.55608534 0.0099999998
l 95 96
v 0.1918091 0.24932453 0.0099999998
v 1.1827585 0.38356012 0.0099999998
l 97 98
v 0.1831335 0.15293068 0.0099999998
v -0.74773921 0.51827434 0.0099999998
l 99 100
v 0.24292244 0.22564496 0
v -0.29542871 1.0683656 0
l 101 102
v 0.23117448 0.23909158 0.0099999998
v 0.99400558 -0.40750623 0.0099999998
l 103 104
v 0.19477357 0.1502739 0.0099999998
v -0.79617588 0.28450949 0.0099999998
l 105 106
v 0.21545085 0.15244718 0.0099999998
v -0.74442364 -0.12798278 0.0099999998
l 107 108
v 0.15109262 0.21039559 0
v -0.027464496 -0.77353396 0
l 109 110
v 0.23345654 0.16284277 0.0099999998
v -0.52937456 -0.48375504 0.0099999998
l 111 112
v 0.15180185 0.21330184 0.0099999998
v 0.44655792 1.1688744 0.0099999998
l 113 114
v 0.15373479 0.18103872 0.0099999998
v -0.19764083 1.1172733 0.0099999998
l 115 116
v 0.15954915 0.22938927 0
v -0.40377207 -0.59684872 0
l 117 118
v 0.22628419 0.15746599 0
v 1.0608562 0.70836483 0
l 119 120
v 0.175 0.24330127 0.0099999998
v 1.0555969 0.71716731 0.0099999998
l 121 122
v 0.24567728 0.17966317 0
v 0.6249016 1.1049679 0
l 123 124
v 0.23955356 0.16941379 0.0099999998
v -0.39556373 -0.60300192 0.0099999998
l 125 126
v 0.20671166 0.24954748 0
v -0.78780977 0.35408032 0
l 127 128
v 0.18034875 0.24597639 0
v -0.72700949 -0.17438181 0
l 129 130
v 0.21545085 0.24755283 0.0099999998
v 1.1568375 -0.089776716 0.0099999998
l 131 132
v 0.16137916 0.23175579 0.0099999998
v 0.81931723 0.98482783 0.0099999998
l 133 134
v 0.23955356 0.23058622 0.0099999998
v 0.8273369 -0.57843216 0.0099999998
l 135 136
v 0.22369343 0.24402978 0
v -0.67068394 0.69134299 0
l 137 138
v 0.17245515 0.24172866 0
v -0.64526174 -0.33389195 0
l 139 140
v 0.22878085 0.24088597 0
v -0.60579347 0.79178134 0
l 141 142
v 0.15109262 0.18960442 0
v 0.38817218 -0.78188582 0
l 143 144
v 0.24777864 0.21473776 0
v -0.075429516 1.1610657 0
l 145 146
v 0.17245515 0.15827134 0
v 1.0231351 -0.36741262 0
l 147 148
v 0.18887395 0.15125361 0.0099999998
v -0.77896101 0.40283959 0.0099999998
l 149 150
v 0.15055846 0.20745212 0.0099999998
v 0.32911557 1.1913817 0.0099999998
l 151 152
v 0.15180185 0.18669815 0.0099999998
v -0.085277707 1.1581884 0.0099999998
l 153 154
v 0.21257934 0.24839173 0
v -0.76234877 0.4709118 0
l 155 156
v 0.22101787 0.24536793 0.0099999998
v 1.1153952 -0.20194529 0.0099999998
l 157 158
v 0.17763434 0.24471886 0
v -0.7029626 -0.22914717 0
l 159 160
v 0.15109262 0.18960442 0.0099999998
v -0.027464496 1.173534 0.0099999998
l 161 162
v 0.2485745 0.21185403 0
v -0.017461284 1.1758172 0
l 163 164
v 0.24919648 0.19107215 0.0099999998
v 0.041280777 -0.7870746 0.0099999998
l 165 166
v 0.21826705 0.24654369 0
v -0.72311957 0.58387323 0
l 167 168
v 0.17763434 0.24471886 0.0099999998
v 1.0849926 0.66507706 0.0099999998
l 169 170
v 0.15020129 0.20448196 0.0099999998
v 0.26959262 1.1973292 0.0099999998
l 171 172
v 0.2356188 0.2350899 0.0099999998
v 0.91579148 -0.49796203 0.0099999998
l 173 174
v 0.19775675 0.15005034 0.0099999998
v -0.79944696 0.22478159 0.0099999998
l 175 176
v 0.2443793 0.22303212 0.0099999998
v 0.67826396 -0.67793631 0.0099999998
l 177 178
v 0.16334741 0.23400864 0.0099999998
v 0.86514447 0.94638556 0.0099999998
l 179 180
v 0.18887395 0.15125361 0
v 1.1700223 -0.042002359 0
l 181 182
v 0.17000891 0.24000667 0
v -0.6118236 -0.38348184 0
l 183 184
v 0.2443793 0.22303212 0
v -0.24261091 1.0964395 0
l 185 186
v 0.2037365 0.2498602 0
v -0.79525657 0.2947249 0
l 187 188
v 0.17000891 0.24000667 0.0099999998
v 0.9877258 0.81562728 0.0099999998
l 189 190
v 0.22101787 0.24536793 0
v -0.69850907 0.63839491 0
l 191 192
v 0.15495156 0.17830582 0
v 0.61559117 -0.70928144 0
l 193 194
v 0.24681175 0.18243127 0
v 0.5700199 1.1287592 0
l 195 196
v 0.16767003 0.23814148 0
v -0.57547698 -0.43098671 0
l 197 198
v 0.22369343 0.24402978 0.0099999998
v 1.0897185 -0.25597079 0.0099999998
l 199 200
v 0.18597864 0.24799377 0.0099999998
v 1.1538136 0.49957975 0.0099999998
l 201 202
v 0.15055846 0.19254789 0
v 0.32911557 -0.79138166 0
l 203 204
v 0.22628419 0.242534 0
v -0.63974089 0.74253456 0
l 205 206
v 0.21545085 0.24755283 0
v -0.74442498 0.52797819 0
l 207 208
v 0.16767003 0.16185853 0
v 0.94950011 -0.46163303 0
l 209 210
v 0.23345654 0.23715724 0.0099999998
v 0.95625015 -0.45390672 0.0099999998
l 211 212
v 0.18597864 0.24799377 0
v -0.7650782 -0.061022248 0
l 213 214
v 0.24567728 0.22033684 0.0099999998
v 0.6249016 -0.70496793 0.0099999998
l 215 216
v 0.18887395 0.2487464 0.0099999998
v 1.1700223 0.44200236 0.0099999998
l 217 218
v 0.21826705 0.24654369 0.0099999998
v 1.137794 -0.14648329 0.0099999998
l 219 220
v 0.24681175 0.21756874 0
v -0.13241258 1.1428735 0
l 221 222
v 0.20074797 0.24999441 0
v -0.79914008 0.23503123 0
l 223 224
v 0.15786394 0.22691754 0.0099999998
v 0.72118516 1.0531555 0.0099999998
l 225 226
v 0.2096628 0.24905741 0
v -0.77682775 0.4128756 0
l 227 228
v 0.20671166 0.15045251 0.0099999998
v -0.78781029 0.045924596 0.0099999998
l 229 230
v 0.15109262 0.21039559 0.0099999998
v 0.38817333 1.1818855 0.0099999998
l 231 232
v 0.19477357 0.2497261 0.0099999998
v 1.1919777 0.3244524 0.0099999998
l 233 234
v 0.24131194 0.228166 0.0099999998
v 0.77966309 -0.61455462 0.0099999998
l 235 236
v 0.15954915 0.22938927 0.0099999998
v 0.77127518 1.020459 0.0099999998
l 237 238
v 0.18034875 0.24597639 0.0099999998
v 1.1112215 0.61132006 0.0099999998
l 239 240
v 0.22878085 0.24088597 0.0099999998
v 1.0289135 -0.35893708 0.0099999998
l 241 242
v 0.16767003 0.23814148 0.0099999998
v 0.94950254 0.86162999 0.0099999998
l 243 244
v 0.15268363 0.18383951 0.0099999998
v -0.14207244 1.139412 0.0099999998
l 245 246
v 0.15495156 0.22169419 0
v -0.25178394 -0.69185178 0
l 247 248
v 0.15786394 0.22691754 0
v -0.35503331 -0.63153247 0
l 249 250
v 0.15002237 0.19850422 0.0099999998
v 0.15002237 1.1985042 0.0099999998
l 251 252
v 0.15954915 0.17061074 0
v 0.77127518 -0.62045896 0
l 253 254
v 0.15495156 0.17830582 0.0099999998
v -0.25178579 1.091851 0.0099999998
l 255 256
v 0.15632959 0.17565055 0
v 0.66922903 -0.68279814 0
l 257 258
v 0.2037365 0.15013981 0.0099999998
v -0.79525657 0.1052751 0.0099999998
l 259 260
v 0.15002237 0.19850422 0
v 0.20983029 -0.79970568 0
l 261 262
v 0.15268363 0.21616048 0.0099999998
v 0.50405925 1.152395 0.0099999998
l 263 264
v 0.15495156 0.22169419 0.0099999998
v 0.61559321 1.1092804 0.0099999998
l 265 266
v 0.23117448 0.16090843 0.0099999998
v -0.56895819 -0.43891463 0.0099999998
l 267 268
v 0.16334741 0.16599137 0.0099999998
v -0.49459067 0.9190634 0.0099999998
l 269 270
v 0.15055846 0.19254789 0.0099999998
v 0.031166542 1.1853951 0.0099999998
l 271 272
v 0.15268363 0.18383951 0
v 0.50405925 -0.75239506 0
l 273 274
v 0.24777864 0.18526225 0
v 0.51381442 1.1492254 0
l 275 276
v 0.18034875 0.15402362 0
v 1.1112215 -0.21132005 0
l 277 278
v 0.18034875 0.15402362 0.0099999998
v -0.72701139 0.57437771 0.0099999998
l 279 280
v 0.21257934 0.15160826 0.0099999998
v -0.76234877 -0.070911813 0.0099999998
l 281 282
v 0.23117448 0.16090843 0
v 0.99400558 0.80750623 0
l 283 284
v 0.21826705 0.15345632 0
v 1.1377958 0.54647909 0
l 285 286
v 0.24131194 0.17183399 0
v 0.77966309 1.0145546 0
l 287 288
v 0.24567728 0.17966317 0.0099999998
v -0.18820544 -0.7213062 0.0099999998
l 289 290
v 0.2096628 0.15094258 0
v 1.1845909 0.37346265 0
l 291 292
v 0.20671166 0.24954748 0.0099999998
v 1.1932022 0.085729291 0.0099999998
l 293 294
v 0.2096628 0.15094258 0.0099999998
v -0.77682775 -0.012875611 0.0099999998
l 295 296
v 0.22878085 0.15911403 0
v 1.0289135 0.75893709 0
l 297 298
v 0.15180185 0.18669815 0
v 0.44655792 -0.76887438 0
l 299 300
v 0.2356188 0.16491011 0
v 0.91579148 0.89796203 0
l 301 302
v 0.2485745 0.18814598 0
v 0.4564902 1.1662927 0
l 303 304
v 0.21545085 0.15244718 0
v 1.1568375 0.48977672 0
l 305 306
v 0.17763434 0.15528113 0.0099999998
v -0.70296052 0.62915103 0.0099999998
l 307 308
v 0.16137916 0.16824421 0
v 0.81931723 -0.58482782 0
l 309 310
v 0.15002237 0.20149577 0
v 0.15002237 -0.79850423 0
l 311 312
v 0.1831335 0.24706933 0
v -0.74773921 -0.11827434 0
l 313 314
v 0.17763434 0.15528113 0
v 1.0849945 -0.26507297 0
l 315 316
v 0.15373479 0.21896127 0
v -0.19764083 -0.7172733 0
l 317 318
v 0.15020129 0.19551803 0.0099999998
v 0.090393375 1.1937279 0.0099999998
l 319 320
v 0.16544686 0.23613974 0
v -0.5363502 -0.47623718 0
l 321 322
v 0.22369343 0.15597023 0
v 1.0897207 0.65596706 0
l 323 324
v 0.15632959 0.22434944 0.0099999998
v 0.66922684 1.0827994 0.0099999998
l 325 326
v 0.15373479 0.21896127 0.0099999998
v 0.56047028 1.1325072 0.0099999998
l 327 328
v 0.23955356 0.16941379 0
v 0.82733927 0.97843045 0
l 329 330
v 0.19775675 0.24994965 0
v -0.79944733 0.17522335 0
l 331 332
v 0.15373479 0.18103872 0
v 0.56047213 -0.73250642 0
l 333 334
v 0.24292244 0.22564496 0.0099999998
v 0.72991265 -0.64776247 0.0099999998
l 335 336
v 0.23765357 0.23289694 0
v -0.44251911 0.96594886 0
l 337 338
v 0.24292244 0.17435503 0
v 0.72991265 1.0477625 0
l 339 340
v 0.19477357 0.1502739 0
v 1.1919773 0.075542652 0
l 341 342
v 0.18887395 0.2487464 0
v -0.77896101 -0.0028395862 0
l 343 344
v 0.16137916 0.16824421 0.0099999998
v -0.45034687 0.95931391 0.0099999998
l 345 346
v 0.16544686 0.16386026 0
v 0.90859387 -0.50526792 0
l 347 348
v 0.23117448 0.23909158 0
v -0.56895819 0.83891463 0
l 349 350
v 0.2485745 0.21185403 0.0099999998
v 0.45648919 -0.76629294 0.0099999998
l 351 352
v 0.24964234 0.20596971 0.0099999998
v 0.33928207 -0.79000455 0.0099999998
l 353 354
v 0.2499105 0.19700979 0.0099999998
v 0.16027078 -0.79896447 0.0099999998
l 355 356
v 0.22369343 0.15597023 0.0099999998
v -0.67068195 -0.29134697 0.0099999998
l 357 358
v 0.2356188 0.16491011 0.0099999998
v -0.48717481 -0.52615385 0.0099999998
l 359 360
v 0.24131194 0.228166 0
v -0.34647141 1.0371844 0
l 361 362
v 0.17245515 0.15827134 0.0099999998
v -0.64526409 0.73388862 0.0099999998
l 363 364
v 0.22628419 0.15746599 0.0099999998
v -0.63974305 -0.34253083 0.0099999998
l 365 366
v 0.24777864 0.18526225 0.0099999998
v -0.075429516 -0.76106565 0.0099999998
l 367 368
v 0.23765357 0.16710307 0.0099999998
v -0.44251911 -0.56594886 0.0099999998
l 369 370
v 0.16137916 0.23175579 0
v -0.45034687 -0.5593139 0
l 371 372
v 0.15786394 0.17308247 0.0099999998
v -0.3550355 1.0315312 0.0099999998
l 373 374
v 0.15055846 0.20745212 0
v 0.031167132 -0.78539516 0
l 375 376
v 0.21257934 0.24839173 0.0099999998
v 1.1724552 -0.032033633 0.0099999998
l 377 378
v 0.15180185 0.21330184 0
v -0.085278854 -0.75818812 0
l 379 380
v 0.1918091 0.24932453 0
v -0.78933927 0.056068561 0
l 381 382
v 0.20074797 0.24999441 0.0099999998
v 1.199741 0.20512971 0.0099999998
l 383 384
v 0.2356188 0.2350899 0
v -0.48717481 0.92615385 0
l 385 386
v 0.15020129 0.20448196 0
v 0.090393375 -0.79372795 0
l 387 388
v 0.20074797 0.15000559 0
v 1.199741 0.1948703 0
l 389 390
v 0.2096628 0.24905741 0.0099999998
v 1.1845909 0.026537341 0.0099999998
l 391 392
v 0.15268363 0.21616048 0
v -0.14207244 -0.73941205 0
l 393 394
v 0.15954915 0.17061074 0.0099999998
v -0.40377207 0.99684873 0.0099999998
l 395 396
v 0.16334741 0.23400864 0
v -0.49459067 -0.51906339 0
l 397 398
v 0.19477357 0.2497261 0
v -0.79617588 0.11549051 0
l 399 400
v 0.23955356 0.23058622 0
v -0.39556373 1.0030019 0
l 401 402
v 0.2037365 0.2498602 0.0099999998
v 1.1982579 0.14532736 0.0099999998
l 403 404
v 0.23345654 0.23715724 0
v -0.52937456 0.88375504 0
l 405 406
v 0.175 0.15669873 0.0099999998
v -0.67567995 0.6823827 0.0099999998
l 407 408
v 0.19775675 0.15005034 0
v 1.1976449 0.13509214 0
l 409 410
v 0.24681175 0.18243127 0.0099999998
v -0.13241258 -0.7428735 0.0099999998
l 411 412
v 0.25 0.2 0
v 0.22008351 1.1995524 0
l 413 414
v 0.2499105 0.2029902 0.0099999998
v 0.27982699 -0.7965622 0.0099999998
l 415 416
v 0.2499105 0.19700979 0
v 0.27982684 1.1965622 0
l 417 418
v 0.25 0.2 0.0099999998
v 0.22008366 -0.7995524 0.0099999998
l 419 420
