solid Created by Gmsh
facet normal 0 0 1
  outer loop
    vertex 0.5649999999999997 0.19 0
    vertex 0.5824999999999999 0.2 0
    vertex 0.5650000000000001 0.21 0
  endloop
endfacet
facet normal 0 0 1
  outer loop
    vertex 0.4599999999999996 0.19 0
    vertex 0.4774999999999999 0.2 0
    vertex 0.4600000000000002 0.21 0
  endloop
endfacet
facet normal 0 0 1
  outer loop
    vertex 0.3900000000000003 0.21 0
    vertex 0.3725000000000001 0.2 0
    vertex 0.3899999999999998 0.19 0
  endloop
endfacet
facet normal 0 0 1
  outer loop
    vertex 0.4250000000000003 0.21 0
    vertex 0.4075 0.2 0
    vertex 0.4249999999999997 0.19 0
  endloop
endfacet
facet normal 0 0 1
  outer loop
    vertex 0.4600000000000002 0.21 0
    vertex 0.4424999999999999 0.2 0
    vertex 0.4599999999999996 0.19 0
  endloop
endfacet
facet normal 0 0 1
  outer loop
    vertex 0.3200000000000004 0.21 0
    vertex 0.3025000000000002 0.2 0
    vertex 0.3199999999999999 0.19 0
  endloop
endfacet
facet normal 0 0 1
  outer loop
    vertex 0.3550000000000003 0.21 0
    vertex 0.3375000000000001 0.2 0
    vertex 0.3549999999999999 0.19 0
  endloop
endfacet
facet normal 0 0 1
  outer loop
    vertex 0.53 0.21 0
    vertex 0.5124999999999998 0.2 0
    vertex 0.5299999999999996 0.19 0
  endloop
endfacet
facet normal 0 0 1
  outer loop
    vertex 0.2850000000000003 0.21 0
    vertex 0.2675000000000001 0.2 0
    vertex 0.285 0.19 0
  endloop
endfacet
facet normal 0 0 1
  outer loop
    vertex 0.25 0.19 0
    vertex 0.2675000000000001 0.2 0
    vertex 0.25 0.21 0
  endloop
endfacet
facet normal 0 0 1
  outer loop
    vertex 0.5650000000000001 0.21 0
    vertex 0.5474999999999999 0.2 0
    vertex 0.5649999999999997 0.19 0
  endloop
endfacet
facet normal 0 0 1
  outer loop
    vertex 0.285 0.19 0
    vertex 0.3025000000000002 0.2 0
    vertex 0.2850000000000003 0.21 0
  endloop
endfacet
facet normal 0 0 1
  outer loop
    vertex 0.3199999999999999 0.19 0
    vertex 0.3375000000000001 0.2 0
    vertex 0.3200000000000004 0.21 0
  endloop
endfacet
facet normal 0 0 1
  outer loop
    vertex 0.5299999999999996 0.19 0
    vertex 0.5474999999999999 0.2 0
    vertex 0.53 0.21 0
  endloop
endfacet
facet normal 0 0 1
  outer loop
    vertex 0.3549999999999999 0.19 0
    vertex 0.3725000000000001 0.2 0
    vertex 0.3550000000000003 0.21 0
  endloop
endfacet
facet normal 0 0 1
  outer loop
    vertex 0.3899999999999998 0.19 0
    vertex 0.4075 0.2 0
    vertex 0.3900000000000003 0.21 0
  endloop
endfacet
facet normal 0 0 1
  outer loop
    vertex 0.4249999999999997 0.19 0
    vertex 0.4424999999999999 0.2 0
    vertex 0.4250000000000003 0.21 0
  endloop
endfacet
facet normal 0 0 1
  outer loop
    vertex 0.4950000000000001 0.21 0
    vertex 0.4774999999999999 0.2 0
    vertex 0.4949999999999997 0.19 0
  endloop
endfacet
facet normal 0 0 1
  outer loop
    vertex 0.4949999999999997 0.19 0
    vertex 0.5124999999999998 0.2 0
    vertex 0.4950000000000001 0.21 0
  endloop
endfacet
facet normal 0 0 1
  outer loop
    vertex 0.6 0.21 0
    vertex 0.5824999999999999 0.2 0
    vertex 0.6 0.19 0
  endloop
endfacet
facet normal 0 0 1
  outer loop
    vertex 0.285 0.19 0
    vertex 0.2675000000000001 0.2 0
    vertex 0.25 0.19 0
  endloop
endfacet
facet normal 0 0 1
  outer loop
    vertex 0.6 0.19 0
    vertex 0.5824999999999999 0.2 0
    vertex 0.5649999999999997 0.19 0
  endloop
endfacet
facet normal -0 0 1
  outer loop
    vertex 0.5650000000000001 0.21 0
    vertex 0.5824999999999999 0.2 0
    vertex 0.6 0.21 0
  endloop
endfacet
facet normal -0 0 1
  outer loop
    vertex 0.25 0.21 0
    vertex 0.2675000000000001 0.2 0
    vertex 0.2850000000000003 0.21 0
  endloop
endfacet
facet normal 0 0 1
  outer loop
    vertex 0.3199999999999999 0.19 0
    vertex 0.3025000000000002 0.2 0
    vertex 0.285 0.19 0
  endloop
endfacet
facet normal 0 0 1
  outer loop
    vertex 0.3549999999999999 0.19 0
    vertex 0.3375000000000001 0.2 0
    vertex 0.3199999999999999 0.19 0
  endloop
endfacet
facet normal 0 0 1
  outer loop
    vertex 0.3899999999999998 0.19 0
    vertex 0.3725000000000001 0.2 0
    vertex 0.3549999999999999 0.19 0
  endloop
endfacet
facet normal 0 0 1
  outer loop
    vertex 0.4249999999999997 0.19 0
    vertex 0.4075 0.2 0
    vertex 0.3899999999999998 0.19 0
  endloop
endfacet
facet normal 0 0 1
  outer loop
    vertex 0.4599999999999996 0.19 0
    vertex 0.4424999999999999 0.2 0
    vertex 0.4249999999999997 0.19 0
  endloop
endfacet
facet normal 0 0 1
  outer loop
    vertex 0.4949999999999997 0.19 0
    vertex 0.4774999999999999 0.2 0
    vertex 0.4599999999999996 0.19 0
  endloop
endfacet
facet normal 0 0 1
  outer loop
    vertex 0.5299999999999996 0.19 0
    vertex 0.5124999999999998 0.2 0
    vertex 0.4949999999999997 0.19 0
  endloop
endfacet
facet normal 0 0 1
  outer loop
    vertex 0.5649999999999997 0.19 0
    vertex 0.5474999999999999 0.2 0
    vertex 0.5299999999999996 0.19 0
  endloop
endfacet
facet normal -0 0 1
  outer loop
    vertex 0.53 0.21 0
    vertex 0.5474999999999999 0.2 0
    vertex 0.5650000000000001 0.21 0
  endloop
endfacet
facet normal -0 0 1
  outer loop
    vertex 0.4950000000000001 0.21 0
    vertex 0.5124999999999998 0.2 0
    vertex 0.53 0.21 0
  endloop
endfacet
facet normal -0 0 1
  outer loop
    vertex 0.4600000000000002 0.21 0
    vertex 0.4774999999999999 0.2 0
    vertex 0.4950000000000001 0.21 0
  endloop
endfacet
facet normal -0 0 1
  outer loop
    vertex 0.4250000000000003 0.21 0
    vertex 0.4424999999999999 0.2 0
    vertex 0.4600000000000002 0.21 0
  endloop
endfacet
facet normal -0 0 1
  outer loop
    vertex 0.3900000000000003 0.21 0
    vertex 0.4075 0.2 0
    vertex 0.4250000000000003 0.21 0
  endloop
endfacet
facet normal -0 0 1
  outer loop
    vertex 0.3550000000000003 0.21 0
    vertex 0.3725000000000001 0.2 0
    vertex 0.3900000000000003 0.21 0
  endloop
endfacet
facet normal -0 0 1
  outer loop
    vertex 0.3200000000000004 0.21 0
    vertex 0.3375000000000001 0.2 0
    vertex 0.3550000000000003 0.21 0
  endloop
endfacet
facet normal -0 0 1
  outer loop
    vertex 0.2850000000000003 0.21 0
    vertex 0.3025000000000002 0.2 0
    vertex 0.3200000000000004 0.21 0
  endloop
endfacet
endsolid Created by Gmsh
