solid Created by Gmsh
facet normal 0 -0 1
  outer loop
    vertex 0.1711659838942569 0.1591515053494777 0
    vertex 0.1765098946188841 0.1763476665755089 0
    vertex 0.1612144354647792 0.1684456027836971 0
  endloop
endfacet
facet normal 0 0 1
  outer loop
    vertex 0.2024031791043422 0.1620540470867493 0
    vertex 0.2140308861795698 0.164632256708159 0
    vertex 0.2065073886858236 0.1762370326108188 0
  endloop
endfacet
facet normal 0 0 1
  outer loop
    vertex 0.2065073886858236 0.1762370326108188 0
    vertex 0.2140308861795698 0.164632256708159 0
    vertex 0.2185729300339296 0.1761793443543638 0
  endloop
endfacet
facet normal 0 0 1
  outer loop
    vertex 0.1840404013804434 0.165983960224665 0
    vertex 0.1765098946188841 0.1763476665755089 0
    vertex 0.1711659838942569 0.1591515053494777 0
  endloop
endfacet
facet normal 0 0 1
  outer loop
    vertex 0.1612144354647792 0.1684456027836971 0
    vertex 0.1765098946188841 0.1763476665755089 0
    vertex 0.1653644249701956 0.1816048019661726 0
  endloop
endfacet
facet normal 0 0 1
  outer loop
    vertex 0.1877172644822138 0.2243892502171953 0
    vertex 0.1742938355545665 0.2277859889067743 0
    vertex 0.1773629872954136 0.2143504355790828 0
  endloop
endfacet
facet normal 0 0 1
  outer loop
    vertex 0.1773629872954136 0.2143504355790828 0
    vertex 0.1742938355545665 0.2277859889067743 0
    vertex 0.1661641575440996 0.2185818387734441 0
  endloop
endfacet
facet normal 0 0 1
  outer loop
    vertex 0.1765098946188841 0.1763476665755089 0
    vertex 0.1729237839202266 0.1916169243910198 0
    vertex 0.1653644249701956 0.1816048019661726 0
  endloop
endfacet
facet normal 0 0 1
  outer loop
    vertex 0.2065073886858236 0.1762370326108188 0
    vertex 0.1950828934670931 0.1711200298823023 0
    vertex 0.2024031791043422 0.1620540470867493 0
  endloop
endfacet
facet normal 0 0 1
  outer loop
    vertex 0.1836191722957979 0.1873766473988607 0
    vertex 0.1729237839202266 0.1916169243910198 0
    vertex 0.1765098946188841 0.1763476665755089 0
  endloop
endfacet
facet normal 0 0 1
  outer loop
    vertex 0.1923211795182641 0.2369525128947244 0
    vertex 0.1817508565681503 0.2354178585550314 0
    vertex 0.1877172644822138 0.2243892502171953 0
  endloop
endfacet
facet normal 0 0 1
  outer loop
    vertex 0.1877172644822138 0.2243892502171953 0
    vertex 0.1987040867608455 0.2287509842989016 0
    vertex 0.1923211795182641 0.2369525128947244 0
  endloop
endfacet
facet normal 0 -0 1
  outer loop
    vertex 0.2065073886858236 0.1762370326108188 0
    vertex 0.2166781032366582 0.1879038583919545 0
    vertex 0.2044415141725056 0.1916870543506126 0
  endloop
endfacet
facet normal -0 0 1
  outer loop
    vertex 0.2044415141725056 0.1916870543506126 0
    vertex 0.2166781032366582 0.1879038583919545 0
    vertex 0.2145308181895931 0.2007393579046756 0
  endloop
endfacet
facet normal 0 0 1
  outer loop
    vertex 0.1992967082571444 0.2176311065080938 0
    vertex 0.1877172644822138 0.2243892502171953 0
    vertex 0.1889468768937487 0.209028454268563 0
  endloop
endfacet
facet normal 0 0 1
  outer loop
    vertex 0.201618025270515 0.2049036291789433 0
    vertex 0.1992967082571444 0.2176311065080938 0
    vertex 0.1889468768937487 0.209028454268563 0
  endloop
endfacet
facet normal 0 0 1
  outer loop
    vertex 0.1915038774298385 0.1959392831379156 0
    vertex 0.1836191722957979 0.1873766473988607 0
    vertex 0.194353699334051 0.1833862899713155 0
  endloop
endfacet
facet normal 0 -0 1
  outer loop
    vertex 0.1832560193914511 0.1528869538940588 0
    vertex 0.1840404013804434 0.165983960224665 0
    vertex 0.1711659838942569 0.1591515053494777 0
  endloop
endfacet
facet normal 0 0 1
  outer loop
    vertex 0.2427209702273245 0.1740208024982284 0
    vertex 0.2305837772257207 0.1751190441400812 0
    vertex 0.2341276571609328 0.1634582017860939 0
  endloop
endfacet
facet normal 0 0 1
  outer loop
    vertex 0.210172800652632 0.1510457956158839 0
    vertex 0.2024031791043422 0.1620540470867493 0
    vertex 0.1965878793317668 0.150116561540473 0
  endloop
endfacet
facet normal 0 -0 1
  outer loop
    vertex 0.1541394349247275 0.1800799455076877 0
    vertex 0.1618277089916594 0.1910119858841177 0
    vertex 0.1504657026981835 0.1931916675451874 0
  endloop
endfacet
facet normal -0 0 1
  outer loop
    vertex 0.1541394349247273 0.2199200544923119 0
    vertex 0.1661641575440996 0.2185818387734441 0
    vertex 0.1612144354647789 0.2315543972163025 0
  endloop
endfacet
facet normal 0 0 1
  outer loop
    vertex 0.2230032518865576 0.2443942609201188 0
    vertex 0.2218443611200024 0.2313273518656634 0
    vertex 0.2341276571609327 0.2365417982139063 0
  endloop
endfacet
facet normal -0 0 1
  outer loop
    vertex 0.1832560193914506 0.247113046105941 0
    vertex 0.1923211795182641 0.2369525128947244 0
    vertex 0.1965878793317664 0.249883438459527 0
  endloop
endfacet
facet normal 0 0 1
  outer loop
    vertex 0.24814586436739 0.2134898385578512 0
    vertex 0.237390389299645 0.2051391907190234 0
    vertex 0.25 0.2 0
  endloop
endfacet
facet normal 0 0 1
  outer loop
    vertex 0.1796953502348492 0.2001375783002043 0
    vertex 0.1836191722957979 0.1873766473988607 0
    vertex 0.1915038774298385 0.1959392831379156 0
  endloop
endfacet
facet normal -0 0 1
  outer loop
    vertex 0.194353699334051 0.1833862899713155 0
    vertex 0.2065073886858236 0.1762370326108188 0
    vertex 0.2044415141725056 0.1916870543506126 0
  endloop
endfacet
facet normal 0 0 1
  outer loop
    vertex 0.1889468768937487 0.209028454268563 0
    vertex 0.1796953502348492 0.2001375783002043 0
    vertex 0.1915038774298385 0.1959392831379156 0
  endloop
endfacet
facet normal 0 0 1
  outer loop
    vertex 0.201618025270515 0.2049036291789433 0
    vertex 0.1889468768937487 0.209028454268563 0
    vertex 0.1915038774298385 0.1959392831379156 0
  endloop
endfacet
facet normal 0 0 1
  outer loop
    vertex 0.1915038774298385 0.1959392831379156 0
    vertex 0.194353699334051 0.1833862899713155 0
    vertex 0.2044415141725056 0.1916870543506126 0
  endloop
endfacet
facet normal 0 0 1
  outer loop
    vertex 0.201618025270515 0.2049036291789433 0
    vertex 0.1915038774298385 0.1959392831379156 0
    vertex 0.2044415141725056 0.1916870543506126 0
  endloop
endfacet
facet normal 0 0 1
  outer loop
    vertex 0.201618025270515 0.2049036291789433 0
    vertex 0.2044415141725056 0.1916870543506126 0
    vertex 0.2145308181895931 0.2007393579046756 0
  endloop
endfacet
facet normal 0 0 1
  outer loop
    vertex 0.2115717636017528 0.2133698071011846 0
    vertex 0.1992967082571444 0.2176311065080938 0
    vertex 0.201618025270515 0.2049036291789433 0
  endloop
endfacet
facet normal 0 0 1
  outer loop
    vertex 0.2115717636017528 0.2133698071011846 0
    vertex 0.201618025270515 0.2049036291789433 0
    vertex 0.2145308181895931 0.2007393579046756 0
  endloop
endfacet
facet normal 0 0 1
  outer loop
    vertex 0.2243883239876737 0.2089939211856784 0
    vertex 0.2115717636017528 0.2133698071011846 0
    vertex 0.2145308181895931 0.2007393579046756 0
  endloop
endfacet
facet normal 0 0 1
  outer loop
    vertex 0.2145308181895931 0.2007393579046756 0
    vertex 0.2166781032366582 0.1879038583919545 0
    vertex 0.2269699867753282 0.1970169961314395 0
  endloop
endfacet
facet normal 0 0 1
  outer loop
    vertex 0.1661641575440996 0.2185818387734441 0
    vertex 0.1669991539882889 0.2043249410305496 0
    vertex 0.1773629872954136 0.2143504355790828 0
  endloop
endfacet
facet normal 0 -0 1
  outer loop
    vertex 0.1661641575440996 0.2185818387734441 0
    vertex 0.1742938355545665 0.2277859889067743 0
    vertex 0.1612144354647789 0.2315543972163025 0
  endloop
endfacet
facet normal -0 0 1
  outer loop
    vertex 0.1612144354647789 0.2315543972163025 0
    vertex 0.1742938355545665 0.2277859889067743 0
    vertex 0.1711659838942565 0.240848494650522 0
  endloop
endfacet
facet normal 0 0 1
  outer loop
    vertex 0.1618277089916594 0.1910119858841177 0
    vertex 0.1729237839202266 0.1916169243910198 0
    vertex 0.1669991539882889 0.2043249410305496 0
  endloop
endfacet
facet normal 0 0 1
  outer loop
    vertex 0.2243883239876737 0.2089939211856784 0
    vertex 0.2145308181895931 0.2007393579046756 0
    vertex 0.2269699867753282 0.1970169961314395 0
  endloop
endfacet
facet normal 0 -0 1
  outer loop
    vertex 0.1653644249701956 0.1816048019661726 0
    vertex 0.1729237839202266 0.1916169243910198 0
    vertex 0.1618277089916594 0.1910119858841177 0
  endloop
endfacet
facet normal 0 0 1
  outer loop
    vertex 0.2115717636017528 0.2133698071011846 0
    vertex 0.2098310618656262 0.2271644270453999 0
    vertex 0.1992967082571444 0.2176311065080938 0
  endloop
endfacet
facet normal 0 0 1
  outer loop
    vertex 0.2140308861795698 0.164632256708159 0
    vertex 0.2240637004973421 0.1669989172137158 0
    vertex 0.2185729300339296 0.1761793443543638 0
  endloop
endfacet
facet normal 0 0 1
  outer loop
    vertex 0.237390389299645 0.2051391907190234 0
    vertex 0.2243883239876737 0.2089939211856784 0
    vertex 0.2269699867753282 0.1970169961314395 0
  endloop
endfacet
facet normal 0 0 1
  outer loop
    vertex 0.24814586436739 0.2134898385578512 0
    vertex 0.2341322801794657 0.2167123230634015 0
    vertex 0.237390389299645 0.2051391907190234 0
  endloop
endfacet
facet normal 0 0 1
  outer loop
    vertex 0.2427209702273244 0.2259791975017717 0
    vertex 0.2341322801794657 0.2167123230634015 0
    vertex 0.24814586436739 0.2134898385578512 0
  endloop
endfacet
facet normal 0 0 1
  outer loop
    vertex 0.2269699867753282 0.1970169961314395 0
    vertex 0.2277328988777107 0.1861966561226685 0
    vertex 0.2386864029971991 0.1934692372670794 0
  endloop
endfacet
facet normal 0 0 1
  outer loop
    vertex 0.194353699334051 0.1833862899713155 0
    vertex 0.1950828934670931 0.1711200298823023 0
    vertex 0.2065073886858236 0.1762370326108188 0
  endloop
endfacet
facet normal 0 0 1
  outer loop
    vertex 0.1877172644822138 0.2243892502171953 0
    vertex 0.1773629872954136 0.2143504355790828 0
    vertex 0.1889468768937487 0.209028454268563 0
  endloop
endfacet
facet normal 0 -0 1
  outer loop
    vertex 0.2098310618656262 0.2271644270453999 0
    vertex 0.2136792442487893 0.2380386192282832 0
    vertex 0.2035447457191287 0.2383528519261175 0
  endloop
endfacet
facet normal 0 0 1
  outer loop
    vertex 0.2035447457191287 0.2383528519261175 0
    vertex 0.1987040867608455 0.2287509842989016 0
    vertex 0.2098310618656262 0.2271644270453999 0
  endloop
endfacet
facet normal 0 0 1
  outer loop
    vertex 0.1669991539882889 0.2043249410305496 0
    vertex 0.1575918098595543 0.2003543266966338 0
    vertex 0.1618277089916594 0.1910119858841177 0
  endloop
endfacet
facet normal 0 0 1
  outer loop
    vertex 0.2386864029971991 0.1934692372670794 0
    vertex 0.2277328988777107 0.1861966561226685 0
    vertex 0.2374997958934154 0.1832971474065708 0
  endloop
endfacet
facet normal 0 0 1
  outer loop
    vertex 0.1877172644822138 0.2243892502171953 0
    vertex 0.1817508565681503 0.2354178585550314 0
    vertex 0.1742938355545665 0.2277859889067743 0
  endloop
endfacet
facet normal 0 0 1
  outer loop
    vertex 0.1661641575440996 0.2185818387734441 0
    vertex 0.1590680733739998 0.211086045667674 0
    vertex 0.1669991539882889 0.2043249410305496 0
  endloop
endfacet
facet normal 0 0 1
  outer loop
    vertex 0.1992967082571444 0.2176311065080938 0
    vertex 0.1987040867608455 0.2287509842989016 0
    vertex 0.1877172644822138 0.2243892502171953 0
  endloop
endfacet
facet normal -0 0 1
  outer loop
    vertex 0.2098310618656262 0.2271644270453999 0
    vertex 0.2215747822318572 0.2203564373714805 0
    vertex 0.2218443611200024 0.2313273518656634 0
  endloop
endfacet
facet normal 0 -0 1
  outer loop
    vertex 0.2115717636017528 0.2133698071011846 0
    vertex 0.2215747822318572 0.2203564373714805 0
    vertex 0.2098310618656262 0.2271644270453999 0
  endloop
endfacet
facet normal 0 0 1
  outer loop
    vertex 0.1669991539882889 0.2043249410305496 0
    vertex 0.1729237839202266 0.1916169243910198 0
    vertex 0.1796953502348492 0.2001375783002043 0
  endloop
endfacet
facet normal 0 0 1
  outer loop
    vertex 0.1773629872954136 0.2143504355790828 0
    vertex 0.1669991539882889 0.2043249410305496 0
    vertex 0.1796953502348492 0.2001375783002043 0
  endloop
endfacet
facet normal 0 0 1
  outer loop
    vertex 0.237390389299645 0.2051391907190234 0
    vertex 0.2341322801794657 0.2167123230634015 0
    vertex 0.2243883239876737 0.2089939211856784 0
  endloop
endfacet
facet normal 0 0 1
  outer loop
    vertex 0.1889468768937487 0.209028454268563 0
    vertex 0.1773629872954136 0.2143504355790828 0
    vertex 0.1796953502348492 0.2001375783002043 0
  endloop
endfacet
facet normal 0 0 1
  outer loop
    vertex 0.2341322801794657 0.2167123230634015 0
    vertex 0.2215747822318572 0.2203564373714805 0
    vertex 0.2243883239876737 0.2089939211856784 0
  endloop
endfacet
facet normal 0 0 1
  outer loop
    vertex 0.237390389299645 0.2051391907190234 0
    vertex 0.2269699867753282 0.1970169961314395 0
    vertex 0.2386864029971991 0.1934692372670794 0
  endloop
endfacet
facet normal 0 0 1
  outer loop
    vertex 0.2341322801794657 0.2167123230634015 0
    vertex 0.2310274377710468 0.2264275532518042 0
    vertex 0.2215747822318572 0.2203564373714805 0
  endloop
endfacet
facet normal 0 0 1
  outer loop
    vertex 0.2218443611200024 0.2313273518656634 0
    vertex 0.2136792442487893 0.2380386192282832 0
    vertex 0.2098310618656262 0.2271644270453999 0
  endloop
endfacet
facet normal -0 0 1
  outer loop
    vertex 0.2065073886858236 0.1762370326108188 0
    vertex 0.2185729300339296 0.1761793443543638 0
    vertex 0.2166781032366582 0.1879038583919545 0
  endloop
endfacet
facet normal 0 0 1
  outer loop
    vertex 0.25 0.2 0
    vertex 0.2386864029971991 0.1934692372670794 0
    vertex 0.24814586436739 0.1865101614421488 0
  endloop
endfacet
facet normal 0 0 1
  outer loop
    vertex 0.1541394349247275 0.1800799455076877 0
    vertex 0.1653644249701956 0.1816048019661726 0
    vertex 0.1618277089916594 0.1910119858841177 0
  endloop
endfacet
facet normal 0 0 1
  outer loop
    vertex 0.2427209702273245 0.1740208024982284 0
    vertex 0.2374997958934154 0.1832971474065708 0
    vertex 0.2305837772257207 0.1751190441400812 0
  endloop
endfacet
facet normal 0 0 1
  outer loop
    vertex 0.2230032518865576 0.2443942609201188 0
    vertex 0.2136792442487893 0.2380386192282832 0
    vertex 0.2218443611200024 0.2313273518656634 0
  endloop
endfacet
facet normal 0 0 1
  outer loop
    vertex 0.237390389299645 0.2051391907190234 0
    vertex 0.2386864029971991 0.1934692372670794 0
    vertex 0.25 0.2 0
  endloop
endfacet
facet normal 0 0 1
  outer loop
    vertex 0.1832560193914511 0.1528869538940588 0
    vertex 0.1922740745350193 0.1604323105256497 0
    vertex 0.1840404013804434 0.165983960224665 0
  endloop
endfacet
facet normal 0 0 1
  outer loop
    vertex 0.2230032518865578 0.1556057390798813 0
    vertex 0.2140308861795698 0.164632256708159 0
    vertex 0.210172800652632 0.1510457956158839 0
  endloop
endfacet
facet normal 0 0 1
  outer loop
    vertex 0.24814586436739 0.1865101614421488 0
    vertex 0.2374997958934154 0.1832971474065708 0
    vertex 0.2427209702273245 0.1740208024982284 0
  endloop
endfacet
facet normal 0 0 1
  outer loop
    vertex 0.1965878793317668 0.150116561540473 0
    vertex 0.1922740745350193 0.1604323105256497 0
    vertex 0.1832560193914511 0.1528869538940588 0
  endloop
endfacet
facet normal 0 0 1
  outer loop
    vertex 0.1965878793317664 0.249883438459527 0
    vertex 0.2035447457191287 0.2383528519261175 0
    vertex 0.2101728006526316 0.2489542043841162 0
  endloop
endfacet
facet normal 0 0 1
  outer loop
    vertex 0.2101728006526316 0.2489542043841162 0
    vertex 0.2136792442487893 0.2380386192282832 0
    vertex 0.2230032518865576 0.2443942609201188 0
  endloop
endfacet
facet normal 0 -0 1
  outer loop
    vertex 0.210172800652632 0.1510457956158839 0
    vertex 0.2140308861795698 0.164632256708159 0
    vertex 0.2024031791043422 0.1620540470867493 0
  endloop
endfacet
facet normal 0 0 1
  outer loop
    vertex 0.2024031791043422 0.1620540470867493 0
    vertex 0.1922740745350193 0.1604323105256497 0
    vertex 0.1965878793317668 0.150116561540473 0
  endloop
endfacet
facet normal 0 0 1
  outer loop
    vertex 0.1923211795182641 0.2369525128947244 0
    vertex 0.2035447457191287 0.2383528519261175 0
    vertex 0.1965878793317664 0.249883438459527 0
  endloop
endfacet
facet normal 0 -0 1
  outer loop
    vertex 0.1612144354647792 0.1684456027836971 0
    vertex 0.1653644249701956 0.1816048019661726 0
    vertex 0.1541394349247275 0.1800799455076877 0
  endloop
endfacet
facet normal 0 0 1
  outer loop
    vertex 0.2305837772257207 0.1751190441400812 0
    vertex 0.2240637004973421 0.1669989172137158 0
    vertex 0.2341276571609328 0.1634582017860939 0
  endloop
endfacet
facet normal 0 0 1
  outer loop
    vertex 0.2341276571609328 0.1634582017860939 0
    vertex 0.2240637004973421 0.1669989172137158 0
    vertex 0.2230032518865578 0.1556057390798813 0
  endloop
endfacet
facet normal 0 0 1
  outer loop
    vertex 0.2305837772257207 0.1751190441400812 0
    vertex 0.2277328988777107 0.1861966561226685 0
    vertex 0.2185729300339296 0.1761793443543638 0
  endloop
endfacet
facet normal 0 -0 1
  outer loop
    vertex 0.2185729300339296 0.1761793443543638 0
    vertex 0.2277328988777107 0.1861966561226685 0
    vertex 0.2166781032366582 0.1879038583919545 0
  endloop
endfacet
facet normal 0 0 1
  outer loop
    vertex 0.2341276571609327 0.2365417982139063 0
    vertex 0.2310274377710468 0.2264275532518042 0
    vertex 0.2427209702273244 0.2259791975017717 0
  endloop
endfacet
facet normal 0 0 1
  outer loop
    vertex 0.1836191722957979 0.1873766473988607 0
    vertex 0.1867212122192539 0.1768429188105305 0
    vertex 0.194353699334051 0.1833862899713155 0
  endloop
endfacet
facet normal 0 -0 1
  outer loop
    vertex 0.1922740745350193 0.1604323105256497 0
    vertex 0.1950828934670931 0.1711200298823023 0
    vertex 0.1840404013804434 0.165983960224665 0
  endloop
endfacet
facet normal -0 0 1
  outer loop
    vertex 0.1711659838942565 0.240848494650522 0
    vertex 0.1817508565681503 0.2354178585550314 0
    vertex 0.1832560193914506 0.247113046105941 0
  endloop
endfacet
facet normal 0 0 1
  outer loop
    vertex 0.1618277089916594 0.1910119858841177 0
    vertex 0.1575918098595543 0.2003543266966338 0
    vertex 0.1504657026981835 0.1931916675451874 0
  endloop
endfacet
facet normal 0 0 1
  outer loop
    vertex 0.1541394349247273 0.2199200544923119 0
    vertex 0.1590680733739998 0.211086045667674 0
    vertex 0.1661641575440996 0.2185818387734441 0
  endloop
endfacet
facet normal 0 0 1
  outer loop
    vertex 0.2243883239876737 0.2089939211856784 0
    vertex 0.2215747822318572 0.2203564373714805 0
    vertex 0.2115717636017528 0.2133698071011846 0
  endloop
endfacet
facet normal -0 0 1
  outer loop
    vertex 0.2218443611200024 0.2313273518656634 0
    vertex 0.2310274377710468 0.2264275532518042 0
    vertex 0.2341276571609327 0.2365417982139063 0
  endloop
endfacet
facet normal 0 0 1
  outer loop
    vertex 0.1832560193914506 0.247113046105941 0
    vertex 0.1817508565681503 0.2354178585550314 0
    vertex 0.1923211795182641 0.2369525128947244 0
  endloop
endfacet
facet normal -0 0 1
  outer loop
    vertex 0.2166781032366582 0.1879038583919545 0
    vertex 0.2277328988777107 0.1861966561226685 0
    vertex 0.2269699867753282 0.1970169961314395 0
  endloop
endfacet
facet normal 0 -0 1
  outer loop
    vertex 0.1504657026981835 0.1931916675451874 0
    vertex 0.1575918098595543 0.2003543266966338 0
    vertex 0.1504657026981834 0.2068083324548121 0
  endloop
endfacet
facet normal 0 0 1
  outer loop
    vertex 0.1504657026981834 0.2068083324548121 0
    vertex 0.1590680733739998 0.211086045667674 0
    vertex 0.1541394349247273 0.2199200544923119 0
  endloop
endfacet
facet normal 0 0 1
  outer loop
    vertex 0.1796953502348492 0.2001375783002043 0
    vertex 0.1729237839202266 0.1916169243910198 0
    vertex 0.1836191722957979 0.1873766473988607 0
  endloop
endfacet
facet normal 0 0 1
  outer loop
    vertex 0.2098310618656262 0.2271644270453999 0
    vertex 0.1987040867608455 0.2287509842989016 0
    vertex 0.1992967082571444 0.2176311065080938 0
  endloop
endfacet
facet normal 0 0 1
  outer loop
    vertex 0.1950828934670931 0.1711200298823023 0
    vertex 0.1867212122192539 0.1768429188105305 0
    vertex 0.1840404013804434 0.165983960224665 0
  endloop
endfacet
facet normal 0 -0 1
  outer loop
    vertex 0.1742938355545665 0.2277859889067743 0
    vertex 0.1817508565681503 0.2354178585550314 0
    vertex 0.1711659838942565 0.240848494650522 0
  endloop
endfacet
facet normal -0 0 1
  outer loop
    vertex 0.1923211795182641 0.2369525128947244 0
    vertex 0.1987040867608455 0.2287509842989016 0
    vertex 0.2035447457191287 0.2383528519261175 0
  endloop
endfacet
facet normal 0 0 1
  outer loop
    vertex 0.2427209702273244 0.2259791975017717 0
    vertex 0.2310274377710468 0.2264275532518042 0
    vertex 0.2341322801794657 0.2167123230634015 0
  endloop
endfacet
facet normal 0 0 1
  outer loop
    vertex 0.2024031791043422 0.1620540470867493 0
    vertex 0.1950828934670931 0.1711200298823023 0
    vertex 0.1922740745350193 0.1604323105256497 0
  endloop
endfacet
facet normal 0 0 1
  outer loop
    vertex 0.2215747822318572 0.2203564373714805 0
    vertex 0.2310274377710468 0.2264275532518042 0
    vertex 0.2218443611200024 0.2313273518656634 0
  endloop
endfacet
facet normal 0 0 1
  outer loop
    vertex 0.1765098946188841 0.1763476665755089 0
    vertex 0.1867212122192539 0.1768429188105305 0
    vertex 0.1836191722957979 0.1873766473988607 0
  endloop
endfacet
facet normal 0 0 1
  outer loop
    vertex 0.2185729300339296 0.1761793443543638 0
    vertex 0.2240637004973421 0.1669989172137158 0
    vertex 0.2305837772257207 0.1751190441400812 0
  endloop
endfacet
facet normal 0 0 1
  outer loop
    vertex 0.2386864029971991 0.1934692372670794 0
    vertex 0.2374997958934154 0.1832971474065708 0
    vertex 0.24814586436739 0.1865101614421488 0
  endloop
endfacet
facet normal -0 0 1
  outer loop
    vertex 0.2035447457191287 0.2383528519261175 0
    vertex 0.2136792442487893 0.2380386192282832 0
    vertex 0.2101728006526316 0.2489542043841162 0
  endloop
endfacet
facet normal 0 -0 1
  outer loop
    vertex 0.2230032518865578 0.1556057390798813 0
    vertex 0.2240637004973421 0.1669989172137158 0
    vertex 0.2140308861795698 0.164632256708159 0
  endloop
endfacet
facet normal 0 -0 1
  outer loop
    vertex 0.1840404013804434 0.165983960224665 0
    vertex 0.1867212122192539 0.1768429188105305 0
    vertex 0.1765098946188841 0.1763476665755089 0
  endloop
endfacet
facet normal 0 0 1
  outer loop
    vertex 0.194353699334051 0.1833862899713155 0
    vertex 0.1867212122192539 0.1768429188105305 0
    vertex 0.1950828934670931 0.1711200298823023 0
  endloop
endfacet
facet normal 0 0 1
  outer loop
    vertex 0.2374997958934154 0.1832971474065708 0
    vertex 0.2277328988777107 0.1861966561226685 0
    vertex 0.2305837772257207 0.1751190441400812 0
  endloop
endfacet
facet normal 0 -0 1
  outer loop
    vertex 0.1575918098595543 0.2003543266966338 0
    vertex 0.1590680733739998 0.211086045667674 0
    vertex 0.1504657026981834 0.2068083324548121 0
  endloop
endfacet
facet normal 0 0 1
  outer loop
    vertex 0.1669991539882889 0.2043249410305496 0
    vertex 0.1590680733739998 0.211086045667674 0
    vertex 0.1575918098595543 0.2003543266966338 0
  endloop
endfacet
endsolid Created by Gmsh
