$MeshFormat
4.1 0 8
$EndMeshFormat
$PhysicalNames
2
2 1 "Cylinder"
2 2 "Beam"
$EndPhysicalNames
$Entities
5 5 2 0
1 0.25 0.2 0 0 
2 0.25 0.19 0 0 
3 0.6 0.19 0 0 
4 0.6 0.21 0 0 
5 0.25 0.21 0 0 
1 0.1499999 0.1499999 -1e-07 0.2500001 0.2500001 1e-07 0 2 1 -1 
2 0.2499999 0.1899999 -1e-07 0.6000000999999999 0.1900001 1e-07 0 2 2 -3 
3 0.5999999 0.1899999 -1e-07 0.6000000999999999 0.2100001 1e-07 0 2 3 -4 
4 0.2499999 0.2099999 -1e-07 0.6000000999999999 0.2100001 1e-07 0 2 4 -5 
5 0.2499999 0.1899999 -1e-07 0.2500001 0.2100001 1e-07 0 2 5 -2 
1 0.1499999 0.1499999 -1e-07 0.2500001 0.2500001 1e-07 1 1 1 1 
2 0.2499999 0.1899999 -1e-07 0.6000000999999999 0.2100001 1e-07 1 2 4 2 3 4 5 
$EndEntities
$Nodes
10 34 1 34
0 1 0 1
1
0.25 0.2 0
0 2 0 1
2
0.25 0.19 0
0 3 0 1
3
0.6 0.19 0
0 4 0 1
4
0.6 0.21 0
0 5 0 1
5
0.25 0.21 0
1 1 0 6
6
7
8
9
10
11
0.2311744900929366 0.2390915741234016 0
0.1888739533021841 0.2487463956090911 0
0.154951556604879 0.2216941869558778 0
0.1549515566048791 0.178305813044122 0
0.1888739533021844 0.1512536043909088 0
0.2311744900929368 0.1609084258765986 0
1 2 0 7
12
13
14
15
16
17
18
0.29375 0.19 0
0.3375 0.19 0
0.38125 0.19 0
0.425 0.19 0
0.46875 0.19 0
0.5125 0.19 0
0.55625 0.19 0
1 4 0 7
19
20
21
22
23
24
25
0.5562499999999999 0.21 0
0.5125 0.21 0
0.4687499999999999 0.21 0
0.4249999999999999 0.21 0
0.38125 0.21 0
0.3375 0.21 0
0.29375 0.21 0
2 1 0 1
26
0.2 0.2 0
2 2 0 8
27
28
29
30
31
32
33
34
0.271875 0.2 0
0.315625 0.2 0
0.359375 0.2 0
0.490625 0.2 0
0.5343749999999999 0.2 0
0.578125 0.2 0
0.403125 0.2 0
0.446875 0.2 0
$EndNodes
$Elements
2 39 1 39
2 1 2 7
1 6 26 1 
2 1 26 11 
3 11 26 10 
4 7 26 6 
5 10 26 9 
6 8 26 7 
7 9 26 8 
2 2 2 32
8 22 33 15 
9 21 34 16 
10 18 32 19 
11 17 31 20 
12 12 28 25 
13 13 29 24 
14 16 30 21 
15 2 27 5 
16 19 31 18 
17 25 27 12 
18 23 29 14 
19 20 30 17 
20 24 28 13 
21 14 33 23 
22 15 34 22 
23 4 32 3 
24 12 27 2 
25 3 32 18 
26 19 32 4 
27 5 27 25 
28 13 28 12 
29 14 29 13 
30 15 33 14 
31 16 34 15 
32 17 30 16 
33 18 31 17 
34 20 31 19 
35 21 30 20 
36 22 34 21 
37 23 33 22 
38 24 29 23 
39 25 28 24 
$EndElements
